RecursiveSans-StrictMedium.ufo
<glyph name="exclam" format="1">
  <advance width="350"/>
  <unicode hex="0021"/>
  <outline>
    <contour>
      <point x="213" y="264" type="line"/>
      <point x="221" y="343"/>
      <point x="229" y="423"/>
      <point x="237" y="502" type="curve"/>
      <point x="237" y="689" type="line" smooth="yes"/>
      <point x="237" y="696"/>
      <point x="232" y="700"/>
      <point x="226" y="700" type="curve" smooth="yes"/>
      <point x="181" y="700"/>
      <point x="144" y="700"/>
      <point x="113" y="700" type="curve"/>
      <point x="113" y="662"/>
      <point x="113" y="627"/>
      <point x="113" y="590" type="curve" smooth="yes"/>
      <point x="113" y="502" type="line"/>
      <point x="134" y="276"/>
      <point x="136" y="271"/>
      <point x="140" y="267" type="curve" smooth="yes"/>
      <point x="142" y="265"/>
      <point x="144" y="264"/>
      <point x="148" y="264" type="curve"/>
    </contour>
    <contour>
      <point x="255" y="-7" type="curve"/>
      <point x="255" y="140" type="line" smooth="yes"/>
      <point x="255" y="146"/>
      <point x="250" y="151"/>
      <point x="244" y="151" type="curve" smooth="yes"/>
      <point x="198" y="151"/>
      <point x="141" y="151"/>
      <point x="95" y="151" type="curve"/>
      <point x="95" y="4" type="line" smooth="yes"/>
      <point x="95" y="-2"/>
      <point x="100" y="-7"/>
      <point x="106" y="-7" type="curve" smooth="yes"/>
      <point x="152" y="-7"/>
      <point x="209" y="-7"/>
    </contour>
  </outline>
</glyph>
<glyph name="quotedbl" format="1">
  <advance width="600"/>
  <unicode hex="0022"/>
  <outline>
    <contour>
      <point x="228" y="450" type="curve"/>
      <point x="251" y="737" type="line" smooth="yes"/>
      <point x="252" y="746"/>
      <point x="247" y="750"/>
      <point x="241" y="750" type="curve" smooth="yes"/>
      <point x="203" y="750"/>
      <point x="160" y="750"/>
      <point x="113" y="750" type="curve"/>
      <point x="116" y="714"/>
      <point x="118" y="683"/>
      <point x="121" y="648" type="curve" smooth="yes"/>
      <point x="136" y="461" type="line" smooth="yes"/>
      <point x="137" y="454"/>
      <point x="142" y="450"/>
      <point x="148" y="450" type="curve" smooth="yes"/>
      <point x="175" y="450"/>
      <point x="201" y="450"/>
    </contour>
    <contour>
      <point x="463" y="450" type="curve"/>
      <point x="486" y="737" type="line" smooth="yes"/>
      <point x="487" y="746"/>
      <point x="482" y="750"/>
      <point x="476" y="750" type="curve" smooth="yes"/>
      <point x="438" y="750"/>
      <point x="396" y="750"/>
      <point x="348" y="750" type="curve"/>
      <point x="371" y="461" type="line"/>
      <point x="372" y="454"/>
      <point x="377" y="450"/>
      <point x="383" y="450" type="curve" smooth="yes"/>
      <point x="410" y="450"/>
      <point x="436" y="450"/>
    </contour>
  </outline>
</glyph>
<glyph name="numbersign" format="1">
  <advance width="600"/>
  <unicode hex="0023"/>
  <outline>
    <contour>
      <point x="220" y="720" type="curve"/>
      <point x="171" y="474"/>
      <point x="121" y="226"/>
      <point x="72" y="-20" type="curve"/>
      <point x="96" y="-20"/>
      <point x="119" y="-20"/>
      <point x="143" y="-20" type="curve"/>
      <point x="150" y="-20"/>
      <point x="155" y="-19"/>
      <point x="157" y="-9" type="curve" smooth="yes"/>
      <point x="205" y="230"/>
      <point x="254" y="470"/>
      <point x="301" y="709" type="curve" smooth="yes"/>
      <point x="303" y="718"/>
      <point x="299" y="720"/>
      <point x="292" y="720" type="curve" smooth="yes"/>
      <point x="269" y="720"/>
      <point x="243" y="720"/>
    </contour>
    <contour>
      <point x="443" y="720" type="curve"/>
      <point x="394" y="474"/>
      <point x="344" y="226"/>
      <point x="295" y="-20" type="curve"/>
      <point x="318" y="-20"/>
      <point x="343" y="-20"/>
      <point x="366" y="-20" type="curve"/>
      <point x="373" y="-20"/>
      <point x="378" y="-19"/>
      <point x="380" y="-9" type="curve" smooth="yes"/>
      <point x="428" y="230"/>
      <point x="477" y="470"/>
      <point x="524" y="709" type="curve" smooth="yes"/>
      <point x="526" y="718"/>
      <point x="522" y="720"/>
      <point x="515" y="720" type="curve" smooth="yes"/>
      <point x="492" y="720"/>
      <point x="465" y="720"/>
    </contour>
    <contour>
      <point x="581" y="443" type="line"/>
      <point x="581" y="456"/>
      <point x="581" y="500"/>
      <point x="581" y="513" type="curve" smooth="yes"/>
      <point x="581" y="516"/>
      <point x="580" y="519"/>
      <point x="578" y="521" type="curve" smooth="yes"/>
      <point x="576" y="523"/>
      <point x="573" y="524"/>
      <point x="570" y="524" type="curve"/>
      <point x="61" y="524" type="line"/>
      <point x="61" y="511"/>
      <point x="61" y="467"/>
      <point x="61" y="454" type="curve" smooth="yes"/>
      <point x="61" y="448"/>
      <point x="66" y="443"/>
      <point x="72" y="443" type="curve"/>
    </contour>
    <contour>
      <point x="21" y="252" type="line"/>
      <point x="21" y="239"/>
      <point x="21" y="200"/>
      <point x="21" y="187" type="curve" smooth="yes"/>
      <point x="21" y="184"/>
      <point x="22" y="181"/>
      <point x="24" y="179" type="curve" smooth="yes"/>
      <point x="26" y="177"/>
      <point x="29" y="176"/>
      <point x="32" y="176" type="curve"/>
      <point x="541" y="176" type="line"/>
      <point x="541" y="189"/>
      <point x="541" y="228"/>
      <point x="541" y="241" type="curve" smooth="yes"/>
      <point x="541" y="247"/>
      <point x="536" y="252"/>
      <point x="530" y="252" type="curve"/>
    </contour>
  </outline>
</glyph>
<glyph name="percent" format="1">
  <advance width="600"/>
  <unicode hex="0025"/>
  <outline>
    <contour>
      <point x="173" y="641" type="curve"/>
      <point x="225" y="641"/>
      <point x="249" y="610"/>
      <point x="249" y="558" type="curve" smooth="yes"/>
      <point x="249" y="515" type="line" smooth="yes"/>
      <point x="249" y="460"/>
      <point x="224" y="427"/>
      <point x="174" y="427" type="curve" smooth="yes"/>
      <point x="136" y="427"/>
      <point x="120" y="430"/>
      <point x="94" y="441" type="curve"/>
      <point x="80" y="397"/>
      <point x="121" y="358"/>
      <point x="172" y="358" type="curve" smooth="yes"/>
      <point x="266" y="358"/>
      <point x="324" y="419"/>
      <point x="324" y="512" type="curve" smooth="yes"/>
      <point x="324" y="559" type="line" smooth="yes"/>
      <point x="324" y="651"/>
      <point x="268" y="710"/>
      <point x="175" y="710" type="curve" smooth="yes"/>
      <point x="160" y="710"/>
      <point x="157" y="696"/>
    </contour>
    <contour>
      <point x="174" y="427" type="curve"/>
      <point x="122" y="427"/>
      <point x="98" y="458"/>
      <point x="98" y="510" type="curve" smooth="yes"/>
      <point x="98" y="553" type="line" smooth="yes"/>
      <point x="98" y="608"/>
      <point x="123" y="641"/>
      <point x="173" y="641" type="curve" smooth="yes"/>
      <point x="210" y="641"/>
      <point x="226" y="638"/>
      <point x="252" y="627" type="curve"/>
      <point x="267" y="671"/>
      <point x="226" y="710"/>
      <point x="175" y="710" type="curve" smooth="yes"/>
      <point x="81" y="710"/>
      <point x="22" y="649"/>
      <point x="22" y="556" type="curve" smooth="yes"/>
      <point x="22" y="509" type="line" smooth="yes"/>
      <point x="22" y="417"/>
      <point x="79" y="358"/>
      <point x="172" y="358" type="curve" smooth="yes"/>
      <point x="187" y="358"/>
      <point x="189" y="372"/>
    </contour>
    <contour>
      <point x="426" y="273" type="curve"/>
      <point x="478" y="273"/>
      <point x="502" y="242"/>
      <point x="502" y="190" type="curve" smooth="yes"/>
      <point x="502" y="147" type="line" smooth="yes"/>
      <point x="502" y="92"/>
      <point x="477" y="59"/>
      <point x="427" y="59" type="curve" smooth="yes"/>
      <point x="390" y="59"/>
      <point x="374" y="62"/>
      <point x="348" y="73" type="curve"/>
      <point x="333" y="29"/>
      <point x="374" y="-10"/>
      <point x="425" y="-10" type="curve" smooth="yes"/>
      <point x="519" y="-10"/>
      <point x="578" y="51"/>
      <point x="578" y="144" type="curve" smooth="yes"/>
      <point x="578" y="191" type="line" smooth="yes"/>
      <point x="578" y="283"/>
      <point x="521" y="342"/>
      <point x="428" y="342" type="curve" smooth="yes"/>
      <point x="413" y="342"/>
      <point x="411" y="328"/>
    </contour>
    <contour>
      <point x="427" y="59" type="curve"/>
      <point x="375" y="59"/>
      <point x="351" y="90"/>
      <point x="351" y="142" type="curve" smooth="yes"/>
      <point x="351" y="185" type="line" smooth="yes"/>
      <point x="351" y="240"/>
      <point x="376" y="273"/>
      <point x="426" y="273" type="curve" smooth="yes"/>
      <point x="464" y="273"/>
      <point x="480" y="270"/>
      <point x="506" y="259" type="curve"/>
      <point x="520" y="303"/>
      <point x="479" y="342"/>
      <point x="428" y="342" type="curve" smooth="yes"/>
      <point x="334" y="342"/>
      <point x="276" y="281"/>
      <point x="276" y="188" type="curve" smooth="yes"/>
      <point x="276" y="141" type="line" smooth="yes"/>
      <point x="276" y="49"/>
      <point x="332" y="-10"/>
      <point x="425" y="-10" type="curve" smooth="yes"/>
      <point x="440" y="-10"/>
      <point x="443" y="4"/>
    </contour>
    <contour>
      <point x="364" y="405" type="curve"/>
      <point x="383" y="405"/>
      <point x="403" y="405"/>
      <point x="430" y="405" type="curve" smooth="yes"/>
      <point x="435" y="405"/>
      <point x="437" y="406"/>
      <point x="440" y="412" type="curve" smooth="yes"/>
      <point x="485" y="507"/>
      <point x="531" y="602"/>
      <point x="577" y="697" type="curve" smooth="yes"/>
      <point x="581" y="705"/>
      <point x="577" y="710"/>
      <point x="569" y="710" type="curve" smooth="yes"/>
      <point x="535" y="710"/>
      <point x="510" y="710"/>
      <point x="471" y="710" type="curve"/>
      <point x="436" y="608"/>
      <point x="400" y="507"/>
    </contour>
    <contour>
      <point x="236" y="296" type="curve"/>
      <point x="217" y="296"/>
      <point x="197" y="296"/>
      <point x="170" y="296" type="curve" smooth="yes"/>
      <point x="165" y="296"/>
      <point x="163" y="295"/>
      <point x="160" y="289" type="curve" smooth="yes"/>
      <point x="115" y="194"/>
      <point x="69" y="99"/>
      <point x="23" y="4" type="curve" smooth="yes"/>
      <point x="19" y="-4"/>
      <point x="23" y="-9"/>
      <point x="31" y="-9" type="curve" smooth="yes"/>
      <point x="65" y="-9"/>
      <point x="90" y="-9"/>
      <point x="129" y="-9" type="curve"/>
      <point x="164" y="93"/>
      <point x="200" y="194"/>
    </contour>
  </outline>
</glyph>
<glyph name="ampersand" format="1">
  <advance width="600"/>
  <unicode hex="0026"/>
  <outline>
    <contour>
      <point x="314" y="709" type="curve" smooth="yes"/>
      <point x="176" y="709"/>
      <point x="99" y="632"/>
      <point x="99" y="545" type="curve" smooth="yes"/>
      <point x="99" y="494"/>
      <point x="147" y="487"/>
      <point x="196" y="487" type="curve"/>
      <point x="196" y="503"/>
      <point x="196" y="519"/>
      <point x="196" y="538" type="curve" smooth="yes"/>
      <point x="196" y="577"/>
      <point x="235" y="613"/>
      <point x="308" y="613" type="curve" smooth="yes"/>
      <point x="369" y="613"/>
      <point x="407" y="604"/>
      <point x="450" y="589" type="curve"/>
      <point x="466" y="589" type="line"/>
      <point x="466" y="617"/>
      <point x="466" y="645"/>
      <point x="466" y="673" type="curve"/>
      <point x="466" y="677"/>
      <point x="465" y="680"/>
      <point x="463" y="682" type="curve" smooth="yes"/>
      <point x="451" y="694"/>
      <point x="395" y="709"/>
    </contour>
    <contour>
      <point x="237" y="447" type="curve" smooth="yes"/>
      <point x="201" y="497"/>
      <point x="196" y="513"/>
      <point x="196" y="538" type="curve" smooth="yes"/>
      <point x="196" y="557"/>
      <point x="197" y="586"/>
      <point x="205" y="610" type="curve"/>
      <point x="139" y="610"/>
      <point x="99" y="581"/>
      <point x="99" y="545" type="curve" smooth="yes"/>
      <point x="99" y="541" type="line" smooth="yes"/>
      <point x="99" y="487"/>
      <point x="114" y="457"/>
      <point x="178" y="367" type="curve" smooth="yes"/>
      <point x="254" y="263"/>
      <point x="369" y="102"/>
      <point x="397" y="63" type="curve" smooth="yes"/>
      <point x="434" y="12"/>
      <point x="468" y="-10"/>
      <point x="519" y="-10" type="curve" smooth="yes"/>
      <point x="566" y="-10" type="line" smooth="yes"/>
      <point x="574" y="-10"/>
      <point x="577" y="-6"/>
      <point x="577" y="1" type="curve" smooth="yes"/>
      <point x="577" y="40"/>
      <point x="577" y="52"/>
      <point x="577" y="88" type="curve"/>
      <point x="572" y="88" type="line"/>
      <point x="562" y="88"/>
      <point x="544" y="88"/>
      <point x="534" y="88" type="curve" smooth="yes"/>
      <point x="505" y="88"/>
      <point x="491" y="95"/>
      <point x="469" y="123" type="curve" smooth="yes"/>
      <point x="448" y="151"/>
      <point x="340" y="303"/>
    </contour>
    <contour>
      <point x="219" y="-9" type="curve" smooth="yes"/>
      <point x="301" y="-9"/>
      <point x="353" y="25"/>
      <point x="395" y="79" type="curve" smooth="yes"/>
      <point x="403" y="91"/>
      <point x="402" y="96"/>
      <point x="362" y="145" type="curve"/>
      <point x="317" y="95"/>
      <point x="280" y="78"/>
      <point x="232" y="78" type="curve" smooth="yes"/>
      <point x="167" y="78"/>
      <point x="138" y="112"/>
      <point x="138" y="172" type="curve" smooth="yes"/>
      <point x="138" y="231" type="line" smooth="yes"/>
      <point x="138" y="293"/>
      <point x="184" y="336"/>
      <point x="256" y="336" type="curve"/>
      <point x="243" y="372"/>
      <point x="226" y="392"/>
      <point x="198" y="391" type="curve" smooth="yes"/>
      <point x="111" y="385"/>
      <point x="39" y="322"/>
      <point x="39" y="230" type="curve" smooth="yes"/>
      <point x="39" y="160" type="line" smooth="yes"/>
      <point x="39" y="51"/>
      <point x="103" y="-9"/>
    </contour>
    <contour>
      <point x="541" y="428" type="curve" smooth="yes"/>
      <point x="518" y="428"/>
      <point x="489" y="428"/>
      <point x="458" y="428" type="curve"/>
      <point x="458" y="397"/>
      <point x="458" y="373"/>
      <point x="458" y="337" type="curve" smooth="yes"/>
      <point x="458" y="267"/>
      <point x="440" y="226"/>
      <point x="405" y="185" type="curve" smooth="yes"/>
      <point x="396" y="176"/>
      <point x="396" y="170"/>
      <point x="431" y="130" type="curve"/>
      <point x="504" y="182"/>
      <point x="552" y="249"/>
      <point x="552" y="340" type="curve" smooth="yes"/>
      <point x="552" y="417" type="line" smooth="yes"/>
      <point x="552" y="424"/>
      <point x="549" y="428"/>
    </contour>
  </outline>
</glyph>
<glyph name="quotesingle" format="1">
  <advance width="250"/>
  <unicode hex="0027"/>
  <outline>
    <contour>
      <point x="173" y="450" type="curve"/>
      <point x="196" y="737" type="line" smooth="yes"/>
      <point x="197" y="746"/>
      <point x="192" y="750"/>
      <point x="186" y="750" type="curve" smooth="yes"/>
      <point x="146" y="750"/>
      <point x="102" y="750"/>
      <point x="53" y="750" type="curve"/>
      <point x="56" y="714"/>
      <point x="58" y="683"/>
      <point x="61" y="648" type="curve" smooth="yes"/>
      <point x="76" y="461" type="line" smooth="yes"/>
      <point x="77" y="454"/>
      <point x="82" y="450"/>
      <point x="88" y="450" type="curve" smooth="yes"/>
      <point x="117" y="450"/>
      <point x="145" y="450"/>
    </contour>
  </outline>
</glyph>
<glyph name="parenleft" format="1">
  <advance width="400"/>
  <unicode hex="0028"/>
  <outline>
    <contour>
      <point x="273" y="747" type="curve" smooth="yes"/>
      <point x="155" y="629"/>
      <point x="100" y="482"/>
      <point x="100" y="313" type="curve" smooth="yes"/>
      <point x="100" y="305" type="line" smooth="yes"/>
      <point x="100" y="135"/>
      <point x="155" y="-12"/>
      <point x="273" y="-130" type="curve" smooth="yes"/>
      <point x="279" y="-136"/>
      <point x="285" y="-138"/>
      <point x="293" y="-138" type="curve" smooth="yes"/>
      <point x="328" y="-138"/>
      <point x="355" y="-138"/>
      <point x="392" y="-138" type="curve"/>
      <point x="392" y="-122" type="line"/>
      <point x="264" y="-4"/>
      <point x="201" y="141"/>
      <point x="201" y="305" type="curve" smooth="yes"/>
      <point x="201" y="313" type="line" smooth="yes"/>
      <point x="201" y="476"/>
      <point x="264" y="621"/>
      <point x="392" y="739" type="curve"/>
      <point x="392" y="755" type="line"/>
      <point x="355" y="755"/>
      <point x="328" y="755"/>
      <point x="293" y="755" type="curve" smooth="yes"/>
      <point x="285" y="755"/>
      <point x="279" y="754"/>
    </contour>
  </outline>
</glyph>
<glyph name="parenright" format="1">
  <advance width="400"/>
  <unicode hex="0029"/>
  <outline>
    <contour>
      <point x="127" y="-130" type="curve" smooth="yes"/>
      <point x="245" y="-12"/>
      <point x="300" y="135"/>
      <point x="300" y="305" type="curve" smooth="yes"/>
      <point x="300" y="313" type="line" smooth="yes"/>
      <point x="300" y="482"/>
      <point x="245" y="629"/>
      <point x="127" y="747" type="curve" smooth="yes"/>
      <point x="121" y="754"/>
      <point x="115" y="755"/>
      <point x="107" y="755" type="curve" smooth="yes"/>
      <point x="72" y="755"/>
      <point x="45" y="755"/>
      <point x="8" y="755" type="curve"/>
      <point x="8" y="739" type="line"/>
      <point x="136" y="621"/>
      <point x="199" y="476"/>
      <point x="199" y="313" type="curve" smooth="yes"/>
      <point x="199" y="305" type="line" smooth="yes"/>
      <point x="199" y="141"/>
      <point x="136" y="-4"/>
      <point x="8" y="-122" type="curve"/>
      <point x="8" y="-138" type="line"/>
      <point x="45" y="-138"/>
      <point x="72" y="-138"/>
      <point x="107" y="-138" type="curve" smooth="yes"/>
      <point x="115" y="-138"/>
      <point x="121" y="-136"/>
    </contour>
  </outline>
</glyph>
<glyph name="asterisk" format="1">
  <advance width="500"/>
  <unicode hex="002A"/>
  <outline>
    <contour>
      <point x="208" y="769" type="curve"/>
      <point x="212" y="743"/>
      <point x="216" y="718"/>
      <point x="220" y="691" type="curve" smooth="yes"/>
      <point x="237" y="562" type="line"/>
      <point x="209" y="363" type="line" smooth="yes"/>
      <point x="209" y="358"/>
      <point x="211" y="355"/>
      <point x="216" y="355" type="curve"/>
      <point x="242" y="355"/>
      <point x="267" y="355"/>
      <point x="292" y="355" type="curve"/>
      <point x="289" y="380"/>
      <point x="284" y="406"/>
      <point x="280" y="431" type="curve" smooth="yes"/>
      <point x="263" y="562" type="line"/>
      <point x="291" y="761" type="line" smooth="yes"/>
      <point x="292" y="766"/>
      <point x="290" y="769"/>
      <point x="284" y="769" type="curve" smooth="yes"/>
      <point x="259" y="769"/>
      <point x="234" y="769"/>
    </contour>
    <contour>
      <point x="408" y="702" type="curve"/>
      <point x="244" y="573" type="line"/>
      <point x="57" y="499" type="line" smooth="yes"/>
      <point x="53" y="496"/>
      <point x="51" y="492"/>
      <point x="54" y="487" type="curve"/>
      <point x="67" y="464"/>
      <point x="79" y="444"/>
      <point x="92" y="422" type="curve"/>
      <point x="257" y="550" type="line"/>
      <point x="443" y="625" type="line" smooth="yes"/>
      <point x="448" y="627"/>
      <point x="449" y="632"/>
      <point x="446" y="637" type="curve" smooth="yes"/>
      <point x="434" y="658"/>
      <point x="421" y="679"/>
    </contour>
    <contour>
      <point x="450" y="495" type="curve"/>
      <point x="257" y="573" type="line"/>
      <point x="99" y="698" type="line" smooth="yes"/>
      <point x="95" y="700"/>
      <point x="91" y="699"/>
      <point x="87" y="695" type="curve"/>
      <point x="75" y="672"/>
      <point x="62" y="651"/>
      <point x="50" y="629" type="curve"/>
      <point x="244" y="550" type="line"/>
      <point x="402" y="427" type="line" smooth="yes"/>
      <point x="406" y="424"/>
      <point x="411" y="424"/>
      <point x="413" y="430" type="curve"/>
      <point x="426" y="452"/>
      <point x="438" y="473"/>
    </contour>
  </outline>
</glyph>
<glyph name="plus" format="1">
  <advance width="600"/>
  <unicode hex="002B"/>
  <outline>
    <contour>
      <point x="68" y="349" type="line"/>
      <point x="68" y="320"/>
      <point x="68" y="291"/>
      <point x="68" y="262" type="curve" smooth="yes"/>
      <point x="68" y="259"/>
      <point x="69" y="256"/>
      <point x="71" y="254" type="curve" smooth="yes"/>
      <point x="73" y="252"/>
      <point x="76" y="251"/>
      <point x="79" y="251" type="curve"/>
      <point x="532" y="251" type="line"/>
      <point x="532" y="280"/>
      <point x="532" y="309"/>
      <point x="532" y="338" type="curve" smooth="yes"/>
      <point x="532" y="344"/>
      <point x="527" y="349"/>
      <point x="521" y="349" type="curve"/>
    </contour>
    <contour>
      <point x="349" y="69" type="curve"/>
      <point x="349" y="521" type="line" smooth="yes"/>
      <point x="349" y="524"/>
      <point x="348" y="527"/>
      <point x="346" y="529" type="curve" smooth="yes"/>
      <point x="344" y="531"/>
      <point x="341" y="532"/>
      <point x="338" y="532" type="curve" smooth="yes"/>
      <point x="310" y="532"/>
      <point x="284" y="532"/>
      <point x="251" y="532" type="curve"/>
      <point x="251" y="510"/>
      <point x="251" y="475"/>
      <point x="251" y="433" type="curve" smooth="yes"/>
      <point x="251" y="80" type="line" smooth="yes"/>
      <point x="251" y="74"/>
      <point x="256" y="69"/>
      <point x="262" y="69" type="curve" smooth="yes"/>
      <point x="293" y="69"/>
      <point x="318" y="69"/>
    </contour>
  </outline>
</glyph>
<glyph name="comma" format="1">
  <advance width="350"/>
  <unicode hex="002C"/>
  <outline>
    <contour>
      <point x="154" y="-190" type="curve" smooth="yes"/>
      <point x="159" y="-190"/>
      <point x="163" y="-189"/>
      <point x="165" y="-183" type="curve"/>
      <point x="206" y="-82"/>
      <point x="250" y="28"/>
      <point x="287" y="118" type="curve"/>
      <point x="290" y="126"/>
      <point x="287" y="131"/>
      <point x="279" y="131" type="curve" smooth="yes"/>
      <point x="226" y="131"/>
      <point x="196" y="131"/>
      <point x="134" y="131" type="curve"/>
      <point x="110" y="24"/>
      <point x="86" y="-83"/>
      <point x="62" y="-190" type="curve"/>
      <point x="87" y="-190"/>
      <point x="114" y="-190"/>
    </contour>
  </outline>
</glyph>
<glyph name="slash" format="1">
  <advance width="600"/>
  <unicode hex="002F"/>
  <outline>
    <contour>
      <point x="537" y="750" type="curve"/>
      <point x="504" y="750"/>
      <point x="476" y="750"/>
      <point x="443" y="750" type="curve" smooth="yes"/>
      <point x="437" y="750"/>
      <point x="433" y="748"/>
      <point x="431" y="743" type="curve" smooth="yes"/>
      <point x="330" y="489"/>
      <point x="230" y="233"/>
      <point x="130" y="-21" type="curve" smooth="yes"/>
      <point x="116" y="-57"/>
      <point x="101" y="-94"/>
      <point x="87" y="-130" type="curve"/>
      <point x="120" y="-130"/>
      <point x="147" y="-130"/>
      <point x="180" y="-130" type="curve" smooth="yes"/>
      <point x="186" y="-130"/>
      <point x="192" y="-127"/>
      <point x="195" y="-119" type="curve"/>
      <point x="309" y="170"/>
      <point x="422" y="461"/>
    </contour>
  </outline>
</glyph>
<glyph name="zero" format="1">
  <advance width="600"/>
  <unicode hex="0030"/>
  <outline>
    <contour>
      <point x="300" y="720" type="curve" smooth="yes"/>
      <point x="162" y="720"/>
      <point x="63" y="617"/>
      <point x="63" y="445" type="curve" smooth="yes"/>
      <point x="63" y="255" type="line" smooth="yes"/>
      <point x="63" y="87"/>
      <point x="158" y="-20"/>
      <point x="300" y="-20" type="curve"/>
      <point x="313" y="-20"/>
      <point x="320" y="-10"/>
      <point x="300" y="72" type="curve"/>
      <point x="217" y="72"/>
      <point x="161" y="127"/>
      <point x="161" y="255" type="curve" smooth="yes"/>
      <point x="161" y="445" type="line" smooth="yes"/>
      <point x="161" y="574"/>
      <point x="216" y="628"/>
      <point x="300" y="628" type="curve" smooth="yes"/>
      <point x="341" y="628"/>
      <point x="377" y="628"/>
      <point x="405" y="628" type="curve"/>
      <point x="405" y="682"/>
      <point x="375" y="720"/>
    </contour>
    <contour>
      <point x="300" y="-20" type="curve" smooth="yes"/>
      <point x="438" y="-20"/>
      <point x="537" y="83"/>
      <point x="537" y="255" type="curve" smooth="yes"/>
      <point x="537" y="445" type="line" smooth="yes"/>
      <point x="537" y="613"/>
      <point x="442" y="720"/>
      <point x="300" y="720" type="curve"/>
      <point x="287" y="720"/>
      <point x="280" y="710"/>
      <point x="300" y="628" type="curve"/>
      <point x="383" y="628"/>
      <point x="439" y="574"/>
      <point x="439" y="445" type="curve" smooth="yes"/>
      <point x="439" y="255" type="line" smooth="yes"/>
      <point x="439" y="127"/>
      <point x="384" y="72"/>
      <point x="293" y="72" type="curve" smooth="yes"/>
      <point x="246" y="72"/>
      <point x="223" y="72"/>
      <point x="195" y="72" type="curve"/>
      <point x="195" y="18"/>
      <point x="225" y="-20"/>
    </contour>
  </outline>
</glyph>
<glyph name="one" format="1">
  <advance width="600"/>
  <unicode hex="0031"/>
  <outline>
    <contour>
      <point x="384" y="25" type="curve"/>
      <point x="384" y="250"/>
      <point x="384" y="475"/>
      <point x="384" y="699" type="curve" smooth="yes"/>
      <point x="384" y="706"/>
      <point x="380" y="710"/>
      <point x="373" y="710" type="curve" smooth="yes"/>
      <point x="286" y="710" type="line"/>
      <point x="286" y="496"/>
      <point x="286" y="277"/>
      <point x="286" y="63" type="curve" smooth="yes"/>
      <point x="286" y="33"/>
      <point x="327" y="25"/>
    </contour>
    <contour>
      <point x="85" y="93" type="line"/>
      <point x="85" y="66"/>
      <point x="85" y="41"/>
      <point x="85" y="11" type="curve" smooth="yes"/>
      <point x="85" y="8"/>
      <point x="86" y="5"/>
      <point x="88" y="3" type="curve" smooth="yes"/>
      <point x="90" y="1"/>
      <point x="93" y="0"/>
      <point x="96" y="0" type="curve" smooth="yes"/>
      <point x="545" y="0" type="line"/>
      <point x="545" y="25"/>
      <point x="545" y="51"/>
      <point x="545" y="82" type="curve" smooth="yes"/>
      <point x="545" y="89"/>
      <point x="541" y="93"/>
      <point x="534" y="93" type="curve" smooth="yes"/>
    </contour>
    <contour>
      <point x="105" y="455" type="curve" smooth="yes"/>
      <point x="114" y="455"/>
      <point x="119" y="457"/>
      <point x="311" y="619" type="curve" smooth="yes"/>
      <point x="335" y="637"/>
      <point x="358" y="655"/>
      <point x="358" y="662" type="curve" smooth="yes"/>
      <point x="358" y="682"/>
      <point x="346" y="710"/>
      <point x="295" y="710" type="curve"/>
      <point x="275" y="710" type="line"/>
      <point x="246" y="686"/>
      <point x="217" y="661"/>
      <point x="188" y="637" type="curve"/>
      <point x="158" y="612"/>
      <point x="129" y="587"/>
      <point x="99" y="563" type="curve"/>
      <point x="99" y="464" type="line" smooth="yes"/>
      <point x="99" y="458"/>
      <point x="101" y="455"/>
    </contour>
  </outline>
</glyph>
<glyph name="two" format="1">
  <advance width="600"/>
  <unicode hex="0032"/>
  <outline>
    <contour>
      <point x="426" y="609" type="curve"/>
      <point x="426" y="580"/>
      <point x="426" y="566"/>
      <point x="426" y="528" type="curve" smooth="yes"/>
      <point x="426" y="478"/>
      <point x="404" y="449"/>
      <point x="280" y="367" type="curve" smooth="yes"/>
      <point x="125" y="264"/>
      <point x="65" y="191"/>
      <point x="65" y="73" type="curve" smooth="yes"/>
      <point x="65" y="61"/>
      <point x="91" y="58"/>
      <point x="165" y="58" type="curve"/>
      <point x="165" y="160"/>
      <point x="189" y="192"/>
      <point x="332" y="289" type="curve" smooth="yes"/>
      <point x="467" y="378"/>
      <point x="524" y="432"/>
      <point x="524" y="523" type="curve" smooth="yes"/>
      <point x="524" y="553" type="line" smooth="yes"/>
      <point x="524" y="582"/>
      <point x="497" y="609"/>
    </contour>
    <contour>
      <point x="540" y="0" type="line"/>
      <point x="540" y="25"/>
      <point x="540" y="51"/>
      <point x="540" y="82" type="curve" smooth="yes"/>
      <point x="540" y="89"/>
      <point x="536" y="93"/>
      <point x="529" y="93" type="curve" smooth="yes"/>
      <point x="149" y="93" type="line" smooth="yes"/>
      <point x="120" y="93"/>
      <point x="92" y="88"/>
      <point x="65" y="73" type="curve"/>
      <point x="65" y="52"/>
      <point x="65" y="40"/>
      <point x="65" y="11" type="curve" smooth="yes"/>
      <point x="65" y="4"/>
      <point x="69" y="0"/>
      <point x="76" y="0" type="curve" smooth="yes"/>
    </contour>
    <contour>
      <point x="300" y="720" type="curve" smooth="yes"/>
      <point x="199" y="720"/>
      <point x="117" y="688"/>
      <point x="87" y="659" type="curve" smooth="yes"/>
      <point x="85" y="656"/>
      <point x="84" y="654"/>
      <point x="84" y="649" type="curve" smooth="yes"/>
      <point x="84" y="610"/>
      <point x="84" y="584"/>
      <point x="84" y="559" type="curve"/>
      <point x="99" y="559" type="line"/>
      <point x="159" y="604"/>
      <point x="218" y="623"/>
      <point x="299" y="623" type="curve" smooth="yes"/>
      <point x="384" y="623"/>
      <point x="426" y="601"/>
      <point x="426" y="544" type="curve" smooth="yes"/>
      <point x="426" y="518"/>
      <point x="426" y="499"/>
      <point x="426" y="479" type="curve"/>
      <point x="491" y="480"/>
      <point x="524" y="512"/>
      <point x="524" y="553" type="curve" smooth="yes"/>
      <point x="524" y="656"/>
      <point x="439" y="720"/>
    </contour>
  </outline>
</glyph>
<glyph name="three" format="1">
  <advance width="600"/>
  <unicode hex="0033"/>
  <outline>
    <contour>
      <point x="283" y="623" type="curve" smooth="yes"/>
      <point x="386" y="623"/>
      <point x="429" y="580"/>
      <point x="429" y="524" type="curve" smooth="yes"/>
      <point x="429" y="500"/>
      <point x="429" y="481"/>
      <point x="429" y="461" type="curve"/>
      <point x="481" y="461"/>
      <point x="527" y="484"/>
      <point x="527" y="530" type="curve" smooth="yes"/>
      <point x="527" y="555" type="line" smooth="yes"/>
      <point x="527" y="646"/>
      <point x="436" y="720"/>
      <point x="286" y="720" type="curve" smooth="yes"/>
      <point x="190" y="720"/>
      <point x="107" y="694"/>
      <point x="83" y="671" type="curve" smooth="yes"/>
      <point x="81" y="669"/>
      <point x="80" y="667"/>
      <point x="80" y="663" type="curve" smooth="yes"/>
      <point x="80" y="626"/>
      <point x="80" y="596"/>
      <point x="80" y="575" type="curve"/>
      <point x="96" y="575" type="line"/>
      <point x="154" y="609"/>
      <point x="201" y="623"/>
    </contour>
    <contour>
      <point x="173" y="339" type="curve" smooth="yes"/>
      <point x="389" y="339"/>
      <point x="527" y="398"/>
      <point x="527" y="530" type="curve" smooth="yes"/>
      <point x="527" y="559"/>
      <point x="476" y="587"/>
      <point x="427" y="587" type="curve"/>
      <point x="427" y="562"/>
      <point x="427" y="539"/>
      <point x="427" y="517" type="curve" smooth="yes"/>
      <point x="427" y="451"/>
      <point x="368" y="403"/>
      <point x="162" y="403" type="curve"/>
      <point x="162" y="387"/>
      <point x="162" y="365"/>
      <point x="162" y="350" type="curve" smooth="yes"/>
      <point x="162" y="344"/>
      <point x="166" y="339"/>
    </contour>
    <contour>
      <point x="173" y="311" type="curve" smooth="yes"/>
      <point x="357" y="311"/>
      <point x="436" y="272"/>
      <point x="436" y="189" type="curve" smooth="yes"/>
      <point x="436" y="166"/>
      <point x="436" y="151"/>
      <point x="436" y="122" type="curve"/>
      <point x="494" y="122"/>
      <point x="537" y="149"/>
      <point x="537" y="193" type="curve" smooth="yes"/>
      <point x="537" y="316"/>
      <point x="403" y="376"/>
      <point x="162" y="376" type="curve"/>
      <point x="162" y="359"/>
      <point x="162" y="339"/>
      <point x="162" y="322" type="curve" smooth="yes"/>
      <point x="162" y="314"/>
      <point x="166" y="311"/>
    </contour>
    <contour>
      <point x="278" y="77" type="curve" smooth="yes"/>
      <point x="191" y="77"/>
      <point x="143" y="90"/>
      <point x="81" y="129" type="curve"/>
      <point x="65" y="129" type="line"/>
      <point x="65" y="105"/>
      <point x="65" y="74"/>
      <point x="65" y="37" type="curve" smooth="yes"/>
      <point x="65" y="33"/>
      <point x="66" y="31"/>
      <point x="68" y="29" type="curve" smooth="yes"/>
      <point x="92" y="5"/>
      <point x="180" y="-20"/>
      <point x="280" y="-20" type="curve" smooth="yes"/>
      <point x="442" y="-20"/>
      <point x="537" y="57"/>
      <point x="537" y="165" type="curve" smooth="yes"/>
      <point x="537" y="193" type="line" smooth="yes"/>
      <point x="537" y="230"/>
      <point x="488" y="256"/>
      <point x="438" y="255" type="curve"/>
      <point x="438" y="228"/>
      <point x="438" y="210"/>
      <point x="438" y="187" type="curve" smooth="yes"/>
      <point x="438" y="126"/>
      <point x="391" y="77"/>
    </contour>
  </outline>
</glyph>
<glyph name="four" format="1">
  <advance width="600"/>
  <unicode hex="0034"/>
  <outline>
    <contour>
      <point x="137" y="207" type="curve"/>
      <point x="240" y="367"/>
      <point x="344" y="527"/>
      <point x="447" y="687" type="curve"/>
      <point x="447" y="700" type="line"/>
      <point x="394" y="700"/>
      <point x="358" y="700"/>
      <point x="348" y="700" type="curve" smooth="yes"/>
      <point x="342" y="700"/>
      <point x="335" y="700"/>
      <point x="330" y="691" type="curve" smooth="yes"/>
      <point x="199" y="484"/>
      <point x="48" y="240"/>
      <point x="48" y="235" type="curve" smooth="yes"/>
      <point x="48" y="215"/>
      <point x="101" y="207"/>
    </contour>
    <contour>
      <point x="560" y="152" type="line"/>
      <point x="560" y="179"/>
      <point x="560" y="206"/>
      <point x="560" y="234" type="curve" smooth="yes"/>
      <point x="560" y="240"/>
      <point x="555" y="245"/>
      <point x="549" y="245" type="curve" smooth="yes"/>
      <point x="392" y="245" type="line"/>
      <point x="328" y="245"/>
      <point x="182" y="240"/>
      <point x="48" y="235" type="curve"/>
      <point x="48" y="163" type="line" smooth="yes"/>
      <point x="48" y="160"/>
      <point x="49" y="157"/>
      <point x="51" y="155" type="curve" smooth="yes"/>
      <point x="53" y="153"/>
      <point x="56" y="152"/>
      <point x="59" y="152" type="curve" smooth="yes"/>
    </contour>
    <contour>
      <point x="485" y="0" type="curve"/>
      <point x="485" y="31"/>
      <point x="485" y="65"/>
      <point x="485" y="99" type="curve" smooth="yes"/>
      <point x="485" y="374" type="line" smooth="yes"/>
      <point x="485" y="381"/>
      <point x="481" y="385"/>
      <point x="474" y="385" type="curve" smooth="yes"/>
      <point x="402" y="385" type="line"/>
      <point x="396" y="333"/>
      <point x="391" y="283"/>
      <point x="386" y="231" type="curve"/>
      <point x="386" y="11" type="line" smooth="yes"/>
      <point x="386" y="5"/>
      <point x="391" y="0"/>
      <point x="397" y="0" type="curve" smooth="yes"/>
      <point x="426" y="0"/>
      <point x="456" y="0"/>
    </contour>
  </outline>
</glyph>
<glyph name="six" format="1">
  <advance width="600"/>
  <unicode hex="0036"/>
  <outline>
    <contour>
      <point x="208" y="71" type="curve"/>
      <point x="208" y="5"/>
      <point x="244" y="-20"/>
      <point x="307" y="-20" type="curve"/>
      <point x="445" y="-20"/>
      <point x="541" y="68"/>
      <point x="541" y="188" type="curve" smooth="yes"/>
      <point x="541" y="249" type="line" smooth="yes"/>
      <point x="541" y="290"/>
      <point x="495" y="318"/>
      <point x="444" y="318" type="curve"/>
      <point x="444" y="291"/>
      <point x="444" y="270"/>
      <point x="444" y="239" type="curve" smooth="yes"/>
      <point x="444" y="197" type="line" smooth="yes"/>
      <point x="444" y="121"/>
      <point x="393" y="71"/>
      <point x="301" y="71" type="curve" smooth="yes"/>
      <point x="256" y="71"/>
      <point x="233" y="71"/>
    </contour>
    <contour>
      <point x="239" y="623" type="curve"/>
      <point x="270" y="623"/>
      <point x="291" y="623"/>
      <point x="333" y="623" type="curve" smooth="yes"/>
      <point x="404" y="623"/>
      <point x="442" y="611"/>
      <point x="494" y="579" type="curve"/>
      <point x="509" y="579" type="line"/>
      <point x="509" y="602"/>
      <point x="509" y="632"/>
      <point x="509" y="669" type="curve" smooth="yes"/>
      <point x="509" y="673"/>
      <point x="509" y="675"/>
      <point x="507" y="677" type="curve" smooth="yes"/>
      <point x="486" y="697"/>
      <point x="421" y="720"/>
      <point x="344" y="720" type="curve" smooth="yes"/>
      <point x="258" y="720"/>
      <point x="239" y="671"/>
    </contour>
    <contour>
      <point x="63" y="414" type="curve" smooth="yes"/>
      <point x="63" y="268" type="line" smooth="yes"/>
      <point x="63" y="74"/>
      <point x="145" y="-20"/>
      <point x="307" y="-20" type="curve" smooth="yes"/>
      <point x="319" y="-20"/>
      <point x="326" y="-1"/>
      <point x="301" y="71" type="curve"/>
      <point x="204" y="71"/>
      <point x="163" y="126"/>
      <point x="163" y="266" type="curve" smooth="yes"/>
      <point x="163" y="417" type="line" smooth="yes"/>
      <point x="163" y="559"/>
      <point x="218" y="623"/>
      <point x="333" y="623" type="curve"/>
      <point x="364" y="705"/>
      <point x="361" y="720"/>
      <point x="344" y="720" type="curve" smooth="yes"/>
      <point x="198" y="720"/>
      <point x="63" y="640"/>
    </contour>
    <contour>
      <point x="335" y="434" type="curve" smooth="yes"/>
      <point x="261" y="434"/>
      <point x="197" y="406"/>
      <point x="163" y="372" type="curve" smooth="yes"/>
      <point x="154" y="363"/>
      <point x="149" y="344"/>
      <point x="149" y="284" type="curve"/>
      <point x="199" y="326"/>
      <point x="249" y="344"/>
      <point x="310" y="344" type="curve" smooth="yes"/>
      <point x="401" y="344"/>
      <point x="444" y="310"/>
      <point x="444" y="239" type="curve" smooth="yes"/>
      <point x="444" y="227"/>
      <point x="444" y="212"/>
      <point x="444" y="204" type="curve"/>
      <point x="524" y="206"/>
      <point x="541" y="232"/>
      <point x="541" y="249" type="curve" smooth="yes"/>
      <point x="541" y="366"/>
      <point x="460" y="434"/>
    </contour>
  </outline>
</glyph>
<glyph name="seven" format="1">
  <advance width="600"/>
  <unicode hex="0037"/>
  <outline>
    <contour>
      <point x="469" y="607" type="line" smooth="yes"/>
      <point x="494" y="607"/>
      <point x="519" y="609"/>
      <point x="545" y="615" type="curve"/>
      <point x="545" y="689" type="line"/>
      <point x="545" y="695"/>
      <point x="540" y="700"/>
      <point x="534" y="700" type="curve"/>
      <point x="65" y="700" type="line"/>
      <point x="65" y="658" type="line" smooth="yes"/>
      <point x="65" y="624"/>
      <point x="78" y="607"/>
      <point x="96" y="607" type="curve" smooth="yes"/>
    </contour>
    <contour>
      <point x="301" y="0" type="line"/>
      <point x="452" y="377"/>
      <point x="545" y="606"/>
      <point x="545" y="615" type="curve" smooth="yes"/>
      <point x="545" y="642"/>
      <point x="516" y="648"/>
      <point x="455" y="647" type="curve"/>
      <point x="299" y="265"/>
      <point x="199" y="20"/>
      <point x="199" y="11" type="curve" smooth="yes"/>
      <point x="199" y="4"/>
      <point x="203" y="0"/>
      <point x="210" y="0" type="curve" smooth="yes"/>
    </contour>
    <contour>
      <point x="164" y="485" type="curve"/>
      <point x="164" y="537"/>
      <point x="164" y="617"/>
      <point x="164" y="669" type="curve"/>
      <point x="164" y="692"/>
      <point x="140" y="700"/>
      <point x="77" y="700" type="curve" smooth="yes"/>
      <point x="65" y="700" type="line"/>
      <point x="65" y="643"/>
      <point x="65" y="553"/>
      <point x="65" y="496" type="curve"/>
      <point x="65" y="490"/>
      <point x="70" y="485"/>
      <point x="76" y="485" type="curve" smooth="yes"/>
      <point x="105" y="485"/>
      <point x="135" y="485"/>
    </contour>
  </outline>
</glyph>
<glyph name="eight" format="1">
  <advance width="600"/>
  <unicode hex="0038"/>
  <outline>
    <contour>
      <point x="374" y="364" type="curve" smooth="yes"/>
      <point x="268" y="402" type="line" smooth="yes"/>
      <point x="199" y="427"/>
      <point x="168" y="461"/>
      <point x="168" y="510" type="curve" smooth="yes"/>
      <point x="168" y="530"/>
      <point x="168" y="549"/>
      <point x="168" y="577" type="curve"/>
      <point x="119" y="577"/>
      <point x="74" y="551"/>
      <point x="74" y="508" type="curve" smooth="yes"/>
      <point x="74" y="421"/>
      <point x="125" y="365"/>
      <point x="246" y="320" type="curve" smooth="yes"/>
      <point x="349" y="282" type="line" smooth="yes"/>
      <point x="422" y="254"/>
      <point x="449" y="228"/>
      <point x="449" y="180" type="curve" smooth="yes"/>
      <point x="449" y="137"/>
      <point x="448" y="122"/>
      <point x="448" y="106" type="curve"/>
      <point x="497" y="109"/>
      <point x="542" y="146"/>
      <point x="542" y="188" type="curve"/>
      <point x="542" y="268"/>
      <point x="489" y="322"/>
    </contour>
    <contour>
      <point x="300" y="-20" type="curve" smooth="yes"/>
      <point x="448" y="-20"/>
      <point x="542" y="56"/>
      <point x="542" y="155" type="curve" smooth="yes"/>
      <point x="542" y="188" type="line" smooth="yes"/>
      <point x="542" y="220"/>
      <point x="503" y="238"/>
      <point x="449" y="241" type="curve"/>
      <point x="449" y="233"/>
      <point x="449" y="208"/>
      <point x="449" y="169" type="curve" smooth="yes"/>
      <point x="449" y="108"/>
      <point x="397" y="72"/>
      <point x="300" y="72" type="curve" smooth="yes"/>
      <point x="250" y="72"/>
      <point x="224" y="72"/>
      <point x="198" y="72" type="curve"/>
      <point x="198" y="25"/>
      <point x="244" y="-20"/>
    </contour>
    <contour>
      <point x="302" y="720" type="curve" smooth="yes"/>
      <point x="165" y="720"/>
      <point x="74" y="641"/>
      <point x="74" y="536" type="curve" smooth="yes"/>
      <point x="74" y="508" type="line" smooth="yes"/>
      <point x="74" y="470"/>
      <point x="103" y="446"/>
      <point x="168" y="446" type="curve"/>
      <point x="168" y="469"/>
      <point x="168" y="490"/>
      <point x="168" y="524" type="curve" smooth="yes"/>
      <point x="168" y="583"/>
      <point x="219" y="628"/>
      <point x="299" y="628" type="curve" smooth="yes"/>
      <point x="352" y="628"/>
      <point x="379" y="628"/>
      <point x="405" y="628" type="curve"/>
      <point x="405" y="684"/>
      <point x="362" y="720"/>
    </contour>
    <contour>
      <point x="359" y="343" type="curve" smooth="yes"/>
      <point x="434" y="343"/>
      <point x="527" y="429"/>
      <point x="527" y="511" type="curve" smooth="yes"/>
      <point x="527" y="538" type="line" smooth="yes"/>
      <point x="527" y="644"/>
      <point x="438" y="720"/>
      <point x="302" y="720" type="curve" smooth="yes"/>
      <point x="282" y="720"/>
      <point x="279" y="708"/>
      <point x="299" y="628" type="curve"/>
      <point x="393" y="628"/>
      <point x="433" y="594"/>
      <point x="433" y="526" type="curve" smooth="yes"/>
      <point x="433" y="513" type="line" smooth="yes"/>
      <point x="433" y="457"/>
      <point x="391" y="404"/>
      <point x="290" y="373" type="curve"/>
      <point x="305" y="355"/>
      <point x="331" y="343"/>
    </contour>
    <contour>
      <point x="300" y="72" type="curve"/>
      <point x="206" y="72"/>
      <point x="151" y="109"/>
      <point x="151" y="170" type="curve" smooth="yes"/>
      <point x="151" y="181" type="line" smooth="yes"/>
      <point x="151" y="240"/>
      <point x="201" y="297"/>
      <point x="307" y="316" type="curve"/>
      <point x="291" y="337"/>
      <point x="273" y="350"/>
      <point x="237" y="350" type="curve" smooth="yes"/>
      <point x="151" y="350"/>
      <point x="58" y="275"/>
      <point x="58" y="187" type="curve" smooth="yes"/>
      <point x="58" y="154" type="line" smooth="yes"/>
      <point x="58" y="50"/>
      <point x="156" y="-20"/>
      <point x="300" y="-20" type="curve" smooth="yes"/>
      <point x="317" y="-20"/>
      <point x="328" y="5"/>
    </contour>
  </outline>
</glyph>
<glyph name="nine" format="1">
  <advance width="600"/>
  <unicode hex="0039"/>
  <outline>
    <contour>
      <point x="393" y="629" type="curve"/>
      <point x="393" y="685"/>
      <point x="365" y="720"/>
      <point x="293" y="720" type="curve"/>
      <point x="157" y="720"/>
      <point x="61" y="634"/>
      <point x="61" y="512" type="curve" smooth="yes"/>
      <point x="61" y="441" type="line" smooth="yes"/>
      <point x="61" y="405"/>
      <point x="104" y="377"/>
      <point x="158" y="377" type="curve"/>
      <point x="158" y="402"/>
      <point x="158" y="421"/>
      <point x="158" y="450" type="curve" smooth="yes"/>
      <point x="158" y="503" type="line" smooth="yes"/>
      <point x="158" y="581"/>
      <point x="211" y="629"/>
      <point x="299" y="629" type="curve" smooth="yes"/>
      <point x="345" y="629"/>
      <point x="368" y="629"/>
    </contour>
    <contour>
      <point x="363" y="77" type="curve"/>
      <point x="332" y="77"/>
      <point x="310" y="77"/>
      <point x="266" y="77" type="curve" smooth="yes"/>
      <point x="199" y="77"/>
      <point x="160" y="87"/>
      <point x="103" y="121" type="curve"/>
      <point x="88" y="121" type="line"/>
      <point x="88" y="98"/>
      <point x="88" y="68"/>
      <point x="88" y="31" type="curve" smooth="yes"/>
      <point x="88" y="27"/>
      <point x="88" y="25"/>
      <point x="90" y="23" type="curve" smooth="yes"/>
      <point x="113" y="0"/>
      <point x="192" y="-20"/>
      <point x="265" y="-20" type="curve" smooth="yes"/>
      <point x="332" y="-20"/>
      <point x="363" y="13"/>
    </contour>
    <contour>
      <point x="539" y="280" type="curve" smooth="yes"/>
      <point x="539" y="437" type="line" smooth="yes"/>
      <point x="539" y="626"/>
      <point x="458" y="720"/>
      <point x="293" y="720" type="curve" smooth="yes"/>
      <point x="278" y="720"/>
      <point x="278" y="687"/>
      <point x="299" y="629" type="curve"/>
      <point x="397" y="629"/>
      <point x="439" y="576"/>
      <point x="439" y="439" type="curve" smooth="yes"/>
      <point x="439" y="278" type="line" smooth="yes"/>
      <point x="439" y="141"/>
      <point x="384" y="77"/>
      <point x="266" y="77" type="curve"/>
      <point x="247" y="27"/>
      <point x="247" y="-20"/>
      <point x="265" y="-20" type="curve" smooth="yes"/>
      <point x="442" y="-20"/>
      <point x="539" y="86"/>
    </contour>
    <contour>
      <point x="267" y="256" type="curve" smooth="yes"/>
      <point x="338" y="256"/>
      <point x="403" y="282"/>
      <point x="439" y="318" type="curve" smooth="yes"/>
      <point x="449" y="328"/>
      <point x="453" y="349"/>
      <point x="453" y="406" type="curve"/>
      <point x="403" y="363"/>
      <point x="350" y="346"/>
      <point x="286" y="346" type="curve" smooth="yes"/>
      <point x="199" y="346"/>
      <point x="158" y="380"/>
      <point x="158" y="450" type="curve" smooth="yes"/>
      <point x="158" y="464"/>
      <point x="158" y="482"/>
      <point x="158" y="491" type="curve"/>
      <point x="97" y="488"/>
      <point x="61" y="469"/>
      <point x="61" y="441" type="curve" smooth="yes"/>
      <point x="61" y="325"/>
      <point x="141" y="256"/>
    </contour>
  </outline>
</glyph>
<glyph name="colon" format="1">
  <advance width="300"/>
  <unicode hex="003A"/>
  <outline>
    <contour>
      <point x="231" y="381" type="curve"/>
      <point x="231" y="529" type="line" smooth="yes"/>
      <point x="231" y="535"/>
      <point x="226" y="540"/>
      <point x="220" y="540" type="curve" smooth="yes"/>
      <point x="174" y="540"/>
      <point x="116" y="540"/>
      <point x="70" y="540" type="curve"/>
      <point x="70" y="392" type="line" smooth="yes"/>
      <point x="70" y="386"/>
      <point x="75" y="381"/>
      <point x="81" y="381" type="curve" smooth="yes"/>
      <point x="127" y="381"/>
      <point x="185" y="381"/>
    </contour>
    <contour>
      <point x="230" y="-7" type="curve"/>
      <point x="230" y="140" type="line" smooth="yes"/>
      <point x="230" y="146"/>
      <point x="225" y="151"/>
      <point x="219" y="151" type="curve" smooth="yes"/>
      <point x="173" y="151"/>
      <point x="115" y="151"/>
      <point x="69" y="151" type="curve"/>
      <point x="69" y="4" type="line" smooth="yes"/>
      <point x="69" y="-2"/>
      <point x="74" y="-7"/>
      <point x="80" y="-7" type="curve" smooth="yes"/>
      <point x="126" y="-7"/>
      <point x="184" y="-7"/>
    </contour>
  </outline>
</glyph>
<glyph name="semicolon" format="1">
  <advance width="350"/>
  <unicode hex="003B"/>
  <outline>
    <contour>
      <point x="255" y="381" type="curve"/>
      <point x="255" y="529" type="line" smooth="yes"/>
      <point x="255" y="535"/>
      <point x="250" y="540"/>
      <point x="244" y="540" type="curve" smooth="yes"/>
      <point x="198" y="540"/>
      <point x="141" y="540"/>
      <point x="95" y="540" type="curve"/>
      <point x="95" y="392" type="line" smooth="yes"/>
      <point x="95" y="386"/>
      <point x="100" y="381"/>
      <point x="106" y="381" type="curve" smooth="yes"/>
      <point x="152" y="381"/>
      <point x="209" y="381"/>
    </contour>
    <contour>
      <point x="132" y="-214" type="curve" smooth="yes"/>
      <point x="137" y="-214"/>
      <point x="140" y="-213"/>
      <point x="142" y="-207" type="curve"/>
      <point x="183" y="-106"/>
      <point x="227" y="4"/>
      <point x="264" y="94" type="curve"/>
      <point x="267" y="102"/>
      <point x="264" y="107"/>
      <point x="256" y="107" type="curve" smooth="yes"/>
      <point x="204" y="107"/>
      <point x="173" y="107"/>
      <point x="112" y="107" type="curve"/>
      <point x="88" y="0"/>
      <point x="64" y="-107"/>
      <point x="40" y="-214" type="curve"/>
      <point x="64" y="-214"/>
      <point x="91" y="-214"/>
    </contour>
  </outline>
</glyph>
<glyph name="less" format="1">
  <advance width="600"/>
  <unicode hex="003C"/>
  <outline>
    <contour>
      <point x="520" y="481" type="curve"/>
      <point x="520" y="571" type="line"/>
      <point x="520" y="576"/>
      <point x="518" y="579"/>
      <point x="513" y="579" type="curve" smooth="yes"/>
      <point x="509" y="579"/>
      <point x="505" y="578"/>
      <point x="491" y="572" type="curve" smooth="yes"/>
      <point x="448" y="551"/>
      <point x="219" y="439"/>
      <point x="80" y="371" type="curve"/>
      <point x="80" y="251" type="line"/>
      <point x="91" y="268"/>
      <point x="104" y="280"/>
      <point x="142" y="297" type="curve"/>
      <point x="268" y="358"/>
      <point x="394" y="420"/>
    </contour>
    <contour>
      <point x="520" y="15" type="curve"/>
      <point x="520" y="46"/>
      <point x="520" y="75"/>
      <point x="520" y="106" type="curve" smooth="yes"/>
      <point x="520" y="115"/>
      <point x="519" y="118"/>
      <point x="510" y="123" type="curve" smooth="yes"/>
      <point x="403" y="175"/>
      <point x="294" y="229"/>
      <point x="185" y="282" type="curve" smooth="yes"/>
      <point x="177" y="286"/>
      <point x="176" y="289"/>
      <point x="176" y="297" type="curve" smooth="yes"/>
      <point x="176" y="314"/>
      <point x="176" y="336"/>
      <point x="176" y="363" type="curve"/>
      <point x="106" y="361"/>
      <point x="80" y="302"/>
      <point x="80" y="259" type="curve" smooth="yes"/>
      <point x="80" y="239" type="line" smooth="yes"/>
      <point x="80" y="231"/>
      <point x="83" y="225"/>
      <point x="92" y="221" type="curve" smooth="yes"/>
      <point x="234" y="152"/>
      <point x="377" y="84"/>
    </contour>
  </outline>
</glyph>
<glyph name="greater" format="1">
  <advance width="574"/>
  <unicode hex="003E"/>
  <outline>
    <contour>
      <point x="80" y="120" type="curve"/>
      <point x="80" y="30" type="line"/>
      <point x="80" y="25"/>
      <point x="82" y="22"/>
      <point x="87" y="22" type="curve" smooth="yes"/>
      <point x="91" y="22"/>
      <point x="95" y="23"/>
      <point x="109" y="29" type="curve" smooth="yes"/>
      <point x="152" y="50"/>
      <point x="381" y="162"/>
      <point x="520" y="230" type="curve"/>
      <point x="520" y="350" type="line"/>
      <point x="509" y="333"/>
      <point x="496" y="321"/>
      <point x="458" y="304" type="curve"/>
      <point x="332" y="243"/>
      <point x="206" y="181"/>
    </contour>
    <contour>
      <point x="80" y="586" type="curve"/>
      <point x="80" y="555"/>
      <point x="80" y="526"/>
      <point x="80" y="495" type="curve" smooth="yes"/>
      <point x="80" y="486"/>
      <point x="81" y="483"/>
      <point x="90" y="478" type="curve" smooth="yes"/>
      <point x="197" y="426"/>
      <point x="306" y="372"/>
      <point x="415" y="319" type="curve" smooth="yes"/>
      <point x="423" y="315"/>
      <point x="424" y="312"/>
      <point x="424" y="305" type="curve" smooth="yes"/>
      <point x="424" y="287"/>
      <point x="424" y="265"/>
      <point x="424" y="238" type="curve"/>
      <point x="494" y="240"/>
      <point x="520" y="300"/>
      <point x="520" y="342" type="curve" smooth="yes"/>
      <point x="520" y="362" type="line" smooth="yes"/>
      <point x="520" y="371"/>
      <point x="517" y="376"/>
      <point x="508" y="380" type="curve" smooth="yes"/>
      <point x="366" y="449"/>
      <point x="223" y="518"/>
    </contour>
  </outline>
</glyph>
<glyph name="A" format="1">
  <advance width="600"/>
  <unicode hex="0041"/>
  <outline>
    <contour>
      <point x="130" y="0" type="curve"/>
      <point x="206" y="327"/>
      <point x="250" y="483"/>
      <point x="298" y="657" type="curve"/>
      <point x="303" y="681"/>
      <point x="325" y="694"/>
      <point x="378" y="705" type="curve"/>
      <point x="211" y="705" type="line"/>
      <point x="163" y="535"/>
      <point x="103" y="299"/>
      <point x="33" y="14" type="curve"/>
      <point x="31" y="5"/>
      <point x="36" y="0"/>
      <point x="41" y="0" type="curve" smooth="yes"/>
      <point x="71" y="0"/>
      <point x="99" y="0"/>
    </contour>
    <contour>
      <point x="572" y="0" type="curve"/>
      <point x="506" y="254"/>
      <point x="445" y="490"/>
      <point x="390" y="694" type="curve"/>
      <point x="389" y="698"/>
      <point x="388" y="700"/>
      <point x="386" y="702" type="curve" smooth="yes"/>
      <point x="383" y="705"/>
      <point x="382" y="705"/>
      <point x="378" y="705" type="curve"/>
      <point x="286" y="705"/>
      <point x="263" y="692"/>
      <point x="263" y="610" type="curve"/>
      <point x="273" y="610"/>
      <point x="298" y="610"/>
      <point x="305" y="610" type="curve" smooth="yes"/>
      <point x="308" y="610"/>
      <point x="311" y="609"/>
      <point x="312" y="605" type="curve"/>
      <point x="358" y="438"/>
      <point x="405" y="266"/>
      <point x="467" y="15" type="curve"/>
      <point x="469" y="6"/>
      <point x="470" y="5"/>
      <point x="472" y="3" type="curve" smooth="yes"/>
      <point x="474" y="1"/>
      <point x="476" y="0"/>
      <point x="480" y="0" type="curve" smooth="yes"/>
      <point x="510" y="0"/>
      <point x="541" y="0"/>
    </contour>
    <contour>
      <point x="143" y="284" type="line"/>
      <point x="143" y="202" type="line" smooth="yes"/>
      <point x="143" y="199"/>
      <point x="144" y="196"/>
      <point x="146" y="194" type="curve" smooth="yes"/>
      <point x="148" y="192"/>
      <point x="151" y="191"/>
      <point x="154" y="191" type="curve"/>
      <point x="469" y="191" type="line"/>
      <point x="469" y="281"/>
      <point x="464" y="284"/>
      <point x="458" y="284" type="curve" smooth="yes"/>
    </contour>
    <contour>
      <point x="300" y="711" type="move" name="top"/>
    </contour>
    <contour>
      <point x="573" y="0" type="move" name="ogonek"/>
    </contour>
    <contour>
      <point x="300" y="700" type="move" name="ring"/>
    </contour>
    <contour>
      <point x="300" y="-1" type="move" name="bottom"/>
    </contour>
  </outline>
</glyph>
<glyph name="D" format="1">
  <advance width="650"/>
  <unicode hex="0044"/>
  <outline>
    <contour>
      <point x="191" y="26" type="curve"/>
      <point x="191" y="654" type="line" smooth="yes"/>
      <point x="191" y="660"/>
      <point x="186" y="665"/>
      <point x="88" y="665" type="curve"/>
      <point x="88" y="35" type="line" smooth="yes"/>
      <point x="88" y="29"/>
      <point x="93" y="26"/>
    </contour>
    <contour>
      <point x="30" y="700" type="curve"/>
      <point x="30" y="672"/>
      <point x="30" y="646"/>
      <point x="30" y="618" type="curve"/>
      <point x="30" y="615"/>
      <point x="31" y="612"/>
      <point x="33" y="610" type="curve" smooth="yes"/>
      <point x="35" y="608"/>
      <point x="38" y="607"/>
      <point x="41" y="607" type="curve" smooth="yes"/>
      <point x="54" y="607"/>
      <point x="83" y="607"/>
      <point x="99" y="607" type="curve" smooth="yes"/>
      <point x="149" y="607"/>
      <point x="254" y="607"/>
      <point x="305" y="607" type="curve"/>
      <point x="360" y="607"/>
      <point x="385" y="607"/>
      <point x="423" y="607" type="curve"/>
      <point x="423" y="662"/>
      <point x="395" y="700"/>
      <point x="304" y="700" type="curve" smooth="yes"/>
      <point x="236" y="700"/>
      <point x="108" y="700"/>
    </contour>
    <contour>
      <point x="585" y="259" type="curve" smooth="yes"/>
      <point x="585" y="440" type="line" smooth="yes"/>
      <point x="585" y="621"/>
      <point x="483" y="700"/>
      <point x="304" y="700" type="curve" smooth="yes"/>
      <point x="293" y="700"/>
      <point x="284" y="688"/>
      <point x="305" y="607" type="curve"/>
      <point x="430" y="607"/>
      <point x="486" y="559"/>
      <point x="486" y="441" type="curve" smooth="yes"/>
      <point x="486" y="263" type="line" smooth="yes"/>
      <point x="486" y="151"/>
      <point x="425" y="93"/>
      <point x="306" y="93" type="curve" smooth="yes"/>
      <point x="254" y="93"/>
      <point x="137" y="93"/>
      <point x="95" y="93" type="curve"/>
      <point x="90" y="66"/>
      <point x="88" y="49"/>
      <point x="88" y="11" type="curve" smooth="yes"/>
      <point x="88" y="5"/>
      <point x="93" y="0"/>
      <point x="99" y="0" type="curve" smooth="yes"/>
      <point x="309" y="0" type="line" smooth="yes"/>
      <point x="484" y="0"/>
      <point x="585" y="97"/>
    </contour>
    <contour>
      <point x="307" y="711" type="move" name="top"/>
    </contour>
  </outline>
</glyph>
<glyph name="F" format="1">
  <advance width="550"/>
  <unicode hex="0046"/>
  <outline>
    <contour>
      <point x="206" y="0" type="curve"/>
      <point x="206" y="32"/>
      <point x="206" y="65"/>
      <point x="206" y="98" type="curve" smooth="yes"/>
      <point x="206" y="655" type="line"/>
      <point x="206" y="663"/>
      <point x="196" y="669"/>
      <point x="103" y="669" type="curve"/>
      <point x="103" y="11" type="line" smooth="yes"/>
      <point x="103" y="5"/>
      <point x="108" y="0"/>
      <point x="114" y="0" type="curve" smooth="yes"/>
      <point x="145" y="0"/>
      <point x="175" y="0"/>
    </contour>
    <contour>
      <point x="45" y="700" type="line"/>
      <point x="45" y="672"/>
      <point x="45" y="646"/>
      <point x="45" y="618" type="curve" smooth="yes"/>
      <point x="45" y="615"/>
      <point x="46" y="612"/>
      <point x="48" y="610" type="curve" smooth="yes"/>
      <point x="50" y="608"/>
      <point x="53" y="607"/>
      <point x="56" y="607" type="curve"/>
      <point x="490" y="607" type="line"/>
      <point x="490" y="635"/>
      <point x="490" y="661"/>
      <point x="490" y="689" type="curve" smooth="yes"/>
      <point x="490" y="692"/>
      <point x="489" y="695"/>
      <point x="487" y="697" type="curve" smooth="yes"/>
      <point x="485" y="699"/>
      <point x="482" y="700"/>
      <point x="479" y="700" type="curve"/>
    </contour>
    <contour>
      <point x="147" y="375" type="line"/>
      <point x="147" y="295"/>
      <point x="151" y="282"/>
      <point x="158" y="282" type="curve"/>
      <point x="450" y="282" type="line"/>
      <point x="450" y="309"/>
      <point x="450" y="336"/>
      <point x="450" y="364" type="curve"/>
      <point x="450" y="367"/>
      <point x="449" y="370"/>
      <point x="447" y="372" type="curve" smooth="yes"/>
      <point x="445" y="374"/>
      <point x="442" y="375"/>
      <point x="439" y="375" type="curve"/>
    </contour>
  </outline>
</glyph>
<glyph name="G" format="1">
  <advance width="650"/>
  <unicode hex="0047"/>
  <outline>
    <contour>
      <point x="344" y="628" type="curve" smooth="yes"/>
      <point x="431" y="628"/>
      <point x="476" y="616"/>
      <point x="526" y="572" type="curve"/>
      <point x="571" y="623"/>
      <point x="573" y="632"/>
      <point x="573" y="638" type="curve" smooth="yes"/>
      <point x="573" y="649"/>
      <point x="572" y="652"/>
      <point x="567" y="657" type="curve" smooth="yes"/>
      <point x="533" y="691"/>
      <point x="460" y="720"/>
      <point x="350" y="720" type="curve" smooth="yes"/>
      <point x="165" y="720"/>
      <point x="63" y="622"/>
      <point x="63" y="435" type="curve" smooth="yes"/>
      <point x="63" y="242" type="line" smooth="yes"/>
      <point x="63" y="176"/>
      <point x="103" y="118"/>
      <point x="163" y="118" type="curve"/>
      <point x="163" y="159"/>
      <point x="163" y="193"/>
      <point x="163" y="246" type="curve" smooth="yes"/>
      <point x="163" y="439" type="line" smooth="yes"/>
      <point x="163" y="565"/>
      <point x="224" y="628"/>
    </contour>
    <contour>
      <point x="331" y="72" type="curve" smooth="yes"/>
      <point x="227" y="72"/>
      <point x="163" y="130"/>
      <point x="163" y="246" type="curve"/>
      <point x="74" y="258"/>
      <point x="63" y="253"/>
      <point x="63" y="242" type="curve" smooth="yes"/>
      <point x="63" y="82"/>
      <point x="164" y="-20"/>
      <point x="331" y="-20" type="curve" smooth="yes"/>
      <point x="500" y="-20"/>
      <point x="574" y="63"/>
      <point x="574" y="82" type="curve" smooth="yes"/>
      <point x="574" y="294" type="line" smooth="yes"/>
      <point x="574" y="308"/>
      <point x="516" y="312"/>
      <point x="481" y="312" type="curve"/>
      <point x="481" y="250"/>
      <point x="481" y="185"/>
      <point x="481" y="122" type="curve" smooth="yes"/>
      <point x="481" y="112"/>
      <point x="432" y="72"/>
    </contour>
    <contour>
      <point x="338" y="364" type="line"/>
      <point x="338" y="338"/>
      <point x="338" y="314"/>
      <point x="338" y="288" type="curve" smooth="yes"/>
      <point x="338" y="285"/>
      <point x="339" y="282"/>
      <point x="341" y="280" type="curve" smooth="yes"/>
      <point x="343" y="278"/>
      <point x="346" y="277"/>
      <point x="349" y="277" type="curve"/>
      <point x="616" y="277" type="line"/>
      <point x="616" y="353" type="line" smooth="yes"/>
      <point x="616" y="359"/>
      <point x="611" y="364"/>
      <point x="605" y="364" type="curve" smooth="yes"/>
    </contour>
    <contour>
      <point x="573" y="497" type="curve"/>
      <point x="573" y="638" type="line" smooth="yes"/>
      <point x="573" y="649"/>
      <point x="562" y="658"/>
      <point x="479" y="658" type="curve"/>
      <point x="479" y="644"/>
      <point x="479" y="631"/>
      <point x="479" y="620" type="curve" smooth="yes"/>
      <point x="479" y="508" type="line" smooth="yes"/>
      <point x="479" y="501"/>
      <point x="483" y="497"/>
      <point x="490" y="497" type="curve" smooth="yes"/>
      <point x="518" y="497"/>
      <point x="546" y="497"/>
    </contour>
    <contour>
      <point x="339" y="711" type="move" name="top"/>
    </contour>
    <contour>
      <point x="339" y="-1" type="move" name="bottom"/>
    </contour>
  </outline>
</glyph>
<glyph name="I" format="1">
  <advance width="500"/>
  <unicode hex="0049"/>
  <outline>
    <contour>
      <point x="302" y="35" type="curve"/>
      <point x="302" y="656" type="line" smooth="yes"/>
      <point x="302" y="662"/>
      <point x="297" y="665"/>
      <point x="198" y="665" type="curve"/>
      <point x="198" y="46" type="line" smooth="yes"/>
      <point x="198" y="40"/>
      <point x="203" y="35"/>
    </contour>
    <contour>
      <point x="75" y="700" type="line"/>
      <point x="75" y="672"/>
      <point x="75" y="646"/>
      <point x="75" y="618" type="curve"/>
      <point x="75" y="615"/>
      <point x="76" y="612"/>
      <point x="78" y="610" type="curve" smooth="yes"/>
      <point x="80" y="608"/>
      <point x="83" y="607"/>
      <point x="86" y="607" type="curve" smooth="yes"/>
      <point x="425" y="607" type="line"/>
      <point x="425" y="635"/>
      <point x="425" y="661"/>
      <point x="425" y="689" type="curve" smooth="yes"/>
      <point x="425" y="695"/>
      <point x="420" y="700"/>
      <point x="414" y="700" type="curve" smooth="yes"/>
    </contour>
    <contour>
      <point x="75" y="93" type="line"/>
      <point x="75" y="65"/>
      <point x="75" y="39"/>
      <point x="75" y="11" type="curve"/>
      <point x="75" y="8"/>
      <point x="76" y="5"/>
      <point x="78" y="3" type="curve" smooth="yes"/>
      <point x="80" y="1"/>
      <point x="83" y="0"/>
      <point x="86" y="0" type="curve" smooth="yes"/>
      <point x="425" y="0" type="line"/>
      <point x="425" y="28"/>
      <point x="425" y="55"/>
      <point x="425" y="82" type="curve" smooth="yes"/>
      <point x="425" y="88"/>
      <point x="420" y="93"/>
      <point x="414" y="93" type="curve" smooth="yes"/>
    </contour>
    <contour>
      <point x="250" y="711" type="move" name="top"/>
    </contour>
    <contour>
      <point x="426" y="0" type="move" name="ogonek"/>
    </contour>
    <contour>
      <point x="250" y="-1" type="move" name="bottom"/>
    </contour>
  </outline>
</glyph>
<glyph name="J" format="1">
  <advance width="500"/>
  <unicode hex="004A"/>
  <outline>
    <contour>
      <point x="90" y="700" type="line"/>
      <point x="90" y="672"/>
      <point x="90" y="646"/>
      <point x="90" y="618" type="curve" smooth="yes"/>
      <point x="90" y="615"/>
      <point x="91" y="612"/>
      <point x="93" y="610" type="curve" smooth="yes"/>
      <point x="95" y="608"/>
      <point x="98" y="607"/>
      <point x="101" y="607" type="curve" smooth="yes"/>
      <point x="392" y="607" type="line"/>
      <point x="392" y="652"/>
      <point x="379" y="700"/>
      <point x="350" y="700" type="curve"/>
    </contour>
    <contour>
      <point x="430" y="233" type="curve" smooth="yes"/>
      <point x="430" y="689" type="line" smooth="yes"/>
      <point x="430" y="696"/>
      <point x="426" y="700"/>
      <point x="419" y="700" type="curve" smooth="yes"/>
      <point x="332" y="700" type="line"/>
      <point x="332" y="233" type="line" smooth="yes"/>
      <point x="332" y="172"/>
      <point x="332" y="148"/>
      <point x="332" y="105" type="curve"/>
      <point x="380" y="105"/>
      <point x="430" y="146"/>
    </contour>
    <contour>
      <point x="197" y="77" type="curve" smooth="yes"/>
      <point x="150" y="77"/>
      <point x="111" y="90"/>
      <point x="66" y="115" type="curve"/>
      <point x="50" y="115" type="line"/>
      <point x="50" y="87"/>
      <point x="50" y="60"/>
      <point x="50" y="32" type="curve"/>
      <point x="50" y="28"/>
      <point x="51" y="26"/>
      <point x="53" y="24" type="curve" smooth="yes"/>
      <point x="72" y="4"/>
      <point x="134" y="-16"/>
      <point x="191" y="-16" type="curve" smooth="yes"/>
      <point x="205" y="-16" type="line" smooth="yes"/>
      <point x="348" y="-16"/>
      <point x="430" y="78"/>
      <point x="430" y="233" type="curve"/>
      <point x="430" y="242"/>
      <point x="422" y="249"/>
      <point x="332" y="233" type="curve"/>
      <point x="332" y="127"/>
      <point x="291" y="77"/>
    </contour>
    <contour>
      <point x="255" y="711" type="move" name="top"/>
    </contour>
  </outline>
</glyph>
<glyph name="L" format="1">
  <advance width="550"/>
  <unicode hex="004C"/>
  <outline>
    <contour>
      <point x="184" y="62" type="curve"/>
      <point x="184" y="689" type="line" smooth="yes"/>
      <point x="184" y="692"/>
      <point x="183" y="695"/>
      <point x="181" y="697" type="curve" smooth="yes"/>
      <point x="179" y="699"/>
      <point x="176" y="700"/>
      <point x="173" y="700" type="curve" smooth="yes"/>
      <point x="142" y="700"/>
      <point x="111" y="700"/>
      <point x="80" y="700" type="curve"/>
      <point x="80" y="667"/>
      <point x="80" y="634"/>
      <point x="80" y="601" type="curve" smooth="yes"/>
      <point x="80" y="73" type="line" smooth="yes"/>
      <point x="80" y="67"/>
      <point x="85" y="62"/>
    </contour>
    <contour>
      <point x="80" y="93" type="line"/>
      <point x="80" y="11" type="line" smooth="yes"/>
      <point x="80" y="4"/>
      <point x="85" y="0"/>
      <point x="91" y="0" type="curve" smooth="yes"/>
      <point x="495" y="0" type="line"/>
      <point x="495" y="28"/>
      <point x="495" y="54"/>
      <point x="495" y="82" type="curve" smooth="yes"/>
      <point x="495" y="88"/>
      <point x="490" y="93"/>
      <point x="484" y="93" type="curve" smooth="yes"/>
    </contour>
    <contour>
      <point x="397" y="550" type="move" name="caronslovak"/>
    </contour>
    <contour>
      <point x="133" y="711" type="move" name="top"/>
    </contour>
    <contour>
      <point x="438" y="400" type="move" name="dot"/>
    </contour>
    <contour>
      <point x="288" y="-1" type="move" name="bottom"/>
    </contour>
  </outline>
</glyph>
<glyph name="M" format="1">
  <advance width="800"/>
  <unicode hex="004D"/>
  <outline>
    <contour>
      <point x="177" y="0" type="curve"/>
      <point x="177" y="67"/>
      <point x="177" y="134"/>
      <point x="177" y="201" type="curve" smooth="yes"/>
      <point x="174" y="365"/>
      <point x="171" y="528"/>
      <point x="168" y="689" type="curve" smooth="yes"/>
      <point x="168" y="692"/>
      <point x="167" y="695"/>
      <point x="165" y="697" type="curve" smooth="yes"/>
      <point x="163" y="699"/>
      <point x="160" y="700"/>
      <point x="157" y="700" type="curve" smooth="yes"/>
      <point x="132" y="700"/>
      <point x="106" y="700"/>
      <point x="81" y="700" type="curve"/>
      <point x="81" y="663"/>
      <point x="81" y="625"/>
      <point x="81" y="588" type="curve" smooth="yes"/>
      <point x="81" y="396"/>
      <point x="81" y="203"/>
      <point x="81" y="11" type="curve" smooth="yes"/>
      <point x="81" y="8"/>
      <point x="82" y="5"/>
      <point x="84" y="3" type="curve" smooth="yes"/>
      <point x="86" y="1"/>
      <point x="89" y="0"/>
      <point x="92" y="0" type="curve" smooth="yes"/>
      <point x="120" y="0"/>
      <point x="148" y="0"/>
    </contour>
    <contour>
      <point x="720" y="0" type="curve"/>
      <point x="720" y="37"/>
      <point x="720" y="75"/>
      <point x="720" y="112" type="curve" smooth="yes"/>
      <point x="720" y="304"/>
      <point x="720" y="497"/>
      <point x="720" y="689" type="curve"/>
      <point x="720" y="692"/>
      <point x="719" y="695"/>
      <point x="717" y="697" type="curve" smooth="yes"/>
      <point x="715" y="699"/>
      <point x="712" y="700"/>
      <point x="709" y="700" type="curve" smooth="yes"/>
      <point x="631" y="700" type="line"/>
      <point x="631" y="691"/>
      <point x="631" y="681"/>
      <point x="630" y="671" type="curve"/>
      <point x="628" y="514"/>
      <point x="624" y="358"/>
      <point x="621" y="202" type="curve" smooth="yes"/>
      <point x="621" y="140"/>
      <point x="621" y="77"/>
      <point x="621" y="15" type="curve" smooth="yes"/>
      <point x="621" y="8"/>
      <point x="623" y="5"/>
      <point x="625" y="3" type="curve" smooth="yes"/>
      <point x="627" y="1"/>
      <point x="629" y="0"/>
      <point x="633" y="0" type="curve" smooth="yes"/>
      <point x="662" y="0"/>
      <point x="691" y="0"/>
    </contour>
    <contour>
      <point x="224" y="687" type="curve" smooth="yes"/>
      <point x="220" y="696"/>
      <point x="216" y="700"/>
      <point x="208" y="700" type="curve"/>
      <point x="121" y="700" type="line"/>
      <point x="129" y="680"/>
      <point x="141" y="662"/>
      <point x="149" y="642" type="curve" smooth="yes"/>
      <point x="217" y="474"/>
      <point x="287" y="305"/>
      <point x="355" y="137" type="curve"/>
      <point x="357" y="133"/>
      <point x="362" y="130"/>
      <point x="366" y="130" type="curve" smooth="yes"/>
      <point x="375" y="130"/>
      <point x="383" y="133"/>
      <point x="425" y="200" type="curve"/>
      <point x="358" y="363"/>
      <point x="291" y="525"/>
    </contour>
    <contour>
      <point x="581" y="700" type="curve"/>
      <point x="513" y="534"/>
      <point x="444" y="367"/>
      <point x="376" y="200" type="curve"/>
      <point x="360" y="141"/>
      <point x="363" y="133"/>
      <point x="366" y="130" type="curve"/>
      <point x="439" y="130" type="line"/>
      <point x="513" y="311"/>
      <point x="588" y="492"/>
      <point x="662" y="674" type="curve" smooth="yes"/>
      <point x="671" y="695"/>
      <point x="666" y="700"/>
      <point x="660" y="700" type="curve" smooth="yes"/>
      <point x="646" y="700"/>
      <point x="592" y="700"/>
    </contour>
  </outline>
</glyph>
<glyph name="O" format="1">
  <advance width="650"/>
  <unicode hex="004F"/>
  <outline>
    <contour>
      <point x="325" y="720" type="curve" smooth="yes"/>
      <point x="171" y="720"/>
      <point x="65" y="605"/>
      <point x="65" y="445" type="curve" smooth="yes"/>
      <point x="65" y="251" type="line" smooth="yes"/>
      <point x="65" y="81"/>
      <point x="170" y="-20"/>
      <point x="325" y="-20" type="curve" smooth="yes"/>
      <point x="329" y="-20"/>
      <point x="341" y="-6"/>
      <point x="325" y="73" type="curve"/>
      <point x="218" y="73"/>
      <point x="164" y="146"/>
      <point x="164" y="251" type="curve" smooth="yes"/>
      <point x="164" y="445" type="line" smooth="yes"/>
      <point x="164" y="549"/>
      <point x="220" y="627"/>
      <point x="325" y="627" type="curve" smooth="yes"/>
      <point x="375" y="627"/>
      <point x="410" y="627"/>
      <point x="437" y="627" type="curve"/>
      <point x="437" y="671"/>
      <point x="409" y="720"/>
    </contour>
    <contour>
      <point x="325" y="-20" type="curve" smooth="yes"/>
      <point x="479" y="-20"/>
      <point x="585" y="95"/>
      <point x="585" y="255" type="curve" smooth="yes"/>
      <point x="585" y="449" type="line" smooth="yes"/>
      <point x="585" y="619"/>
      <point x="480" y="720"/>
      <point x="325" y="720" type="curve" smooth="yes"/>
      <point x="321" y="720"/>
      <point x="309" y="706"/>
      <point x="325" y="627" type="curve"/>
      <point x="432" y="627"/>
      <point x="486" y="554"/>
      <point x="486" y="449" type="curve" smooth="yes"/>
      <point x="486" y="255" type="line" smooth="yes"/>
      <point x="486" y="151"/>
      <point x="430" y="73"/>
      <point x="325" y="73" type="curve" smooth="yes"/>
      <point x="275" y="73"/>
      <point x="240" y="73"/>
      <point x="213" y="73" type="curve"/>
      <point x="213" y="29"/>
      <point x="241" y="-20"/>
    </contour>
    <contour>
      <point x="325" y="711" type="move" name="top"/>
    </contour>
    <contour>
      <point x="429" y="8" type="move" name="ogonek"/>
    </contour>
    <contour>
      <point x="325" y="-1" type="move" name="bottom"/>
    </contour>
  </outline>
</glyph>
<glyph name="P" format="1">
  <advance width="600"/>
  <unicode hex="0050"/>
  <outline>
    <contour>
      <point x="189" y="0" type="curve"/>
      <point x="189" y="32"/>
      <point x="189" y="66"/>
      <point x="189" y="100" type="curve" smooth="yes"/>
      <point x="189" y="654" type="line" smooth="yes"/>
      <point x="189" y="660"/>
      <point x="184" y="665"/>
      <point x="88" y="665" type="curve"/>
      <point x="88" y="11" type="line" smooth="yes"/>
      <point x="88" y="8"/>
      <point x="89" y="5"/>
      <point x="91" y="3" type="curve" smooth="yes"/>
      <point x="93" y="1"/>
      <point x="96" y="0"/>
      <point x="99" y="0" type="curve" smooth="yes"/>
      <point x="129" y="0"/>
      <point x="159" y="0"/>
    </contour>
    <contour>
      <point x="35" y="700" type="curve"/>
      <point x="35" y="671"/>
      <point x="35" y="647"/>
      <point x="35" y="618" type="curve"/>
      <point x="35" y="615"/>
      <point x="36" y="612"/>
      <point x="38" y="610" type="curve" smooth="yes"/>
      <point x="40" y="608"/>
      <point x="43" y="607"/>
      <point x="46" y="607" type="curve" smooth="yes"/>
      <point x="64" y="607"/>
      <point x="86" y="607"/>
      <point x="110" y="607" type="curve" smooth="yes"/>
      <point x="167" y="607"/>
      <point x="257" y="607"/>
      <point x="310" y="607" type="curve" smooth="yes"/>
      <point x="362" y="607"/>
      <point x="378" y="607"/>
      <point x="405" y="607" type="curve"/>
      <point x="405" y="661"/>
      <point x="375" y="700"/>
      <point x="308" y="700" type="curve" smooth="yes"/>
      <point x="235" y="700"/>
      <point x="121" y="700"/>
    </contour>
    <contour>
      <point x="540" y="434" type="curve" smooth="yes"/>
      <point x="540" y="502" type="line" smooth="yes"/>
      <point x="540" y="644"/>
      <point x="451" y="700"/>
      <point x="308" y="700" type="curve"/>
      <point x="305" y="700"/>
      <point x="289" y="685"/>
      <point x="310" y="607" type="curve"/>
      <point x="399" y="607"/>
      <point x="436" y="578"/>
      <point x="436" y="504" type="curve" smooth="yes"/>
      <point x="436" y="436" type="line" smooth="yes"/>
      <point x="436" y="370"/>
      <point x="395" y="331"/>
      <point x="320" y="331" type="curve" smooth="yes"/>
      <point x="276" y="331"/>
      <point x="209" y="331"/>
      <point x="158" y="331" type="curve"/>
      <point x="158" y="300"/>
      <point x="158" y="283"/>
      <point x="158" y="248" type="curve" smooth="yes"/>
      <point x="158" y="242"/>
      <point x="163" y="237"/>
      <point x="169" y="237" type="curve" smooth="yes"/>
      <point x="326" y="237" type="line" smooth="yes"/>
      <point x="459" y="237"/>
      <point x="540" y="311"/>
    </contour>
  </outline>
</glyph>
<glyph name="Q" format="1">
  <advance width="650"/>
  <unicode hex="0051"/>
  <outline>
    <contour>
      <point x="325" y="720" type="curve" smooth="yes"/>
      <point x="171" y="720"/>
      <point x="65" y="605"/>
      <point x="65" y="445" type="curve" smooth="yes"/>
      <point x="65" y="251" type="line" smooth="yes"/>
      <point x="65" y="81"/>
      <point x="170" y="-20"/>
      <point x="325" y="-20" type="curve" smooth="yes"/>
      <point x="329" y="-20"/>
      <point x="341" y="-6"/>
      <point x="325" y="73" type="curve"/>
      <point x="218" y="73"/>
      <point x="164" y="146"/>
      <point x="164" y="251" type="curve" smooth="yes"/>
      <point x="164" y="445" type="line" smooth="yes"/>
      <point x="164" y="549"/>
      <point x="220" y="627"/>
      <point x="325" y="627" type="curve" smooth="yes"/>
      <point x="375" y="627"/>
      <point x="410" y="627"/>
      <point x="437" y="627" type="curve"/>
      <point x="437" y="671"/>
      <point x="409" y="720"/>
    </contour>
    <contour>
      <point x="325" y="-20" type="curve" smooth="yes"/>
      <point x="479" y="-20"/>
      <point x="585" y="95"/>
      <point x="585" y="255" type="curve" smooth="yes"/>
      <point x="585" y="449" type="line" smooth="yes"/>
      <point x="585" y="619"/>
      <point x="480" y="720"/>
      <point x="325" y="720" type="curve" smooth="yes"/>
      <point x="321" y="720"/>
      <point x="309" y="706"/>
      <point x="325" y="627" type="curve"/>
      <point x="432" y="627"/>
      <point x="486" y="554"/>
      <point x="486" y="449" type="curve" smooth="yes"/>
      <point x="486" y="255" type="line" smooth="yes"/>
      <point x="486" y="151"/>
      <point x="430" y="73"/>
      <point x="325" y="73" type="curve" smooth="yes"/>
      <point x="275" y="73"/>
      <point x="240" y="73"/>
      <point x="213" y="73" type="curve"/>
      <point x="213" y="29"/>
      <point x="241" y="-20"/>
    </contour>
    <contour>
      <point x="466" y="82" type="line"/>
      <point x="386" y="47"/>
      <point x="376" y="40"/>
      <point x="386" y="25" type="curve" smooth="yes"/>
      <point x="463" y="-90" type="line" smooth="yes"/>
      <point x="494" y="-136"/>
      <point x="519" y="-155"/>
      <point x="576" y="-155" type="curve" smooth="yes"/>
      <point x="604" y="-155" type="line" smooth="yes"/>
      <point x="611" y="-155"/>
      <point x="615" y="-151"/>
      <point x="615" y="-144" type="curve" smooth="yes"/>
      <point x="615" y="-113"/>
      <point x="615" y="-82"/>
      <point x="615" y="-52" type="curve"/>
      <point x="607" y="-52" type="line"/>
      <point x="602" y="-52"/>
      <point x="597" y="-52"/>
      <point x="590" y="-52" type="curve" smooth="yes"/>
      <point x="563" y="-52"/>
      <point x="552" y="-47"/>
      <point x="536" y="-23" type="curve" smooth="yes"/>
    </contour>
  </outline>
</glyph>
<glyph name="T" format="1">
  <advance width="600"/>
  <unicode hex="0054"/>
  <outline>
    <contour>
      <point x="55" y="700" type="line"/>
      <point x="55" y="672"/>
      <point x="55" y="646"/>
      <point x="55" y="618" type="curve" smooth="yes"/>
      <point x="55" y="615"/>
      <point x="56" y="612"/>
      <point x="58" y="610" type="curve" smooth="yes"/>
      <point x="60" y="608"/>
      <point x="63" y="607"/>
      <point x="66" y="607" type="curve" smooth="yes"/>
      <point x="545" y="607" type="line"/>
      <point x="545" y="635"/>
      <point x="545" y="661"/>
      <point x="545" y="689" type="curve" smooth="yes"/>
      <point x="545" y="695"/>
      <point x="540" y="700"/>
      <point x="534" y="700" type="curve" smooth="yes"/>
    </contour>
    <contour>
      <point x="352" y="0" type="curve"/>
      <point x="352" y="32"/>
      <point x="352" y="66"/>
      <point x="352" y="100" type="curve" smooth="yes"/>
      <point x="352" y="654" type="line" smooth="yes"/>
      <point x="352" y="660"/>
      <point x="347" y="665"/>
      <point x="248" y="665" type="curve"/>
      <point x="248" y="11" type="line" smooth="yes"/>
      <point x="248" y="8"/>
      <point x="249" y="5"/>
      <point x="251" y="3" type="curve" smooth="yes"/>
      <point x="253" y="1"/>
      <point x="256" y="0"/>
      <point x="259" y="0" type="curve" smooth="yes"/>
      <point x="290" y="0"/>
      <point x="321" y="0"/>
    </contour>
    <contour>
      <point x="300" y="711" type="move" name="top"/>
    </contour>
    <contour>
      <point x="300" y="-1" type="move" name="bottom"/>
    </contour>
  </outline>
</glyph>
<glyph name="U" format="1">
  <advance width="650"/>
  <unicode hex="0055"/>
  <outline>
    <contour>
      <point x="78" y="700" type="curve"/>
      <point x="78" y="667"/>
      <point x="78" y="633"/>
      <point x="78" y="600" type="curve" smooth="yes"/>
      <point x="78" y="173" type="line"/>
      <point x="78" y="133"/>
      <point x="110" y="103"/>
      <point x="181" y="100" type="curve"/>
      <point x="181" y="137"/>
      <point x="181" y="148"/>
      <point x="181" y="187" type="curve"/>
      <point x="181" y="689" type="line"/>
      <point x="181" y="695"/>
      <point x="176" y="700"/>
      <point x="170" y="700" type="curve"/>
      <point x="139" y="700"/>
      <point x="109" y="700"/>
    </contour>
    <contour>
      <point x="254" y="-15" type="curve" smooth="yes"/>
      <point x="344" y="-15"/>
      <point x="409" y="28"/>
      <point x="476" y="109" type="curve" smooth="yes"/>
      <point x="503" y="142"/>
      <point x="505" y="186"/>
      <point x="488" y="216" type="curve"/>
      <point x="410" y="119"/>
      <point x="350" y="83"/>
      <point x="276" y="83" type="curve" smooth="yes"/>
      <point x="210" y="83"/>
      <point x="181" y="116"/>
      <point x="181" y="187" type="curve"/>
      <point x="111" y="186"/>
      <point x="78" y="179"/>
      <point x="78" y="173" type="curve" smooth="yes"/>
      <point x="78" y="60"/>
      <point x="135" y="-15"/>
    </contour>
    <contour>
      <point x="570" y="0" type="curve"/>
      <point x="570" y="33"/>
      <point x="570" y="68"/>
      <point x="570" y="105" type="curve" smooth="yes"/>
      <point x="570" y="689" type="line" smooth="yes"/>
      <point x="570" y="695"/>
      <point x="565" y="700"/>
      <point x="559" y="700" type="curve" smooth="yes"/>
      <point x="528" y="700"/>
      <point x="497" y="700"/>
      <point x="466" y="700" type="curve"/>
      <point x="466" y="11" type="line" smooth="yes"/>
      <point x="466" y="8"/>
      <point x="467" y="5"/>
      <point x="469" y="3" type="curve" smooth="yes"/>
      <point x="471" y="1"/>
      <point x="474" y="0"/>
      <point x="477" y="0" type="curve" smooth="yes"/>
      <point x="508" y="0"/>
      <point x="539" y="0"/>
    </contour>
    <contour>
      <point x="323" y="711" type="move" name="top"/>
    </contour>
    <contour>
      <point x="571" y="0" type="move" name="ogonek"/>
    </contour>
    <contour>
      <point x="323" y="711" type="move" name="ring"/>
    </contour>
    <contour>
      <point x="323" y="-1" type="move" name="bottom"/>
    </contour>
  </outline>
</glyph>
<glyph name="V" format="1">
  <advance width="650"/>
  <unicode hex="0056"/>
  <outline>
    <contour>
      <point x="127" y="700" type="curve"/>
      <point x="34" y="700" type="line"/>
      <point x="102" y="469"/>
      <point x="168" y="238"/>
      <point x="236" y="8" type="curve"/>
      <point x="238" y="-1"/>
      <point x="245" y="-5"/>
      <point x="253" y="-5" type="curve"/>
      <point x="293" y="-5"/>
      <point x="355" y="10"/>
      <point x="366" y="84" type="curve"/>
      <point x="347" y="84"/>
      <point x="336" y="84"/>
      <point x="322" y="84" type="curve" smooth="yes"/>
      <point x="315" y="84"/>
      <point x="314" y="85"/>
      <point x="310" y="96" type="curve"/>
      <point x="253" y="293"/>
      <point x="197" y="491"/>
      <point x="139" y="689" type="curve"/>
      <point x="137" y="697"/>
      <point x="133" y="700"/>
    </contour>
    <contour>
      <point x="603" y="700" type="curve"/>
      <point x="513" y="700" type="line"/>
      <point x="453" y="488"/>
      <point x="391" y="274"/>
      <point x="331" y="62" type="curve"/>
      <point x="320" y="17"/>
      <point x="285" y="3"/>
      <point x="253" y="-5" type="curve"/>
      <point x="410" y="-5" type="line"/>
      <point x="478" y="225"/>
      <point x="544" y="455"/>
      <point x="612" y="685" type="curve"/>
      <point x="614" y="694"/>
      <point x="611" y="700"/>
    </contour>
  </outline>
</glyph>
<glyph name="W" format="1">
  <advance width="900"/>
  <unicode hex="0057"/>
  <outline>
    <contour>
      <point x="35" y="700" type="curve"/>
      <point x="86" y="471"/>
      <point x="135" y="241"/>
      <point x="184" y="13" type="curve"/>
      <point x="186" y="4"/>
      <point x="194" y="0"/>
      <point x="201" y="0" type="curve"/>
      <point x="221" y="0" type="line" smooth="yes"/>
      <point x="242" y="0"/>
      <point x="274" y="15"/>
      <point x="279" y="30" type="curve"/>
      <point x="233" y="248"/>
      <point x="188" y="468"/>
      <point x="143" y="686" type="curve"/>
      <point x="142" y="694"/>
      <point x="141" y="696"/>
      <point x="140" y="698" type="curve" smooth="yes"/>
      <point x="138" y="699"/>
      <point x="136" y="700"/>
      <point x="132" y="700" type="curve"/>
      <point x="100" y="700"/>
      <point x="68" y="700"/>
    </contour>
    <contour>
      <point x="759" y="700" type="curve"/>
      <point x="714" y="488"/>
      <point x="670" y="274"/>
      <point x="626" y="62" type="curve"/>
      <point x="621" y="24"/>
      <point x="614" y="8"/>
      <point x="600" y="0" type="curve"/>
      <point x="713" y="0" type="line"/>
      <point x="763" y="229"/>
      <point x="812" y="459"/>
      <point x="862" y="688" type="curve" smooth="yes"/>
      <point x="863" y="693"/>
      <point x="863" y="696"/>
      <point x="861" y="698" type="curve" smooth="yes"/>
      <point x="859" y="699"/>
      <point x="858" y="700"/>
      <point x="854" y="700" type="curve"/>
      <point x="822" y="700"/>
      <point x="791" y="700"/>
    </contour>
    <contour>
      <point x="472" y="612" type="curve"/>
      <point x="399" y="612" type="line"/>
      <point x="349" y="429"/>
      <point x="300" y="245"/>
      <point x="251" y="62" type="curve"/>
      <point x="241" y="21"/>
      <point x="222" y="11"/>
      <point x="201" y="0" type="curve"/>
      <point x="324" y="0" type="line"/>
      <point x="377" y="197"/>
      <point x="430" y="395"/>
      <point x="483" y="592" type="curve" smooth="yes"/>
      <point x="487" y="605"/>
      <point x="482" y="612"/>
    </contour>
    <contour>
      <point x="493" y="612" type="curve"/>
      <point x="413" y="612" type="line"/>
      <point x="466" y="412"/>
      <point x="519" y="212"/>
      <point x="572" y="13" type="curve" smooth="yes"/>
      <point x="574" y="4"/>
      <point x="582" y="0"/>
      <point x="589" y="0" type="curve"/>
      <point x="631" y="0" type="line"/>
      <point x="642" y="0"/>
      <point x="662" y="10"/>
      <point x="658" y="25" type="curve"/>
      <point x="607" y="217"/>
      <point x="556" y="409"/>
      <point x="505" y="601" type="curve" smooth="yes"/>
      <point x="502" y="609"/>
      <point x="498" y="612"/>
    </contour>
    <contour>
      <point x="448" y="711" type="move" name="top"/>
    </contour>
  </outline>
</glyph>
<glyph name="X" format="1">
  <advance width="650"/>
  <unicode hex="0058"/>
  <outline>
    <contour>
      <point x="524" y="0" type="curve" smooth="yes"/>
      <point x="558" y="0"/>
      <point x="597" y="0"/>
      <point x="630" y="0" type="curve"/>
      <point x="545" y="124"/>
      <point x="460" y="250"/>
      <point x="374" y="374" type="curve" smooth="yes"/>
      <point x="364" y="389"/>
      <point x="351" y="396"/>
      <point x="342" y="411" type="curve" smooth="yes"/>
      <point x="279" y="503"/>
      <point x="214" y="598"/>
      <point x="151" y="691" type="curve" smooth="yes"/>
      <point x="147" y="698"/>
      <point x="142" y="700"/>
      <point x="133" y="700" type="curve" smooth="yes"/>
      <point x="29" y="700" type="line"/>
      <point x="110" y="579"/>
      <point x="191" y="457"/>
      <point x="272" y="336" type="curve" smooth="yes"/>
      <point x="281" y="321"/>
      <point x="296" y="312"/>
      <point x="306" y="297" type="curve" smooth="yes"/>
      <point x="371" y="202"/>
      <point x="440" y="103"/>
      <point x="506" y="9" type="curve" smooth="yes"/>
      <point x="511" y="1"/>
      <point x="516" y="0"/>
    </contour>
    <contour>
      <point x="603" y="700" type="curve" smooth="yes"/>
      <point x="509" y="700" type="line"/>
      <point x="438" y="591"/>
      <point x="367" y="483"/>
      <point x="296" y="374" type="curve"/>
      <point x="284" y="357"/>
      <point x="300" y="342"/>
      <point x="367" y="318" type="curve"/>
      <point x="448" y="439"/>
      <point x="529" y="560"/>
      <point x="612" y="684" type="curve"/>
      <point x="616" y="690"/>
      <point x="615" y="694"/>
      <point x="612" y="697" type="curve" smooth="yes"/>
      <point x="610" y="699"/>
      <point x="607" y="700"/>
    </contour>
    <contour>
      <point x="39" y="0" type="curve"/>
      <point x="134" y="0" type="line"/>
      <point x="206" y="109"/>
      <point x="279" y="217"/>
      <point x="349" y="326" type="curve"/>
      <point x="360" y="343"/>
      <point x="344" y="358"/>
      <point x="279" y="382" type="curve"/>
      <point x="196" y="261"/>
      <point x="113" y="138"/>
      <point x="31" y="17" type="curve" smooth="yes"/>
      <point x="27" y="11"/>
      <point x="27" y="6"/>
      <point x="30" y="3" type="curve" smooth="yes"/>
      <point x="32" y="1"/>
      <point x="35" y="0"/>
    </contour>
  </outline>
</glyph>
<glyph name="Y" format="1">
  <advance width="600"/>
  <unicode hex="0059"/>
  <outline>
    <contour>
      <point x="28" y="700" type="line"/>
      <point x="103" y="554"/>
      <point x="179" y="407"/>
      <point x="253" y="261" type="curve"/>
      <point x="257" y="254"/>
      <point x="264" y="252"/>
      <point x="271" y="252" type="curve"/>
      <point x="308" y="252"/>
      <point x="327" y="300"/>
      <point x="319" y="329" type="curve"/>
      <point x="261" y="448"/>
      <point x="203" y="568"/>
      <point x="145" y="687" type="curve"/>
      <point x="142" y="695"/>
      <point x="138" y="700"/>
      <point x="128" y="700" type="curve" smooth="yes"/>
    </contour>
    <contour>
      <point x="462" y="700" type="line"/>
      <point x="403" y="575"/>
      <point x="345" y="452"/>
      <point x="286" y="327" type="curve"/>
      <point x="269" y="287"/>
      <point x="274" y="264"/>
      <point x="271" y="252" type="curve"/>
      <point x="342" y="252" type="line"/>
      <point x="416" y="396"/>
      <point x="491" y="540"/>
      <point x="566" y="684" type="curve"/>
      <point x="569" y="693"/>
      <point x="564" y="700"/>
      <point x="556" y="700" type="curve"/>
    </contour>
    <contour>
      <point x="352" y="0" type="curve"/>
      <point x="352" y="32"/>
      <point x="352" y="66"/>
      <point x="352" y="100" type="curve" smooth="yes"/>
      <point x="352" y="299" type="line" smooth="yes"/>
      <point x="352" y="305"/>
      <point x="347" y="310"/>
      <point x="248" y="310" type="curve"/>
      <point x="248" y="11" type="line" smooth="yes"/>
      <point x="248" y="8"/>
      <point x="249" y="5"/>
      <point x="251" y="3" type="curve" smooth="yes"/>
      <point x="253" y="1"/>
      <point x="256" y="0"/>
      <point x="259" y="0" type="curve" smooth="yes"/>
      <point x="290" y="0"/>
      <point x="321" y="0"/>
    </contour>
    <contour>
      <point x="300" y="711" type="move" name="top"/>
    </contour>
  </outline>
</glyph>
<glyph name="bracketleft" format="1">
  <advance width="400"/>
  <unicode hex="005B"/>
  <outline>
    <contour>
      <point x="54" y="648" type="curve" smooth="yes"/>
      <point x="54" y="-52" type="line" smooth="yes"/>
      <point x="54" y="-62"/>
      <point x="77" y="-63"/>
      <point x="157" y="-63" type="curve"/>
      <point x="157" y="744" type="line" smooth="yes"/>
      <point x="157" y="750"/>
      <point x="149" y="755"/>
      <point x="122" y="755" type="curve" smooth="yes"/>
      <point x="95" y="755"/>
      <point x="81" y="755"/>
      <point x="54" y="755" type="curve"/>
      <point x="54" y="719"/>
      <point x="54" y="684"/>
    </contour>
    <contour>
      <point x="369" y="661" type="line"/>
      <point x="369" y="690"/>
      <point x="369" y="715"/>
      <point x="369" y="744" type="curve" smooth="yes"/>
      <point x="369" y="747"/>
      <point x="368" y="750"/>
      <point x="366" y="752" type="curve" smooth="yes"/>
      <point x="364" y="754"/>
      <point x="361" y="755"/>
      <point x="358" y="755" type="curve" smooth="yes"/>
      <point x="122" y="755" type="line"/>
      <point x="122" y="666"/>
      <point x="128" y="661"/>
      <point x="133" y="661" type="curve"/>
    </contour>
    <contour>
      <point x="369" y="-146" type="line"/>
      <point x="369" y="-116"/>
      <point x="369" y="-92"/>
      <point x="369" y="-62" type="curve" smooth="yes"/>
      <point x="369" y="-56"/>
      <point x="364" y="-51"/>
      <point x="358" y="-51" type="curve" smooth="yes"/>
      <point x="54" y="-51" type="line"/>
      <point x="54" y="-135" type="line" smooth="yes"/>
      <point x="54" y="-141"/>
      <point x="59" y="-146"/>
      <point x="65" y="-146" type="curve" smooth="yes"/>
    </contour>
  </outline>
</glyph>
<glyph name="bracketright" format="1">
  <advance width="400"/>
  <unicode hex="005D"/>
  <outline>
    <contour>
      <point x="346" y="-38" type="curve" smooth="yes"/>
      <point x="346" y="662" type="line" smooth="yes"/>
      <point x="346" y="672"/>
      <point x="323" y="673"/>
      <point x="243" y="673" type="curve"/>
      <point x="243" y="-134" type="line" smooth="yes"/>
      <point x="243" y="-140"/>
      <point x="251" y="-145"/>
      <point x="278" y="-145" type="curve" smooth="yes"/>
      <point x="305" y="-145"/>
      <point x="319" y="-145"/>
      <point x="346" y="-145" type="curve"/>
      <point x="346" y="-109"/>
      <point x="346" y="-74"/>
    </contour>
    <contour>
      <point x="31" y="-51" type="line"/>
      <point x="31" y="-80"/>
      <point x="31" y="-105"/>
      <point x="31" y="-134" type="curve" smooth="yes"/>
      <point x="31" y="-137"/>
      <point x="32" y="-140"/>
      <point x="34" y="-142" type="curve" smooth="yes"/>
      <point x="36" y="-144"/>
      <point x="39" y="-145"/>
      <point x="42" y="-145" type="curve" smooth="yes"/>
      <point x="278" y="-145" type="line"/>
      <point x="278" y="-56"/>
      <point x="272" y="-51"/>
      <point x="267" y="-51" type="curve"/>
    </contour>
    <contour>
      <point x="31" y="756" type="line"/>
      <point x="31" y="726"/>
      <point x="31" y="702"/>
      <point x="31" y="672" type="curve" smooth="yes"/>
      <point x="31" y="666"/>
      <point x="36" y="661"/>
      <point x="42" y="661" type="curve" smooth="yes"/>
      <point x="346" y="661" type="line"/>
      <point x="346" y="745" type="line" smooth="yes"/>
      <point x="346" y="751"/>
      <point x="341" y="756"/>
      <point x="335" y="756" type="curve" smooth="yes"/>
    </contour>
  </outline>
</glyph>
<glyph name="asciicircum" format="1">
  <advance width="600"/>
  <unicode hex="005E"/>
  <outline>
    <contour>
      <point x="142" y="366" type="line"/>
      <point x="204" y="492"/>
      <point x="238" y="562"/>
      <point x="299" y="688" type="curve"/>
      <point x="316" y="726"/>
      <point x="323" y="736"/>
      <point x="341" y="750" type="curve"/>
      <point x="225" y="750" type="line"/>
      <point x="157" y="611"/>
      <point x="73" y="438"/>
      <point x="52" y="395" type="curve" smooth="yes"/>
      <point x="45" y="381"/>
      <point x="44" y="377"/>
      <point x="44" y="373" type="curve" smooth="yes"/>
      <point x="44" y="368"/>
      <point x="48" y="366"/>
      <point x="53" y="366" type="curve"/>
    </contour>
    <contour>
      <point x="553" y="366" type="curve"/>
      <point x="484" y="509"/>
      <point x="444" y="595"/>
      <point x="375" y="737" type="curve" smooth="yes"/>
      <point x="371" y="747"/>
      <point x="365" y="750"/>
      <point x="356" y="750" type="curve" smooth="yes"/>
      <point x="332" y="750" type="line" smooth="yes"/>
      <point x="289" y="750"/>
      <point x="235" y="721"/>
      <point x="233" y="653" type="curve"/>
      <point x="260" y="653"/>
      <point x="281" y="653"/>
      <point x="299" y="653" type="curve" smooth="yes"/>
      <point x="307" y="653"/>
      <point x="310" y="652"/>
      <point x="314" y="645" type="curve" smooth="yes"/>
      <point x="367" y="535"/>
      <point x="392" y="483"/>
      <point x="445" y="376" type="curve" smooth="yes"/>
      <point x="449" y="367"/>
      <point x="452" y="366"/>
      <point x="461" y="366" type="curve" smooth="yes"/>
      <point x="493" y="366"/>
      <point x="521" y="366"/>
    </contour>
  </outline>
</glyph>
<glyph name="underscore" format="1">
  <advance width="600"/>
  <unicode hex="005F"/>
  <outline>
    <contour>
      <point x="63" y="-76" type="line"/>
      <point x="63" y="-105"/>
      <point x="63" y="-130"/>
      <point x="63" y="-159" type="curve" smooth="yes"/>
      <point x="63" y="-162"/>
      <point x="64" y="-165"/>
      <point x="66" y="-167" type="curve" smooth="yes"/>
      <point x="68" y="-169"/>
      <point x="71" y="-170"/>
      <point x="74" y="-170" type="curve"/>
      <point x="537" y="-170" type="line"/>
      <point x="537" y="-141"/>
      <point x="537" y="-116"/>
      <point x="537" y="-87" type="curve" smooth="yes"/>
      <point x="537" y="-81"/>
      <point x="532" y="-76"/>
      <point x="526" y="-76" type="curve"/>
    </contour>
  </outline>
</glyph>
<glyph name="grave" format="1">
  <advance width="471"/>
  <unicode hex="0060"/>
  <outline>
    <contour>
      <point x="341" y="395" type="curve"/>
      <point x="317" y="502"/>
      <point x="293" y="609"/>
      <point x="269" y="716" type="curve"/>
      <point x="207" y="716"/>
      <point x="177" y="716"/>
      <point x="124" y="716" type="curve" smooth="yes"/>
      <point x="116" y="716"/>
      <point x="113" y="711"/>
      <point x="116" y="703" type="curve" smooth="yes"/>
      <point x="153" y="613"/>
      <point x="198" y="503"/>
      <point x="238" y="402" type="curve" smooth="yes"/>
      <point x="241" y="396"/>
      <point x="244" y="395"/>
      <point x="249" y="395" type="curve" smooth="yes"/>
      <point x="289" y="395"/>
      <point x="316" y="395"/>
    </contour>
  </outline>
</glyph>
<glyph name="b" format="1">
  <advance width="600"/>
  <unicode hex="0062"/>
  <outline>
    <contour>
      <point x="91" y="0" type="line"/>
      <point x="108" y="0"/>
      <point x="126" y="0"/>
      <point x="143" y="0" type="curve" smooth="yes"/>
      <point x="156" y="0"/>
      <point x="191" y="71"/>
      <point x="191" y="99" type="curve" smooth="yes"/>
      <point x="191" y="739" type="line"/>
      <point x="191" y="745"/>
      <point x="186" y="750"/>
      <point x="180" y="750" type="curve" smooth="yes"/>
      <point x="151" y="750"/>
      <point x="121" y="750"/>
      <point x="91" y="750" type="curve"/>
      <point x="91" y="710"/>
      <point x="91" y="668"/>
      <point x="91" y="627" type="curve" smooth="yes"/>
    </contour>
    <contour>
      <point x="367" y="544" type="curve" smooth="yes"/>
      <point x="303" y="544"/>
      <point x="243" y="519"/>
      <point x="188" y="465" type="curve" smooth="yes"/>
      <point x="154" y="430"/>
      <point x="146" y="394"/>
      <point x="157" y="360" type="curve"/>
      <point x="228" y="424"/>
      <point x="278" y="447"/>
      <point x="340" y="447" type="curve" smooth="yes"/>
      <point x="399" y="447"/>
      <point x="434" y="409"/>
      <point x="434" y="336" type="curve"/>
      <point x="484" y="335"/>
      <point x="535" y="343"/>
      <point x="535" y="352" type="curve" smooth="yes"/>
      <point x="535" y="468"/>
      <point x="468" y="544"/>
    </contour>
    <contour>
      <point x="343" y="-10" type="curve" smooth="yes"/>
      <point x="464" y="-10"/>
      <point x="535" y="70"/>
      <point x="535" y="216" type="curve" smooth="yes"/>
      <point x="535" y="352" type="line" smooth="yes"/>
      <point x="535" y="409"/>
      <point x="489" y="469"/>
      <point x="440" y="469" type="curve"/>
      <point x="419" y="469"/>
      <point x="407" y="462"/>
      <point x="406" y="448" type="curve"/>
      <point x="425" y="416"/>
      <point x="434" y="391"/>
      <point x="434" y="336" type="curve" smooth="yes"/>
      <point x="434" y="212" type="line" smooth="yes"/>
      <point x="434" y="125"/>
      <point x="398" y="84"/>
      <point x="332" y="84" type="curve" smooth="yes"/>
      <point x="272" y="84"/>
      <point x="221" y="111"/>
      <point x="169" y="171" type="curve"/>
      <point x="165" y="166"/>
      <point x="153" y="130"/>
      <point x="158" y="115" type="curve" smooth="yes"/>
      <point x="179" y="45"/>
      <point x="253" y="-10"/>
    </contour>
  </outline>
</glyph>
<glyph name="c" format="1">
  <advance width="500"/>
  <unicode hex="0063"/>
  <outline>
    <contour>
      <point x="306" y="544" type="curve" smooth="yes"/>
      <point x="167" y="544"/>
      <point x="65" y="457"/>
      <point x="65" y="306" type="curve" smooth="yes"/>
      <point x="65" y="219" type="line" smooth="yes"/>
      <point x="65" y="71"/>
      <point x="153" y="-11"/>
      <point x="305" y="-11" type="curve" smooth="yes"/>
      <point x="326" y="-11"/>
      <point x="330" y="4"/>
      <point x="305" y="82" type="curve"/>
      <point x="215" y="82"/>
      <point x="166" y="130"/>
      <point x="166" y="223" type="curve" smooth="yes"/>
      <point x="166" y="302" type="line" smooth="yes"/>
      <point x="166" y="402"/>
      <point x="217" y="451"/>
      <point x="305" y="451" type="curve" smooth="yes"/>
      <point x="360" y="451"/>
      <point x="399" y="436"/>
      <point x="431" y="420" type="curve"/>
      <point x="446" y="420" type="line"/>
      <point x="446" y="447"/>
      <point x="446" y="472"/>
      <point x="446" y="499" type="curve"/>
      <point x="446" y="504"/>
      <point x="446" y="506"/>
      <point x="442" y="510" type="curve" smooth="yes"/>
      <point x="430" y="522"/>
      <point x="382" y="544"/>
    </contour>
    <contour>
      <point x="305" y="-11" type="curve" smooth="yes"/>
      <point x="385" y="-11"/>
      <point x="429" y="8"/>
      <point x="443" y="22" type="curve" smooth="yes"/>
      <point x="445" y="24"/>
      <point x="446" y="27"/>
      <point x="446" y="30" type="curve"/>
      <point x="446" y="56"/>
      <point x="446" y="83"/>
      <point x="446" y="110" type="curve"/>
      <point x="431" y="110" type="line"/>
      <point x="399" y="93"/>
      <point x="361" y="82"/>
      <point x="305" y="82" type="curve" smooth="yes"/>
      <point x="224" y="82"/>
      <point x="179" y="107"/>
      <point x="129" y="157" type="curve"/>
      <point x="103" y="80"/>
      <point x="169" y="-11"/>
    </contour>
    <contour>
      <point x="283" y="544" type="move" name="top"/>
    </contour>
    <contour>
      <point x="283" y="-1" type="move" name="bottom"/>
    </contour>
  </outline>
</glyph>
<glyph name="e" format="1">
  <advance width="600"/>
  <unicode hex="0065"/>
  <outline>
    <contour>
      <point x="306" y="454" type="curve" smooth="yes"/>
      <point x="379" y="454"/>
      <point x="414" y="432"/>
      <point x="443" y="370" type="curve"/>
      <point x="460" y="382"/>
      <point x="474" y="402"/>
      <point x="474" y="427" type="curve"/>
      <point x="474" y="493"/>
      <point x="388" y="544"/>
      <point x="308" y="544" type="curve"/>
      <point x="175" y="544"/>
      <point x="75" y="468"/>
      <point x="75" y="314" type="curve" smooth="yes"/>
      <point x="75" y="216" type="line" smooth="yes"/>
      <point x="75" y="66"/>
      <point x="176" y="-11"/>
      <point x="321" y="-11" type="curve" smooth="yes"/>
      <point x="342" y="-11"/>
      <point x="351" y="6"/>
      <point x="330" y="84" type="curve"/>
      <point x="229" y="84"/>
      <point x="174" y="124"/>
      <point x="174" y="216" type="curve" smooth="yes"/>
      <point x="174" y="316" type="line" smooth="yes"/>
      <point x="174" y="414"/>
      <point x="218" y="454"/>
    </contour>
    <contour>
      <point x="507" y="30" type="curve" smooth="yes"/>
      <point x="510" y="32"/>
      <point x="511" y="35"/>
      <point x="511" y="38" type="curve" smooth="yes"/>
      <point x="511" y="64"/>
      <point x="511" y="94"/>
      <point x="511" y="118" type="curve"/>
      <point x="496" y="118" type="line"/>
      <point x="446" y="95"/>
      <point x="405" y="84"/>
      <point x="330" y="84" type="curve" smooth="yes"/>
      <point x="245" y="84"/>
      <point x="209" y="98"/>
      <point x="164" y="141" type="curve"/>
      <point x="152" y="81"/>
      <point x="208" y="-11"/>
      <point x="321" y="-11" type="curve" smooth="yes"/>
      <point x="414" y="-11"/>
      <point x="485" y="12"/>
    </contour>
    <contour>
      <point x="509" y="232" type="line" smooth="yes"/>
      <point x="516" y="232"/>
      <point x="520" y="236"/>
      <point x="520" y="243" type="curve" smooth="yes"/>
      <point x="520" y="318" type="line" smooth="yes"/>
      <point x="520" y="475"/>
      <point x="438" y="544"/>
      <point x="308" y="544" type="curve" smooth="yes"/>
      <point x="295" y="544"/>
      <point x="291" y="532"/>
      <point x="306" y="454" type="curve"/>
      <point x="390" y="454"/>
      <point x="421" y="412"/>
      <point x="421" y="324" type="curve" smooth="yes"/>
      <point x="421" y="306" type="line" smooth="yes"/>
      <point x="421" y="305"/>
      <point x="421" y="305"/>
      <point x="420" y="305" type="curve" smooth="yes"/>
      <point x="277" y="305"/>
      <point x="220" y="305"/>
      <point x="108" y="305" type="curve"/>
      <point x="108" y="271"/>
      <point x="111" y="256"/>
      <point x="122" y="245" type="curve" smooth="yes"/>
      <point x="131" y="236"/>
      <point x="142" y="232"/>
      <point x="156" y="232" type="curve" smooth="yes"/>
    </contour>
    <contour>
      <point x="304" y="544" type="move" name="top"/>
    </contour>
    <contour>
      <point x="512" y="38" type="move" name="ogonek"/>
    </contour>
    <contour>
      <point x="305" y="-1" type="move" name="bottom"/>
    </contour>
  </outline>
</glyph>
<glyph name="f" format="1">
  <advance width="400"/>
  <unicode hex="0066"/>
  <outline>
    <contour>
      <point x="202" y="0" type="curve"/>
      <point x="202" y="33"/>
      <point x="202" y="66"/>
      <point x="202" y="100" type="curve" smooth="yes"/>
      <point x="202" y="535" type="line" smooth="yes"/>
      <point x="202" y="547"/>
      <point x="202" y="559"/>
      <point x="202" y="573" type="curve" smooth="yes"/>
      <point x="202" y="642"/>
      <point x="227" y="677"/>
      <point x="288" y="677" type="curve"/>
      <point x="298" y="756"/>
      <point x="296" y="765"/>
      <point x="281" y="765" type="curve" smooth="yes"/>
      <point x="175" y="765"/>
      <point x="104" y="700"/>
      <point x="104" y="577" type="curve" smooth="yes"/>
      <point x="104" y="11" type="line" smooth="yes"/>
      <point x="104" y="5"/>
      <point x="109" y="0"/>
      <point x="115" y="0" type="curve" smooth="yes"/>
      <point x="144" y="0"/>
      <point x="174" y="0"/>
    </contour>
    <contour>
      <point x="189" y="658" type="curve"/>
      <point x="224" y="671"/>
      <point x="244" y="677"/>
      <point x="288" y="677" type="curve" smooth="yes"/>
      <point x="321" y="677"/>
      <point x="348" y="669"/>
      <point x="374" y="657" type="curve"/>
      <point x="390" y="657" type="line"/>
      <point x="390" y="684"/>
      <point x="390" y="707"/>
      <point x="390" y="733" type="curve"/>
      <point x="390" y="736"/>
      <point x="389" y="739"/>
      <point x="387" y="741" type="curve" smooth="yes"/>
      <point x="377" y="751"/>
      <point x="333" y="765"/>
      <point x="281" y="765" type="curve" smooth="yes"/>
      <point x="222" y="765"/>
      <point x="178" y="707"/>
    </contour>
    <contour>
      <point x="35" y="533" type="curve"/>
      <point x="35" y="504"/>
      <point x="35" y="480"/>
      <point x="35" y="452" type="curve" smooth="yes"/>
      <point x="35" y="449"/>
      <point x="36" y="446"/>
      <point x="38" y="444" type="curve" smooth="yes"/>
      <point x="40" y="442"/>
      <point x="43" y="441"/>
      <point x="46" y="441" type="curve" smooth="yes"/>
      <point x="132" y="441"/>
      <point x="257" y="441"/>
      <point x="350" y="441" type="curve"/>
      <point x="350" y="469"/>
      <point x="350" y="493"/>
      <point x="350" y="522" type="curve" smooth="yes"/>
      <point x="350" y="528"/>
      <point x="345" y="533"/>
      <point x="339" y="533" type="curve" smooth="yes"/>
      <point x="259" y="533"/>
      <point x="114" y="533"/>
    </contour>
  </outline>
</glyph>
<glyph name="g" format="1">
  <advance width="600"/>
  <unicode hex="0067"/>
  <outline>
    <contour>
      <point x="297" y="456" type="curve" smooth="yes"/>
      <point x="385" y="456"/>
      <point x="490" y="456"/>
      <point x="561" y="456" type="curve" smooth="yes"/>
      <point x="567" y="456"/>
      <point x="572" y="461"/>
      <point x="572" y="467" type="curve" smooth="yes"/>
      <point x="572" y="491"/>
      <point x="572" y="516"/>
      <point x="572" y="540" type="curve"/>
      <point x="479" y="540"/>
      <point x="385" y="540"/>
      <point x="292" y="540" type="curve" smooth="yes"/>
      <point x="167" y="540"/>
      <point x="73" y="476"/>
      <point x="73" y="370" type="curve" smooth="yes"/>
      <point x="73" y="339" type="line" smooth="yes"/>
      <point x="73" y="239"/>
      <point x="154" y="175"/>
      <point x="290" y="173" type="curve"/>
      <point x="301" y="173"/>
      <point x="311" y="197"/>
      <point x="285" y="253" type="curve"/>
      <point x="219" y="253"/>
      <point x="171" y="282"/>
      <point x="171" y="335" type="curve" smooth="yes"/>
      <point x="171" y="367" type="line" smooth="yes"/>
      <point x="171" y="426"/>
      <point x="222" y="456"/>
    </contour>
    <contour>
      <point x="285" y="253" type="curve" smooth="yes"/>
      <point x="227" y="253"/>
      <point x="184" y="267"/>
      <point x="146" y="293" type="curve"/>
      <point x="123" y="247"/>
      <point x="193" y="173"/>
      <point x="290" y="173" type="curve" smooth="yes"/>
      <point x="412" y="173"/>
      <point x="505" y="232"/>
      <point x="505" y="327" type="curve" smooth="yes"/>
      <point x="505" y="352" type="line" smooth="yes"/>
      <point x="505" y="410"/>
      <point x="455" y="469"/>
      <point x="379" y="469" type="curve" smooth="yes"/>
      <point x="367" y="469"/>
      <point x="357" y="467"/>
      <point x="344" y="463" type="curve"/>
      <point x="392" y="431"/>
      <point x="406" y="400"/>
      <point x="406" y="364" type="curve" smooth="yes"/>
      <point x="406" y="339" type="line" smooth="yes"/>
      <point x="406" y="284"/>
      <point x="358" y="253"/>
    </contour>
    <contour>
      <point x="141" y="92" type="curve" smooth="yes"/>
      <point x="141" y="86" type="line" smooth="yes"/>
      <point x="141" y="27"/>
      <point x="186" y="-10"/>
      <point x="256" y="-10" type="curve" smooth="yes"/>
      <point x="373" y="-10" type="line" smooth="yes"/>
      <point x="439" y="-10"/>
      <point x="467" y="-33"/>
      <point x="467" y="-77" type="curve" smooth="yes"/>
      <point x="467" y="-99" type="line" smooth="yes"/>
      <point x="467" y="-131"/>
      <point x="443" y="-172"/>
      <point x="367" y="-172" type="curve"/>
      <point x="350" y="-237"/>
      <point x="349" y="-250"/>
      <point x="363" y="-250" type="curve" smooth="yes"/>
      <point x="492" y="-250"/>
      <point x="567" y="-193"/>
      <point x="567" y="-84" type="curve" smooth="yes"/>
      <point x="567" y="-67" type="line" smooth="yes"/>
      <point x="567" y="20"/>
      <point x="508" y="77"/>
      <point x="379" y="77" type="curve" smooth="yes"/>
      <point x="267" y="77" type="line" smooth="yes"/>
      <point x="245" y="77"/>
      <point x="236" y="85"/>
      <point x="236" y="106" type="curve" smooth="yes"/>
      <point x="236" y="115" type="line" smooth="yes"/>
      <point x="236" y="137"/>
      <point x="245" y="170"/>
      <point x="255" y="186" type="curve"/>
      <point x="255" y="191"/>
      <point x="251" y="197"/>
      <point x="241" y="199" type="curve" smooth="yes"/>
      <point x="182" y="199"/>
      <point x="141" y="139"/>
    </contour>
    <contour>
      <point x="480" y="-152" type="curve"/>
      <point x="441" y="-170"/>
      <point x="411" y="-172"/>
      <point x="367" y="-172" type="curve" smooth="yes"/>
      <point x="259" y="-172" type="line" smooth="yes"/>
      <point x="182" y="-172"/>
      <point x="148" y="-148"/>
      <point x="148" y="-96" type="curve" smooth="yes"/>
      <point x="148" y="-73" type="line" smooth="yes"/>
      <point x="148" y="-38"/>
      <point x="162" y="-10"/>
      <point x="218" y="11" type="curve"/>
      <point x="216" y="29"/>
      <point x="205" y="44"/>
      <point x="178" y="43" type="curve" smooth="yes"/>
      <point x="97" y="35"/>
      <point x="48" y="-25"/>
      <point x="48" y="-95" type="curve" smooth="yes"/>
      <point x="48" y="-113" type="line" smooth="yes"/>
      <point x="48" y="-197"/>
      <point x="119" y="-250"/>
      <point x="232" y="-250" type="curve" smooth="yes"/>
      <point x="363" y="-250" type="line" smooth="yes"/>
      <point x="419" y="-250"/>
      <point x="487" y="-217"/>
    </contour>
  </outline>
</glyph>
<glyph name="i" format="1">
  <advance width="350"/>
  <unicode hex="0069"/>
  <outline>
    <contour>
      <point x="40" y="533" type="curve"/>
      <point x="40" y="506"/>
      <point x="40" y="481"/>
      <point x="40" y="455" type="curve" smooth="yes"/>
      <point x="40" y="449"/>
      <point x="45" y="444"/>
      <point x="51" y="444" type="curve" smooth="yes"/>
      <point x="92" y="444"/>
      <point x="145" y="444"/>
      <point x="177" y="444" type="curve"/>
      <point x="177" y="521"/>
      <point x="173" y="533"/>
      <point x="164" y="533" type="curve" smooth="yes"/>
      <point x="118" y="533"/>
      <point x="87" y="533"/>
    </contour>
    <contour>
      <point x="239" y="0" type="curve"/>
      <point x="239" y="37"/>
      <point x="239" y="73"/>
      <point x="239" y="110" type="curve" smooth="yes"/>
      <point x="239" y="522" type="line" smooth="yes"/>
      <point x="239" y="528"/>
      <point x="234" y="533"/>
      <point x="228" y="533" type="curve" smooth="yes"/>
      <point x="141" y="533" type="line"/>
      <point x="141" y="11" type="line" smooth="yes"/>
      <point x="141" y="5"/>
      <point x="146" y="0"/>
      <point x="152" y="0" type="curve" smooth="yes"/>
      <point x="183" y="0"/>
      <point x="208" y="0"/>
    </contour>
    <contour>
      <point x="251" y="663" type="curve"/>
      <point x="251" y="766" type="line" smooth="yes"/>
      <point x="251" y="772"/>
      <point x="246" y="777"/>
      <point x="240" y="777" type="curve" smooth="yes"/>
      <point x="201" y="777"/>
      <point x="162" y="777"/>
      <point x="123" y="777" type="curve"/>
      <point x="123" y="674" type="line" smooth="yes"/>
      <point x="123" y="668"/>
      <point x="128" y="663"/>
      <point x="134" y="663" type="curve" smooth="yes"/>
      <point x="173" y="663"/>
      <point x="212" y="663"/>
    </contour>
    <contour>
      <point x="240" y="-1" type="move" name="ogonek"/>
    </contour>
    <contour>
      <point x="193" y="-1" type="move" name="bottom"/>
    </contour>
  </outline>
</glyph>
<glyph name="j" format="1">
  <advance width="350"/>
  <unicode hex="006A"/>
  <outline>
    <contour>
      <point x="48" y="533" type="curve"/>
      <point x="48" y="504"/>
      <point x="48" y="480"/>
      <point x="48" y="451" type="curve" smooth="yes"/>
      <point x="48" y="445"/>
      <point x="53" y="440"/>
      <point x="59" y="440" type="curve" smooth="yes"/>
      <point x="111" y="440"/>
      <point x="168" y="440"/>
      <point x="220" y="440" type="curve"/>
      <point x="220" y="485"/>
      <point x="207" y="533"/>
      <point x="178" y="533" type="curve" smooth="yes"/>
      <point x="136" y="533"/>
      <point x="90" y="533"/>
    </contour>
    <contour>
      <point x="260" y="-70" type="curve" smooth="yes"/>
      <point x="260" y="522" type="line" smooth="yes"/>
      <point x="260" y="525"/>
      <point x="259" y="528"/>
      <point x="257" y="530" type="curve" smooth="yes"/>
      <point x="255" y="532"/>
      <point x="252" y="533"/>
      <point x="249" y="533" type="curve" smooth="yes"/>
      <point x="161" y="533" type="line"/>
      <point x="161" y="-71" type="line" smooth="yes"/>
      <point x="161" y="-133"/>
      <point x="154" y="-162"/>
      <point x="114" y="-200" type="curve"/>
      <point x="170" y="-221"/>
      <point x="260" y="-169"/>
    </contour>
    <contour>
      <point x="88" y="-157" type="curve" smooth="yes"/>
      <point x="60" y="-157"/>
      <point x="42" y="-152"/>
      <point x="19" y="-141" type="curve"/>
      <point x="3" y="-141" type="line"/>
      <point x="3" y="-168"/>
      <point x="3" y="-195"/>
      <point x="3" y="-222" type="curve" smooth="yes"/>
      <point x="3" y="-225"/>
      <point x="4" y="-228"/>
      <point x="6" y="-230" type="curve" smooth="yes"/>
      <point x="14" y="-238"/>
      <point x="46" y="-250"/>
      <point x="94" y="-250" type="curve" smooth="yes"/>
      <point x="197" y="-250"/>
      <point x="260" y="-189"/>
      <point x="260" y="-70" type="curve" smooth="yes"/>
      <point x="260" y="-63"/>
      <point x="251" y="-55"/>
      <point x="161" y="-71" type="curve"/>
      <point x="161" y="-133"/>
      <point x="135" y="-157"/>
    </contour>
    <contour>
      <point x="275" y="663" type="curve"/>
      <point x="275" y="766" type="line" smooth="yes"/>
      <point x="275" y="772"/>
      <point x="270" y="777"/>
      <point x="264" y="777" type="curve" smooth="yes"/>
      <point x="225" y="777"/>
      <point x="185" y="777"/>
      <point x="146" y="777" type="curve"/>
      <point x="146" y="674" type="line" smooth="yes"/>
      <point x="146" y="668"/>
      <point x="151" y="663"/>
      <point x="157" y="663" type="curve" smooth="yes"/>
      <point x="196" y="663"/>
      <point x="236" y="663"/>
    </contour>
  </outline>
</glyph>
<glyph name="k" format="1">
  <advance width="600"/>
  <unicode hex="006B"/>
  <outline>
    <contour>
      <point x="189" y="0" type="curve"/>
      <point x="189" y="739" type="line" smooth="yes"/>
      <point x="189" y="742"/>
      <point x="188" y="745"/>
      <point x="186" y="747" type="curve" smooth="yes"/>
      <point x="184" y="749"/>
      <point x="181" y="750"/>
      <point x="178" y="750" type="curve" smooth="yes"/>
      <point x="150" y="750"/>
      <point x="124" y="750"/>
      <point x="91" y="750" type="curve"/>
      <point x="91" y="728"/>
      <point x="91" y="693"/>
      <point x="91" y="651" type="curve" smooth="yes"/>
      <point x="91" y="11" type="line" smooth="yes"/>
      <point x="91" y="5"/>
      <point x="96" y="0"/>
      <point x="102" y="0" type="curve" smooth="yes"/>
      <point x="133" y="0"/>
      <point x="158" y="0"/>
    </contour>
    <contour>
      <point x="420" y="533" type="line"/>
      <point x="315" y="422"/>
      <point x="209" y="312"/>
      <point x="104" y="202" type="curve"/>
      <point x="105" y="149"/>
      <point x="141" y="119"/>
      <point x="162" y="141" type="curve" smooth="yes"/>
      <point x="281" y="263"/>
      <point x="400" y="382"/>
      <point x="528" y="511" type="curve" smooth="yes"/>
      <point x="536" y="519"/>
      <point x="537" y="522"/>
      <point x="537" y="525" type="curve" smooth="yes"/>
      <point x="537" y="529"/>
      <point x="533" y="533"/>
      <point x="528" y="533" type="curve"/>
    </contour>
    <contour>
      <point x="456" y="0" type="curve" smooth="yes"/>
      <point x="507" y="0"/>
      <point x="530" y="0"/>
      <point x="566" y="0" type="curve"/>
      <point x="476" y="111"/>
      <point x="391" y="215"/>
      <point x="302" y="325" type="curve"/>
      <point x="242" y="264"/>
      <point x="240" y="256"/>
      <point x="250" y="241" type="curve" smooth="yes"/>
      <point x="275" y="207"/>
      <point x="419" y="30"/>
      <point x="436" y="9" type="curve" smooth="yes"/>
      <point x="441" y="3"/>
      <point x="446" y="0"/>
    </contour>
    <contour>
      <point x="328" y="-1" type="move" name="bottom"/>
    </contour>
  </outline>
</glyph>
<glyph name="l" format="1">
  <advance width="300"/>
  <unicode hex="006C"/>
  <outline>
    <contour>
      <point x="81" y="640" type="curve"/>
      <point x="81" y="141" type="line" smooth="yes"/>
      <point x="81" y="75"/>
      <point x="130" y="28"/>
      <point x="187" y="52" type="curve"/>
      <point x="181" y="83"/>
      <point x="179" y="116"/>
      <point x="179" y="148" type="curve" smooth="yes"/>
      <point x="179" y="739" type="line" smooth="yes"/>
      <point x="179" y="742"/>
      <point x="178" y="745"/>
      <point x="176" y="747" type="curve" smooth="yes"/>
      <point x="174" y="749"/>
      <point x="171" y="750"/>
      <point x="168" y="750" type="curve" smooth="yes"/>
      <point x="139" y="750"/>
      <point x="110" y="750"/>
      <point x="81" y="750" type="curve"/>
      <point x="81" y="713"/>
      <point x="81" y="677"/>
    </contour>
    <contour>
      <point x="277" y="93" type="curve"/>
      <point x="262" y="93" type="line"/>
      <point x="252" y="93"/>
      <point x="242" y="93"/>
      <point x="231" y="93" type="curve" smooth="yes"/>
      <point x="193" y="93"/>
      <point x="179" y="106"/>
      <point x="179" y="148" type="curve"/>
      <point x="110" y="156"/>
      <point x="81" y="161"/>
      <point x="81" y="141" type="curve" smooth="yes"/>
      <point x="81" y="40"/>
      <point x="131" y="0"/>
      <point x="217" y="0" type="curve" smooth="yes"/>
      <point x="266" y="0" type="line" smooth="yes"/>
      <point x="269" y="0"/>
      <point x="272" y="1"/>
      <point x="274" y="3" type="curve" smooth="yes"/>
      <point x="276" y="5"/>
      <point x="277" y="7"/>
      <point x="277" y="11" type="curve" smooth="yes"/>
      <point x="277" y="40"/>
      <point x="277" y="64"/>
    </contour>
    <contour>
      <point x="329" y="711" type="move" name="caronslovak"/>
    </contour>
    <contour>
      <point x="131" y="730" type="move" name="top"/>
    </contour>
    <contour>
      <point x="329" y="400" type="move" name="dot"/>
    </contour>
    <contour>
      <point x="179" y="-1" type="move" name="bottom"/>
    </contour>
  </outline>
</glyph>
<glyph name="m" format="1">
  <advance width="850"/>
  <unicode hex="006D"/>
  <outline>
    <contour>
      <point x="194" y="0" type="curve"/>
      <point x="194" y="522" type="line" smooth="yes"/>
      <point x="194" y="525"/>
      <point x="193" y="528"/>
      <point x="191" y="530" type="curve" smooth="yes"/>
      <point x="189" y="532"/>
      <point x="186" y="533"/>
      <point x="183" y="533" type="curve" smooth="yes"/>
      <point x="154" y="533"/>
      <point x="124" y="533"/>
      <point x="91" y="533" type="curve"/>
      <point x="91" y="511"/>
      <point x="91" y="476"/>
      <point x="91" y="434" type="curve" smooth="yes"/>
      <point x="91" y="11" type="line" smooth="yes"/>
      <point x="91" y="5"/>
      <point x="96" y="0"/>
      <point x="102" y="0" type="curve" smooth="yes"/>
      <point x="133" y="0"/>
      <point x="163" y="0"/>
    </contour>
    <contour>
      <point x="351" y="544" type="curve" smooth="yes"/>
      <point x="291" y="544"/>
      <point x="239" y="506"/>
      <point x="188" y="450" type="curve" smooth="yes"/>
      <point x="165" y="426"/>
      <point x="163" y="394"/>
      <point x="173" y="334" type="curve"/>
      <point x="235" y="422"/>
      <point x="276" y="448"/>
      <point x="320" y="448" type="curve" smooth="yes"/>
      <point x="351" y="448"/>
      <point x="373" y="426"/>
      <point x="373" y="386" type="curve"/>
      <point x="422" y="387"/>
      <point x="477" y="395"/>
      <point x="477" y="415" type="curve" smooth="yes"/>
      <point x="477" y="490"/>
      <point x="429" y="544"/>
    </contour>
    <contour>
      <point x="477" y="0" type="curve"/>
      <point x="477" y="415" type="line"/>
      <point x="477" y="430"/>
      <point x="460" y="449"/>
      <point x="373" y="449" type="curve"/>
      <point x="373" y="428"/>
      <point x="373" y="407"/>
      <point x="373" y="386" type="curve" smooth="yes"/>
      <point x="373" y="11" type="line" smooth="yes"/>
      <point x="373" y="5"/>
      <point x="378" y="0"/>
      <point x="384" y="0" type="curve" smooth="yes"/>
      <point x="415" y="0"/>
      <point x="446" y="0"/>
    </contour>
    <contour>
      <point x="630" y="544" type="curve" smooth="yes"/>
      <point x="569" y="544"/>
      <point x="515" y="509"/>
      <point x="464" y="454" type="curve" smooth="yes"/>
      <point x="443" y="430"/>
      <point x="437" y="400"/>
      <point x="448" y="339" type="curve"/>
      <point x="511" y="422"/>
      <point x="557" y="448"/>
      <point x="598" y="448" type="curve" smooth="yes"/>
      <point x="632" y="448"/>
      <point x="656" y="426"/>
      <point x="656" y="386" type="curve"/>
      <point x="704" y="387"/>
      <point x="759" y="398"/>
      <point x="759" y="414" type="curve" smooth="yes"/>
      <point x="759" y="490"/>
      <point x="708" y="544"/>
    </contour>
    <contour>
      <point x="759" y="0" type="curve"/>
      <point x="759" y="32"/>
      <point x="759" y="65"/>
      <point x="759" y="98" type="curve" smooth="yes"/>
      <point x="759" y="414" type="line"/>
      <point x="759" y="430"/>
      <point x="741" y="449"/>
      <point x="656" y="449" type="curve"/>
      <point x="656" y="428"/>
      <point x="656" y="407"/>
      <point x="656" y="386" type="curve" smooth="yes"/>
      <point x="656" y="11" type="line" smooth="yes"/>
      <point x="656" y="5"/>
      <point x="661" y="0"/>
      <point x="667" y="0" type="curve" smooth="yes"/>
      <point x="698" y="0"/>
      <point x="728" y="0"/>
    </contour>
  </outline>
</glyph>
<glyph name="o" format="1">
  <advance width="600"/>
  <unicode hex="006F"/>
  <outline>
    <contour>
      <point x="301" y="544" type="curve" smooth="yes"/>
      <point x="169" y="544"/>
      <point x="70" y="449"/>
      <point x="70" y="311" type="curve" smooth="yes"/>
      <point x="70" y="222" type="line" smooth="yes"/>
      <point x="70" y="83"/>
      <point x="161" y="-11"/>
      <point x="299" y="-11" type="curve" smooth="yes"/>
      <point x="314" y="-11"/>
      <point x="318" y="5"/>
      <point x="293" y="82" type="curve"/>
      <point x="215" y="82"/>
      <point x="169" y="134"/>
      <point x="169" y="221" type="curve" smooth="yes"/>
      <point x="169" y="313" type="line" smooth="yes"/>
      <point x="169" y="393"/>
      <point x="217" y="451"/>
      <point x="307" y="451" type="curve" smooth="yes"/>
      <point x="352" y="451"/>
      <point x="385" y="441"/>
      <point x="418" y="416" type="curve"/>
      <point x="451" y="466"/>
      <point x="395" y="544"/>
    </contour>
    <contour>
      <point x="299" y="-11" type="curve" smooth="yes"/>
      <point x="431" y="-11"/>
      <point x="530" y="84"/>
      <point x="530" y="222" type="curve" smooth="yes"/>
      <point x="530" y="311" type="line" smooth="yes"/>
      <point x="530" y="449"/>
      <point x="438" y="544"/>
      <point x="301" y="544" type="curve" smooth="yes"/>
      <point x="290" y="544"/>
      <point x="287" y="531"/>
      <point x="307" y="451" type="curve"/>
      <point x="385" y="451"/>
      <point x="431" y="401"/>
      <point x="431" y="312" type="curve" smooth="yes"/>
      <point x="431" y="220" type="line" smooth="yes"/>
      <point x="431" y="143"/>
      <point x="382" y="82"/>
      <point x="293" y="82" type="curve" smooth="yes"/>
      <point x="247" y="82"/>
      <point x="214" y="92"/>
      <point x="181" y="117" type="curve"/>
      <point x="148" y="67"/>
      <point x="204" y="-11"/>
    </contour>
    <contour>
      <point x="300" y="544" type="move" name="top"/>
    </contour>
    <contour>
      <point x="394" y="17" type="move" name="ogonek"/>
    </contour>
    <contour>
      <point x="300" y="-1" type="move" name="bottom"/>
    </contour>
  </outline>
</glyph>
<glyph name="q" format="1">
  <advance width="600"/>
  <unicode hex="0071"/>
  <outline>
    <contour>
      <point x="252" y="544" type="curve" smooth="yes"/>
      <point x="136" y="544"/>
      <point x="65" y="461"/>
      <point x="65" y="319" type="curve" smooth="yes"/>
      <point x="65" y="186" type="line" smooth="yes"/>
      <point x="65" y="130"/>
      <point x="111" y="67"/>
      <point x="161" y="67" type="curve" smooth="yes"/>
      <point x="182" y="67"/>
      <point x="193" y="74"/>
      <point x="194" y="88" type="curve"/>
      <point x="175" y="123"/>
      <point x="166" y="151"/>
      <point x="166" y="207" type="curve" smooth="yes"/>
      <point x="166" y="303" type="line" smooth="yes"/>
      <point x="166" y="394"/>
      <point x="199" y="444"/>
      <point x="277" y="444" type="curve" smooth="yes"/>
      <point x="339" y="444"/>
      <point x="380" y="404"/>
      <point x="417" y="347" type="curve"/>
      <point x="434" y="351"/>
      <point x="442" y="371"/>
      <point x="439" y="391" type="curve" smooth="yes"/>
      <point x="427" y="457"/>
      <point x="355" y="544"/>
    </contour>
    <contour>
      <point x="231" y="-10" type="curve" smooth="yes"/>
      <point x="303" y="-10"/>
      <point x="359" y="19"/>
      <point x="414" y="78" type="curve" smooth="yes"/>
      <point x="448" y="115"/>
      <point x="452" y="156"/>
      <point x="442" y="184" type="curve"/>
      <point x="366" y="116"/>
      <point x="318" y="87"/>
      <point x="261" y="87" type="curve" smooth="yes"/>
      <point x="199" y="87"/>
      <point x="166" y="132"/>
      <point x="166" y="207" type="curve"/>
      <point x="101" y="217"/>
      <point x="65" y="195"/>
      <point x="65" y="186" type="curve" smooth="yes"/>
      <point x="65" y="66"/>
      <point x="135" y="-10"/>
    </contour>
    <contour>
      <point x="509" y="-210" type="curve"/>
      <point x="509" y="433" type="line" smooth="yes"/>
      <point x="509" y="466"/>
      <point x="509" y="500"/>
      <point x="509" y="533" type="curve"/>
      <point x="479" y="533"/>
      <point x="449" y="533"/>
      <point x="420" y="533" type="curve" smooth="yes"/>
      <point x="417" y="533"/>
      <point x="414" y="532"/>
      <point x="412" y="530" type="curve" smooth="yes"/>
      <point x="410" y="528"/>
      <point x="409" y="525"/>
      <point x="409" y="522" type="curve" smooth="yes"/>
      <point x="409" y="-199" type="line" smooth="yes"/>
      <point x="409" y="-205"/>
      <point x="414" y="-210"/>
      <point x="420" y="-210" type="curve" smooth="yes"/>
      <point x="449" y="-210"/>
      <point x="479" y="-210"/>
    </contour>
  </outline>
</glyph>
<glyph name="t" format="1">
  <advance width="500"/>
  <unicode hex="0074"/>
  <outline>
    <contour>
      <point x="143" y="700" type="curve"/>
      <point x="143" y="204" type="line" smooth="yes"/>
      <point x="143" y="111"/>
      <point x="197" y="37"/>
      <point x="296" y="53" type="curve"/>
      <point x="255" y="104"/>
      <point x="242" y="134"/>
      <point x="242" y="213" type="curve" smooth="yes"/>
      <point x="242" y="689" type="line" smooth="yes"/>
      <point x="242" y="695"/>
      <point x="237" y="700"/>
      <point x="231" y="700" type="curve" smooth="yes"/>
      <point x="203" y="700"/>
      <point x="173" y="700"/>
    </contour>
    <contour>
      <point x="435" y="94" type="curve"/>
      <point x="420" y="94" type="line"/>
      <point x="394" y="94"/>
      <point x="390" y="94"/>
      <point x="352" y="94" type="curve" smooth="yes"/>
      <point x="274" y="94"/>
      <point x="242" y="124"/>
      <point x="242" y="213" type="curve"/>
      <point x="161" y="232"/>
      <point x="143" y="220"/>
      <point x="143" y="204" type="curve" smooth="yes"/>
      <point x="143" y="60"/>
      <point x="217" y="0"/>
      <point x="347" y="0" type="curve" smooth="yes"/>
      <point x="424" y="0" type="line" smooth="yes"/>
      <point x="427" y="0"/>
      <point x="430" y="1"/>
      <point x="432" y="3" type="curve" smooth="yes"/>
      <point x="434" y="5"/>
      <point x="435" y="7"/>
      <point x="435" y="11" type="curve" smooth="yes"/>
      <point x="435" y="40"/>
      <point x="435" y="65"/>
    </contour>
    <contour>
      <point x="45" y="533" type="line"/>
      <point x="45" y="504"/>
      <point x="45" y="481"/>
      <point x="45" y="452" type="curve" smooth="yes"/>
      <point x="45" y="449"/>
      <point x="46" y="446"/>
      <point x="48" y="444" type="curve" smooth="yes"/>
      <point x="50" y="442"/>
      <point x="53" y="441"/>
      <point x="56" y="441" type="curve"/>
      <point x="435" y="441" type="line"/>
      <point x="435" y="470"/>
      <point x="435" y="493"/>
      <point x="435" y="522" type="curve" smooth="yes"/>
      <point x="435" y="528"/>
      <point x="430" y="533"/>
      <point x="424" y="533" type="curve"/>
    </contour>
    <contour>
      <point x="392" y="711" type="move" name="caronslovak"/>
    </contour>
    <contour>
      <point x="290" y="-1" type="move" name="bottom"/>
    </contour>
  </outline>
</glyph>
<glyph name="v" format="1">
  <advance width="600"/>
  <unicode hex="0076"/>
  <outline>
    <contour>
      <point x="540" y="533" type="curve" smooth="yes"/>
      <point x="450" y="533" type="line"/>
      <point x="401" y="375"/>
      <point x="350" y="220"/>
      <point x="298" y="62" type="curve"/>
      <point x="287" y="22"/>
      <point x="278" y="11"/>
      <point x="257" y="0" type="curve"/>
      <point x="373" y="0" type="line"/>
      <point x="433" y="173"/>
      <point x="492" y="345"/>
      <point x="550" y="518" type="curve"/>
      <point x="553" y="526"/>
      <point x="548" y="533"/>
    </contour>
    <contour>
      <point x="141" y="533" type="curve" smooth="yes"/>
      <point x="45" y="533" type="line"/>
      <point x="104" y="359"/>
      <point x="163" y="186"/>
      <point x="222" y="13" type="curve"/>
      <point x="225" y="4"/>
      <point x="231" y="0"/>
      <point x="239" y="0" type="curve" smooth="yes"/>
      <point x="265" y="0" type="line" smooth="yes"/>
      <point x="302" y="0"/>
      <point x="371" y="22"/>
      <point x="373" y="95" type="curve"/>
      <point x="346" y="95"/>
      <point x="325" y="95"/>
      <point x="302" y="95" type="curve" smooth="yes"/>
      <point x="296" y="95"/>
      <point x="293" y="98"/>
      <point x="291" y="104" type="curve"/>
      <point x="245" y="244"/>
      <point x="200" y="382"/>
      <point x="154" y="521" type="curve"/>
      <point x="151" y="529"/>
      <point x="148" y="533"/>
    </contour>
  </outline>
</glyph>
<glyph name="z" format="1">
  <advance width="550"/>
  <unicode hex="007A"/>
  <outline>
    <contour>
      <point x="71" y="533" type="line"/>
      <point x="71" y="505"/>
      <point x="71" y="478"/>
      <point x="71" y="449" type="curve" smooth="yes"/>
      <point x="71" y="446"/>
      <point x="72" y="443"/>
      <point x="74" y="441" type="curve" smooth="yes"/>
      <point x="76" y="439"/>
      <point x="79" y="438"/>
      <point x="82" y="438" type="curve" smooth="yes"/>
      <point x="373" y="438" type="line" smooth="yes"/>
      <point x="406" y="438"/>
      <point x="449" y="440"/>
      <point x="479" y="446" type="curve"/>
      <point x="479" y="522" type="line" smooth="yes"/>
      <point x="479" y="525"/>
      <point x="478" y="528"/>
      <point x="476" y="530" type="curve" smooth="yes"/>
      <point x="474" y="532"/>
      <point x="471" y="533"/>
      <point x="468" y="533" type="curve" smooth="yes"/>
    </contour>
    <contour>
      <point x="388" y="478" type="curve"/>
      <point x="283" y="348"/>
      <point x="177" y="217"/>
      <point x="71" y="87" type="curve"/>
      <point x="71" y="17"/>
      <point x="140" y="36"/>
      <point x="171" y="63" type="curve" smooth="yes"/>
      <point x="278" y="196"/>
      <point x="479" y="444"/>
      <point x="479" y="446" type="curve"/>
      <point x="479" y="468"/>
      <point x="451" y="478"/>
    </contour>
    <contour>
      <point x="479" y="0" type="line"/>
      <point x="479" y="28"/>
      <point x="479" y="55"/>
      <point x="479" y="83" type="curve"/>
      <point x="479" y="89"/>
      <point x="474" y="94"/>
      <point x="468" y="94" type="curve" smooth="yes"/>
      <point x="180" y="94" type="line" smooth="yes"/>
      <point x="143" y="94"/>
      <point x="109" y="94"/>
      <point x="71" y="87" type="curve"/>
      <point x="71" y="11" type="line" smooth="yes"/>
      <point x="71" y="8"/>
      <point x="72" y="5"/>
      <point x="74" y="3" type="curve" smooth="yes"/>
      <point x="76" y="1"/>
      <point x="79" y="0"/>
      <point x="82" y="0" type="curve" smooth="yes"/>
    </contour>
    <contour>
      <point x="275" y="544" type="move" name="top"/>
    </contour>
  </outline>
</glyph>
<glyph name="braceleft" format="1">
  <advance width="500"/>
  <unicode hex="007B"/>
  <outline>
    <contour>
      <point x="327" y="665" type="curve" smooth="yes"/>
      <point x="389" y="665"/>
      <point x="401" y="665"/>
      <point x="456" y="665" type="curve"/>
      <point x="476" y="665" type="line"/>
      <point x="476" y="693"/>
      <point x="476" y="721"/>
      <point x="476" y="749" type="curve"/>
      <point x="476" y="756"/>
      <point x="472" y="760"/>
      <point x="465" y="760" type="curve" smooth="yes"/>
      <point x="293" y="760" type="line" smooth="yes"/>
      <point x="212" y="760"/>
      <point x="185" y="699"/>
      <point x="185" y="662" type="curve" smooth="yes"/>
      <point x="185" y="658" type="line" smooth="yes"/>
      <point x="185" y="649"/>
      <point x="193" y="645"/>
      <point x="281" y="622" type="curve"/>
      <point x="285" y="654"/>
      <point x="297" y="665"/>
    </contour>
    <contour>
      <point x="350" y="446" type="curve" smooth="yes"/>
      <point x="350" y="531"/>
      <point x="283" y="561"/>
      <point x="283" y="608" type="curve" smooth="yes"/>
      <point x="283" y="619"/>
      <point x="283" y="659"/>
      <point x="283" y="679" type="curve"/>
      <point x="189" y="672"/>
      <point x="185" y="668"/>
      <point x="185" y="662" type="curve" smooth="yes"/>
      <point x="185" y="614" type="line" smooth="yes"/>
      <point x="185" y="532"/>
      <point x="251" y="511"/>
      <point x="251" y="445" type="curve" smooth="yes"/>
      <point x="251" y="383"/>
      <point x="182" y="347"/>
      <point x="66" y="347" type="curve" smooth="yes"/>
      <point x="34" y="347" type="line"/>
      <point x="34" y="286" type="line" smooth="yes"/>
      <point x="34" y="277"/>
      <point x="40" y="272"/>
      <point x="48" y="272" type="curve" smooth="yes"/>
      <point x="66" y="272" type="line" smooth="yes"/>
      <point x="257" y="272"/>
      <point x="350" y="347"/>
    </contour>
    <contour>
      <point x="350" y="153" type="curve" smooth="yes"/>
      <point x="350" y="254"/>
      <point x="260" y="328"/>
      <point x="66" y="328" type="curve" smooth="yes"/>
      <point x="55" y="328"/>
      <point x="45" y="328"/>
      <point x="34" y="328" type="curve"/>
      <point x="34" y="264" type="line" smooth="yes"/>
      <point x="34" y="257"/>
      <point x="38" y="253"/>
      <point x="45" y="253" type="curve" smooth="yes"/>
      <point x="66" y="253" type="line" smooth="yes"/>
      <point x="182" y="253"/>
      <point x="251" y="214"/>
      <point x="251" y="153" type="curve" smooth="yes"/>
      <point x="251" y="88"/>
      <point x="185" y="67"/>
      <point x="185" y="-15" type="curve" smooth="yes"/>
      <point x="185" y="-63" type="line" smooth="yes"/>
      <point x="185" y="-69"/>
      <point x="190" y="-73"/>
      <point x="283" y="-78" type="curve"/>
      <point x="283" y="-55"/>
      <point x="283" y="-32"/>
      <point x="283" y="-9" type="curve" smooth="yes"/>
      <point x="283" y="38"/>
      <point x="350" y="68"/>
    </contour>
    <contour>
      <point x="327" y="-66" type="curve" smooth="yes"/>
      <point x="297" y="-66"/>
      <point x="285" y="-55"/>
      <point x="281" y="-23" type="curve"/>
      <point x="194" y="-46"/>
      <point x="185" y="-50"/>
      <point x="185" y="-59" type="curve" smooth="yes"/>
      <point x="185" y="-63" type="line" smooth="yes"/>
      <point x="185" y="-100"/>
      <point x="212" y="-161"/>
      <point x="293" y="-161" type="curve" smooth="yes"/>
      <point x="465" y="-161" type="line" smooth="yes"/>
      <point x="472" y="-161"/>
      <point x="476" y="-157"/>
      <point x="476" y="-150" type="curve"/>
      <point x="476" y="-66" type="line"/>
      <point x="456" y="-66" type="line"/>
      <point x="401" y="-66"/>
      <point x="389" y="-66"/>
    </contour>
  </outline>
</glyph>
<glyph name="bar" format="1">
  <advance width="300"/>
  <unicode hex="007C"/>
  <outline>
    <contour>
      <point x="98" y="760" type="curve"/>
      <point x="98" y="726"/>
      <point x="98" y="692"/>
      <point x="98" y="657" type="curve" smooth="yes"/>
      <point x="98" y="-150" type="line" smooth="yes"/>
      <point x="98" y="-156"/>
      <point x="103" y="-161"/>
      <point x="109" y="-161" type="curve" smooth="yes"/>
      <point x="140" y="-161"/>
      <point x="171" y="-161"/>
      <point x="202" y="-161" type="curve"/>
      <point x="202" y="749" type="line" smooth="yes"/>
      <point x="202" y="752"/>
      <point x="201" y="755"/>
      <point x="199" y="757" type="curve" smooth="yes"/>
      <point x="197" y="759"/>
      <point x="194" y="760"/>
      <point x="191" y="760" type="curve" smooth="yes"/>
      <point x="160" y="760"/>
      <point x="129" y="760"/>
    </contour>
  </outline>
</glyph>
<glyph name="braceright" format="1">
  <advance width="500"/>
  <unicode hex="007D"/>
  <outline>
    <contour>
      <point x="173" y="-47" type="curve" smooth="yes"/>
      <point x="111" y="-47"/>
      <point x="99" y="-47"/>
      <point x="44" y="-47" type="curve"/>
      <point x="24" y="-47" type="line"/>
      <point x="24" y="-75"/>
      <point x="24" y="-103"/>
      <point x="24" y="-131" type="curve"/>
      <point x="24" y="-138"/>
      <point x="28" y="-142"/>
      <point x="35" y="-142" type="curve" smooth="yes"/>
      <point x="207" y="-142" type="line" smooth="yes"/>
      <point x="288" y="-142"/>
      <point x="315" y="-81"/>
      <point x="315" y="-44" type="curve" smooth="yes"/>
      <point x="315" y="-40" type="line" smooth="yes"/>
      <point x="315" y="-31"/>
      <point x="307" y="-27"/>
      <point x="219" y="-4" type="curve"/>
      <point x="215" y="-35"/>
      <point x="203" y="-47"/>
    </contour>
    <contour>
      <point x="150" y="173" type="curve" smooth="yes"/>
      <point x="150" y="88"/>
      <point x="217" y="57"/>
      <point x="217" y="10" type="curve" smooth="yes"/>
      <point x="217" y="-1"/>
      <point x="217" y="-40"/>
      <point x="217" y="-60" type="curve"/>
      <point x="311" y="-54"/>
      <point x="315" y="-50"/>
      <point x="315" y="-44" type="curve" smooth="yes"/>
      <point x="315" y="4" type="line" smooth="yes"/>
      <point x="315" y="86"/>
      <point x="249" y="108"/>
      <point x="249" y="173" type="curve" smooth="yes"/>
      <point x="249" y="235"/>
      <point x="318" y="271"/>
      <point x="434" y="271" type="curve" smooth="yes"/>
      <point x="466" y="271" type="line"/>
      <point x="466" y="333" type="line" smooth="yes"/>
      <point x="466" y="341"/>
      <point x="460" y="346"/>
      <point x="452" y="346" type="curve" smooth="yes"/>
      <point x="434" y="346" type="line" smooth="yes"/>
      <point x="243" y="346"/>
      <point x="150" y="271"/>
    </contour>
    <contour>
      <point x="150" y="466" type="curve" smooth="yes"/>
      <point x="150" y="364"/>
      <point x="240" y="291"/>
      <point x="434" y="291" type="curve" smooth="yes"/>
      <point x="445" y="291"/>
      <point x="455" y="291"/>
      <point x="466" y="291" type="curve"/>
      <point x="466" y="355" type="line" smooth="yes"/>
      <point x="466" y="362"/>
      <point x="462" y="366"/>
      <point x="455" y="366" type="curve" smooth="yes"/>
      <point x="434" y="366" type="line" smooth="yes"/>
      <point x="318" y="366"/>
      <point x="249" y="404"/>
      <point x="249" y="465" type="curve" smooth="yes"/>
      <point x="249" y="531"/>
      <point x="315" y="552"/>
      <point x="315" y="634" type="curve" smooth="yes"/>
      <point x="315" y="682" type="line" smooth="yes"/>
      <point x="315" y="687"/>
      <point x="310" y="692"/>
      <point x="217" y="696" type="curve"/>
      <point x="217" y="673"/>
      <point x="217" y="650"/>
      <point x="217" y="627" type="curve" smooth="yes"/>
      <point x="217" y="581"/>
      <point x="150" y="551"/>
    </contour>
    <contour>
      <point x="173" y="685" type="curve" smooth="yes"/>
      <point x="203" y="685"/>
      <point x="215" y="673"/>
      <point x="219" y="641" type="curve"/>
      <point x="306" y="665"/>
      <point x="315" y="669"/>
      <point x="315" y="678" type="curve" smooth="yes"/>
      <point x="315" y="682" type="line" smooth="yes"/>
      <point x="315" y="718"/>
      <point x="288" y="779"/>
      <point x="207" y="779" type="curve" smooth="yes"/>
      <point x="35" y="779" type="line" smooth="yes"/>
      <point x="28" y="779"/>
      <point x="24" y="775"/>
      <point x="24" y="768" type="curve"/>
      <point x="24" y="685" type="line"/>
      <point x="44" y="685" type="line"/>
      <point x="99" y="685"/>
      <point x="111" y="685"/>
    </contour>
  </outline>
</glyph>
<glyph name="exclamdown" format="1">
  <advance width="400"/>
  <unicode hex="00A1"/>
  <outline>
    <contour>
      <point x="162" y="269" type="line"/>
      <point x="154" y="189"/>
      <point x="146" y="110"/>
      <point x="138" y="31" type="curve"/>
      <point x="138" y="-156" type="line" smooth="yes"/>
      <point x="138" y="-163"/>
      <point x="143" y="-167"/>
      <point x="149" y="-167" type="curve" smooth="yes"/>
      <point x="194" y="-167"/>
      <point x="231" y="-167"/>
      <point x="262" y="-167" type="curve"/>
      <point x="262" y="-129"/>
      <point x="262" y="-94"/>
      <point x="262" y="-57" type="curve" smooth="yes"/>
      <point x="262" y="31" type="line"/>
      <point x="241" y="257"/>
      <point x="239" y="262"/>
      <point x="235" y="266" type="curve" smooth="yes"/>
      <point x="233" y="268"/>
      <point x="231" y="269"/>
      <point x="227" y="269" type="curve"/>
    </contour>
    <contour>
      <point x="120" y="540" type="curve"/>
      <point x="120" y="392" type="line" smooth="yes"/>
      <point x="120" y="386"/>
      <point x="125" y="381"/>
      <point x="131" y="381" type="curve" smooth="yes"/>
      <point x="177" y="381"/>
      <point x="234" y="381"/>
      <point x="280" y="381" type="curve"/>
      <point x="280" y="529" type="line" smooth="yes"/>
      <point x="280" y="535"/>
      <point x="275" y="540"/>
      <point x="269" y="540" type="curve" smooth="yes"/>
      <point x="223" y="540"/>
      <point x="166" y="540"/>
    </contour>
  </outline>
</glyph>
<glyph name="cent" format="1">
  <advance width="600"/>
  <unicode hex="00A2"/>
  <outline>
    <contour>
      <point x="372" y="394" type="line"/>
      <point x="415" y="759" type="line" smooth="yes"/>
      <point x="416" y="768"/>
      <point x="411" y="772"/>
      <point x="405" y="772" type="curve" smooth="yes"/>
      <point x="368" y="772"/>
      <point x="352" y="772"/>
      <point x="314" y="772" type="curve"/>
      <point x="314" y="741"/>
      <point x="314" y="711"/>
      <point x="314" y="681" type="curve"/>
      <point x="314" y="419" type="line" smooth="yes"/>
      <point x="314" y="411"/>
      <point x="318" y="407"/>
      <point x="325" y="405" type="curve" smooth="yes"/>
    </contour>
    <contour>
      <point x="315" y="306" type="line"/>
      <point x="272" y="-59" type="line" smooth="yes"/>
      <point x="271" y="-68"/>
      <point x="276" y="-72"/>
      <point x="282" y="-72" type="curve" smooth="yes"/>
      <point x="319" y="-72"/>
      <point x="335" y="-72"/>
      <point x="373" y="-72" type="curve"/>
      <point x="373" y="-42"/>
      <point x="373" y="-11"/>
      <point x="373" y="19" type="curve"/>
      <point x="373" y="280" type="line" smooth="yes"/>
      <point x="373" y="288"/>
      <point x="369" y="293"/>
      <point x="362" y="294" type="curve" smooth="yes"/>
    </contour>
    <contour>
      <point x="341" y="628" type="curve" smooth="yes"/>
      <point x="189" y="628"/>
      <point x="83" y="539"/>
      <point x="83" y="388" type="curve" smooth="yes"/>
      <point x="83" y="309" type="line" smooth="yes"/>
      <point x="83" y="158"/>
      <point x="173" y="74"/>
      <point x="339" y="74" type="curve" smooth="yes"/>
      <point x="351" y="74"/>
      <point x="358" y="94"/>
      <point x="337" y="171" type="curve"/>
      <point x="232" y="171"/>
      <point x="184" y="219"/>
      <point x="184" y="316" type="curve" smooth="yes"/>
      <point x="184" y="383" type="line" smooth="yes"/>
      <point x="184" y="486"/>
      <point x="240" y="531"/>
      <point x="340" y="531" type="curve" smooth="yes"/>
      <point x="401" y="531"/>
      <point x="445" y="516"/>
      <point x="493" y="492" type="curve"/>
      <point x="509" y="492" type="line"/>
      <point x="509" y="518"/>
      <point x="509" y="546"/>
      <point x="509" y="576" type="curve" smooth="yes"/>
      <point x="509" y="580"/>
      <point x="508" y="583"/>
      <point x="504" y="586" type="curve" smooth="yes"/>
      <point x="489" y="602"/>
      <point x="431" y="628"/>
    </contour>
    <contour>
      <point x="151" y="245" type="curve"/>
      <point x="130" y="141"/>
      <point x="204" y="74"/>
      <point x="339" y="74" type="curve" smooth="yes"/>
      <point x="423" y="74"/>
      <point x="486" y="96"/>
      <point x="506" y="116" type="curve" smooth="yes"/>
      <point x="508" y="118"/>
      <point x="509" y="121"/>
      <point x="509" y="124" type="curve"/>
      <point x="509" y="152"/>
      <point x="509" y="180"/>
      <point x="509" y="209" type="curve"/>
      <point x="493" y="209" type="line"/>
      <point x="443" y="185"/>
      <point x="400" y="171"/>
      <point x="337" y="171" type="curve" smooth="yes"/>
      <point x="251" y="171"/>
      <point x="202" y="196"/>
    </contour>
  </outline>
</glyph>
<glyph name="currency" format="1">
  <advance width="600"/>
  <unicode hex="00A4"/>
  <outline>
    <contour>
      <point x="235" y="422" type="curve"/>
      <point x="208" y="449"/>
      <point x="175" y="482"/>
      <point x="147" y="511" type="curve" smooth="yes"/>
      <point x="145" y="513"/>
      <point x="143" y="514"/>
      <point x="141" y="514" type="curve" smooth="yes"/>
      <point x="139" y="514"/>
      <point x="137" y="513"/>
      <point x="135" y="511" type="curve" smooth="yes"/>
      <point x="116" y="492"/>
      <point x="97" y="473"/>
      <point x="82" y="458" type="curve"/>
      <point x="110" y="431"/>
      <point x="144" y="397"/>
      <point x="171" y="370" type="curve" smooth="yes"/>
      <point x="175" y="366"/>
      <point x="179" y="366"/>
      <point x="183" y="370" type="curve" smooth="yes"/>
      <point x="200" y="386"/>
      <point x="220" y="407"/>
    </contour>
    <contour>
      <point x="363" y="422" type="curve"/>
      <point x="371" y="414"/>
      <point x="406" y="379"/>
      <point x="415" y="370" type="curve" smooth="yes"/>
      <point x="419" y="366"/>
      <point x="423" y="366"/>
      <point x="427" y="370" type="curve" smooth="yes"/>
      <point x="454" y="397"/>
      <point x="488" y="431"/>
      <point x="516" y="458" type="curve"/>
      <point x="498" y="476"/>
      <point x="482" y="492"/>
      <point x="463" y="511" type="curve" smooth="yes"/>
      <point x="461" y="513"/>
      <point x="459" y="514"/>
      <point x="457" y="514" type="curve" smooth="yes"/>
      <point x="455" y="514"/>
      <point x="453" y="513"/>
      <point x="451" y="511" type="curve" smooth="yes"/>
      <point x="423" y="482"/>
      <point x="390" y="449"/>
    </contour>
    <contour>
      <point x="363" y="177" type="curve"/>
      <point x="390" y="150"/>
      <point x="423" y="117"/>
      <point x="451" y="88" type="curve" smooth="yes"/>
      <point x="453" y="86"/>
      <point x="455" y="85"/>
      <point x="457" y="85" type="curve" smooth="yes"/>
      <point x="459" y="85"/>
      <point x="461" y="86"/>
      <point x="463" y="88" type="curve" smooth="yes"/>
      <point x="482" y="107"/>
      <point x="501" y="126"/>
      <point x="516" y="141" type="curve"/>
      <point x="488" y="168"/>
      <point x="454" y="202"/>
      <point x="427" y="229" type="curve" smooth="yes"/>
      <point x="423" y="233"/>
      <point x="419" y="233"/>
      <point x="415" y="229" type="curve" smooth="yes"/>
      <point x="398" y="213"/>
      <point x="378" y="192"/>
    </contour>
    <contour>
      <point x="235" y="177" type="curve"/>
      <point x="227" y="185"/>
      <point x="192" y="220"/>
      <point x="183" y="229" type="curve" smooth="yes"/>
      <point x="179" y="233"/>
      <point x="175" y="233"/>
      <point x="171" y="229" type="curve" smooth="yes"/>
      <point x="144" y="202"/>
      <point x="110" y="168"/>
      <point x="82" y="141" type="curve"/>
      <point x="100" y="123"/>
      <point x="116" y="107"/>
      <point x="135" y="88" type="curve" smooth="yes"/>
      <point x="137" y="86"/>
      <point x="139" y="85"/>
      <point x="141" y="85" type="curve" smooth="yes"/>
      <point x="143" y="85"/>
      <point x="145" y="86"/>
      <point x="147" y="88" type="curve" smooth="yes"/>
      <point x="175" y="117"/>
      <point x="208" y="150"/>
    </contour>
    <contour>
      <point x="300" y="201" type="curve"/>
      <point x="239" y="201"/>
      <point x="205" y="231"/>
      <point x="205" y="280" type="curve" smooth="yes"/>
      <point x="205" y="321" type="line" smooth="yes"/>
      <point x="205" y="371"/>
      <point x="241" y="400"/>
      <point x="300" y="400" type="curve" smooth="yes"/>
      <point x="339" y="400"/>
      <point x="357" y="397"/>
      <point x="384" y="387" type="curve"/>
      <point x="393" y="431"/>
      <point x="362" y="472"/>
      <point x="300" y="472" type="curve"/>
      <point x="197" y="472"/>
      <point x="131" y="415"/>
      <point x="131" y="326" type="curve" smooth="yes"/>
      <point x="131" y="276" type="line" smooth="yes"/>
      <point x="131" y="186"/>
      <point x="197" y="130"/>
      <point x="300" y="130" type="curve"/>
      <point x="309" y="130"/>
      <point x="309" y="168"/>
    </contour>
    <contour>
      <point x="300" y="400" type="curve"/>
      <point x="361" y="400"/>
      <point x="395" y="371"/>
      <point x="395" y="321" type="curve" smooth="yes"/>
      <point x="395" y="280" type="line" smooth="yes"/>
      <point x="395" y="231"/>
      <point x="359" y="201"/>
      <point x="300" y="201" type="curve" smooth="yes"/>
      <point x="261" y="201"/>
      <point x="243" y="204"/>
      <point x="216" y="215" type="curve"/>
      <point x="207" y="171"/>
      <point x="238" y="130"/>
      <point x="300" y="130" type="curve"/>
      <point x="403" y="130"/>
      <point x="469" y="186"/>
      <point x="469" y="276" type="curve" smooth="yes"/>
      <point x="469" y="326" type="line" smooth="yes"/>
      <point x="469" y="415"/>
      <point x="403" y="472"/>
      <point x="300" y="472" type="curve"/>
      <point x="288" y="472"/>
      <point x="288" y="436"/>
    </contour>
  </outline>
</glyph>
<glyph name="brokenbar" format="1">
  <advance width="300"/>
  <unicode hex="00A6"/>
  <outline>
    <contour>
      <point x="98" y="760" type="curve"/>
      <point x="98" y="727"/>
      <point x="98" y="694"/>
      <point x="98" y="661" type="curve" smooth="yes"/>
      <point x="98" y="380" type="line" smooth="yes"/>
      <point x="98" y="374"/>
      <point x="103" y="369"/>
      <point x="109" y="369" type="curve" smooth="yes"/>
      <point x="140" y="369"/>
      <point x="170" y="369"/>
      <point x="202" y="369" type="curve"/>
      <point x="202" y="749" type="line" smooth="yes"/>
      <point x="202" y="752"/>
      <point x="201" y="755"/>
      <point x="199" y="757" type="curve" smooth="yes"/>
      <point x="197" y="759"/>
      <point x="194" y="760"/>
      <point x="191" y="760" type="curve" smooth="yes"/>
      <point x="159" y="760"/>
      <point x="129" y="760"/>
    </contour>
    <contour>
      <point x="98" y="231" type="curve"/>
      <point x="98" y="-149" type="line"/>
      <point x="98" y="-155"/>
      <point x="103" y="-160"/>
      <point x="109" y="-160" type="curve" smooth="yes"/>
      <point x="140" y="-160"/>
      <point x="170" y="-160"/>
      <point x="202" y="-160" type="curve"/>
      <point x="202" y="220" type="line" smooth="yes"/>
      <point x="202" y="227"/>
      <point x="198" y="231"/>
      <point x="191" y="231" type="curve" smooth="yes"/>
      <point x="159" y="231"/>
      <point x="129" y="231"/>
    </contour>
  </outline>
</glyph>
<glyph name="dieresis" format="1">
  <advance width="600"/>
  <unicode hex="00A8"/>
  <outline>
    <contour>
      <point x="254" y="645" type="curve"/>
      <point x="254" y="751" type="line" smooth="yes"/>
      <point x="254" y="757"/>
      <point x="249" y="762"/>
      <point x="243" y="762" type="curve" smooth="yes"/>
      <point x="207" y="762"/>
      <point x="172" y="762"/>
      <point x="137" y="762" type="curve"/>
      <point x="137" y="656" type="line" smooth="yes"/>
      <point x="137" y="650"/>
      <point x="142" y="645"/>
      <point x="148" y="645" type="curve" smooth="yes"/>
      <point x="183" y="645"/>
      <point x="218" y="645"/>
    </contour>
    <contour>
      <point x="463" y="645" type="curve"/>
      <point x="463" y="751" type="line" smooth="yes"/>
      <point x="463" y="757"/>
      <point x="458" y="762"/>
      <point x="452" y="762" type="curve" smooth="yes"/>
      <point x="417" y="762"/>
      <point x="382" y="762"/>
      <point x="346" y="762" type="curve"/>
      <point x="346" y="656" type="line" smooth="yes"/>
      <point x="346" y="650"/>
      <point x="351" y="645"/>
      <point x="357" y="645" type="curve" smooth="yes"/>
      <point x="393" y="645"/>
      <point x="428" y="645"/>
    </contour>
  </outline>
</glyph>
<glyph name="copyright" format="1">
  <advance width="600"/>
  <unicode hex="00A9"/>
  <outline>
    <contour>
      <point x="300" y="715" type="curve" smooth="yes"/>
      <point x="129" y="715"/>
      <point x="18" y="615"/>
      <point x="18" y="434" type="curve" smooth="yes"/>
      <point x="18" y="271" type="line" smooth="yes"/>
      <point x="18" y="85"/>
      <point x="123" y="-15"/>
      <point x="300" y="-15" type="curve" smooth="yes"/>
      <point x="303" y="-5"/>
      <point x="313" y="21"/>
      <point x="300" y="39" type="curve"/>
      <point x="158" y="39"/>
      <point x="75" y="120"/>
      <point x="75" y="255" type="curve" smooth="yes"/>
      <point x="75" y="446" type="line" smooth="yes"/>
      <point x="75" y="580"/>
      <point x="158" y="661"/>
      <point x="300" y="661" type="curve" smooth="yes"/>
      <point x="353" y="661"/>
      <point x="387" y="657"/>
      <point x="431" y="644" type="curve"/>
      <point x="445" y="682"/>
      <point x="389" y="715"/>
    </contour>
    <contour>
      <point x="300" y="-15" type="curve" smooth="yes"/>
      <point x="471" y="-15"/>
      <point x="582" y="85"/>
      <point x="582" y="266" type="curve" smooth="yes"/>
      <point x="582" y="429" type="line" smooth="yes"/>
      <point x="582" y="615"/>
      <point x="477" y="715"/>
      <point x="300" y="715" type="curve" smooth="yes"/>
      <point x="297" y="705"/>
      <point x="287" y="679"/>
      <point x="300" y="661" type="curve"/>
      <point x="442" y="661"/>
      <point x="525" y="580"/>
      <point x="525" y="445" type="curve" smooth="yes"/>
      <point x="525" y="254" type="line" smooth="yes"/>
      <point x="525" y="120"/>
      <point x="442" y="39"/>
      <point x="300" y="39" type="curve" smooth="yes"/>
      <point x="247" y="39"/>
      <point x="213" y="43"/>
      <point x="169" y="56" type="curve"/>
      <point x="155" y="18"/>
      <point x="211" y="-15"/>
    </contour>
    <contour>
      <point x="308" y="503" type="curve" smooth="yes"/>
      <point x="349" y="503"/>
      <point x="365" y="487"/>
      <point x="384" y="459" type="curve"/>
      <point x="415" y="497"/>
      <point x="420" y="504"/>
      <point x="420" y="511" type="curve" smooth="yes"/>
      <point x="420" y="516"/>
      <point x="419" y="518"/>
      <point x="415" y="522" type="curve" smooth="yes"/>
      <point x="391" y="549"/>
      <point x="356" y="566"/>
      <point x="308" y="566" type="curve" smooth="yes"/>
      <point x="221" y="566"/>
      <point x="170" y="517"/>
      <point x="170" y="429" type="curve" smooth="yes"/>
      <point x="170" y="273" type="line" smooth="yes"/>
      <point x="170" y="244"/>
      <point x="197" y="211"/>
      <point x="238" y="211" type="curve"/>
      <point x="238" y="234"/>
      <point x="238" y="250"/>
      <point x="238" y="275" type="curve" smooth="yes"/>
      <point x="238" y="430" type="line" smooth="yes"/>
      <point x="238" y="478"/>
      <point x="261" y="503"/>
    </contour>
    <contour>
      <point x="306" y="134" type="curve" smooth="yes"/>
      <point x="353" y="134"/>
      <point x="397" y="148"/>
      <point x="416" y="172" type="curve"/>
      <point x="420" y="177"/>
      <point x="421" y="178"/>
      <point x="421" y="188" type="curve" smooth="yes"/>
      <point x="421" y="206"/>
      <point x="421" y="225"/>
      <point x="421" y="247" type="curve"/>
      <point x="411" y="247" type="line"/>
      <point x="383" y="213"/>
      <point x="354" y="199"/>
      <point x="310" y="199" type="curve" smooth="yes"/>
      <point x="258" y="199"/>
      <point x="238" y="220"/>
      <point x="238" y="275" type="curve"/>
      <point x="182" y="285"/>
      <point x="170" y="279"/>
      <point x="170" y="273" type="curve" smooth="yes"/>
      <point x="170" y="186"/>
      <point x="213" y="134"/>
    </contour>
    <contour>
      <point x="420" y="424" type="curve"/>
      <point x="420" y="511" type="line" smooth="yes"/>
      <point x="420" y="519"/>
      <point x="405" y="522"/>
      <point x="356" y="522" type="curve"/>
      <point x="356" y="515"/>
      <point x="356" y="511"/>
      <point x="356" y="506" type="curve" smooth="yes"/>
      <point x="356" y="435" type="line" smooth="yes"/>
      <point x="356" y="428"/>
      <point x="359" y="424"/>
      <point x="367" y="424" type="curve" smooth="yes"/>
      <point x="385" y="424"/>
      <point x="399" y="424"/>
    </contour>
  </outline>
</glyph>
<glyph name="logicalnot" format="1">
  <advance width="600"/>
  <unicode hex="00AC"/>
  <outline>
    <contour>
      <point x="68" y="434" type="line"/>
      <point x="68" y="405"/>
      <point x="68" y="383"/>
      <point x="68" y="354" type="curve" smooth="yes"/>
      <point x="68" y="351"/>
      <point x="69" y="348"/>
      <point x="71" y="346" type="curve" smooth="yes"/>
      <point x="73" y="344"/>
      <point x="76" y="343"/>
      <point x="79" y="343" type="curve"/>
      <point x="532" y="343" type="line"/>
      <point x="532" y="423" type="line"/>
      <point x="532" y="429"/>
      <point x="527" y="434"/>
      <point x="521" y="434" type="curve"/>
    </contour>
    <contour>
      <point x="532" y="140" type="curve"/>
      <point x="532" y="382" type="line" smooth="yes"/>
      <point x="532" y="388"/>
      <point x="527" y="393"/>
      <point x="521" y="393" type="curve"/>
      <point x="433" y="393" type="line"/>
      <point x="433" y="151" type="line" smooth="yes"/>
      <point x="433" y="145"/>
      <point x="438" y="140"/>
      <point x="444" y="140" type="curve" smooth="yes"/>
      <point x="475" y="140"/>
      <point x="501" y="140"/>
    </contour>
  </outline>
</glyph>
<glyph name="registered" format="1">
  <advance width="600"/>
  <unicode hex="00AE"/>
  <outline>
    <contour>
      <point x="254" y="327" type="curve"/>
      <point x="254" y="354"/>
      <point x="254" y="379"/>
      <point x="254" y="406" type="curve"/>
      <point x="254" y="602" type="line"/>
      <point x="254" y="603"/>
      <point x="254" y="608"/>
      <point x="192" y="608" type="curve"/>
      <point x="192" y="338" type="line" smooth="yes"/>
      <point x="192" y="331"/>
      <point x="196" y="327"/>
      <point x="203" y="327" type="curve" smooth="yes"/>
      <point x="220" y="327"/>
      <point x="237" y="327"/>
    </contour>
    <contour>
      <point x="171" y="635" type="curve"/>
      <point x="171" y="620"/>
      <point x="171" y="606"/>
      <point x="171" y="590" type="curve"/>
      <point x="171" y="583"/>
      <point x="175" y="579"/>
      <point x="182" y="579" type="curve"/>
      <point x="188" y="579"/>
      <point x="198" y="579"/>
      <point x="204" y="579" type="curve" smooth="yes"/>
      <point x="241" y="579"/>
      <point x="290" y="579"/>
      <point x="327" y="579" type="curve" smooth="yes"/>
      <point x="360" y="579"/>
      <point x="376" y="579"/>
      <point x="394" y="579" type="curve"/>
      <point x="394" y="614"/>
      <point x="367" y="635"/>
      <point x="323" y="635" type="curve" smooth="yes"/>
      <point x="279" y="635"/>
      <point x="214" y="635"/>
    </contour>
    <contour>
      <point x="424" y="518" type="curve" smooth="yes"/>
      <point x="424" y="550" type="line" smooth="yes"/>
      <point x="424" y="604"/>
      <point x="391" y="635"/>
      <point x="323" y="635" type="curve"/>
      <point x="314" y="635"/>
      <point x="313" y="629"/>
      <point x="327" y="579" type="curve"/>
      <point x="352" y="579"/>
      <point x="363" y="570"/>
      <point x="363" y="547" type="curve" smooth="yes"/>
      <point x="363" y="519" type="line" smooth="yes"/>
      <point x="363" y="499"/>
      <point x="348" y="486"/>
      <point x="327" y="486" type="curve" smooth="yes"/>
      <point x="304" y="486"/>
      <point x="249" y="486"/>
      <point x="231" y="486" type="curve"/>
      <point x="231" y="470"/>
      <point x="231" y="456"/>
      <point x="231" y="437" type="curve" smooth="yes"/>
      <point x="231" y="434"/>
      <point x="234" y="431"/>
      <point x="237" y="431" type="curve" smooth="yes"/>
      <point x="335" y="431" type="line" smooth="yes"/>
      <point x="391" y="431"/>
      <point x="424" y="468"/>
    </contour>
    <contour>
      <point x="354" y="471" type="line"/>
      <point x="314" y="468"/>
      <point x="302" y="451"/>
      <point x="306" y="441" type="curve" smooth="yes"/>
      <point x="334" y="368" type="line" smooth="yes"/>
      <point x="347" y="332"/>
      <point x="366" y="324"/>
      <point x="404" y="324" type="curve" smooth="yes"/>
      <point x="413" y="324" type="line" smooth="yes"/>
      <point x="421" y="324"/>
      <point x="424" y="327"/>
      <point x="424" y="335" type="curve"/>
      <point x="424" y="348"/>
      <point x="424" y="367"/>
      <point x="424" y="382" type="curve"/>
      <point x="421" y="382" type="line"/>
      <point x="412" y="382"/>
      <point x="413" y="382"/>
      <point x="403" y="382" type="curve"/>
      <point x="391" y="382"/>
      <point x="388" y="384"/>
      <point x="384" y="394" type="curve" smooth="yes"/>
    </contour>
    <contour>
      <point x="300" y="760" type="curve" smooth="yes"/>
      <point x="142" y="760"/>
      <point x="48" y="684"/>
      <point x="48" y="545" type="curve" smooth="yes"/>
      <point x="48" y="416" type="line" smooth="yes"/>
      <point x="48" y="277"/>
      <point x="140" y="201"/>
      <point x="300" y="201" type="curve" smooth="yes"/>
      <point x="303" y="211"/>
      <point x="309" y="227"/>
      <point x="300" y="255" type="curve"/>
      <point x="172" y="255"/>
      <point x="105" y="312"/>
      <point x="105" y="405" type="curve" smooth="yes"/>
      <point x="105" y="552" type="line" smooth="yes"/>
      <point x="105" y="648"/>
      <point x="173" y="706"/>
      <point x="300" y="706" type="curve" smooth="yes"/>
      <point x="343" y="706"/>
      <point x="371" y="706"/>
      <point x="407" y="706" type="curve"/>
      <point x="407" y="737"/>
      <point x="374" y="760"/>
    </contour>
    <contour>
      <point x="300" y="201" type="curve" smooth="yes"/>
      <point x="461" y="201"/>
      <point x="552" y="276"/>
      <point x="552" y="411" type="curve" smooth="yes"/>
      <point x="552" y="539" type="line" smooth="yes"/>
      <point x="552" y="682"/>
      <point x="462" y="760"/>
      <point x="300" y="760" type="curve" smooth="yes"/>
      <point x="297" y="750"/>
      <point x="290" y="735"/>
      <point x="300" y="706" type="curve"/>
      <point x="431" y="706"/>
      <point x="495" y="647"/>
      <point x="495" y="551" type="curve" smooth="yes"/>
      <point x="495" y="404" type="line" smooth="yes"/>
      <point x="495" y="311"/>
      <point x="430" y="255"/>
      <point x="300" y="255" type="curve" smooth="yes"/>
      <point x="257" y="255"/>
      <point x="229" y="255"/>
      <point x="193" y="255" type="curve"/>
      <point x="193" y="224"/>
      <point x="226" y="201"/>
    </contour>
  </outline>
</glyph>
<glyph name="degree" format="1">
  <advance width="600"/>
  <unicode hex="00B0"/>
  <outline>
    <contour>
      <point x="300" y="440" type="curve"/>
      <point x="239" y="440"/>
      <point x="205" y="469"/>
      <point x="205" y="518" type="curve" smooth="yes"/>
      <point x="205" y="560" type="line" smooth="yes"/>
      <point x="205" y="609"/>
      <point x="241" y="638"/>
      <point x="300" y="638" type="curve" smooth="yes"/>
      <point x="339" y="638"/>
      <point x="357" y="635"/>
      <point x="384" y="625" type="curve"/>
      <point x="393" y="669"/>
      <point x="362" y="710"/>
      <point x="300" y="710" type="curve"/>
      <point x="197" y="710"/>
      <point x="131" y="653"/>
      <point x="131" y="564" type="curve" smooth="yes"/>
      <point x="131" y="514" type="line" smooth="yes"/>
      <point x="131" y="424"/>
      <point x="197" y="368"/>
      <point x="300" y="368" type="curve"/>
      <point x="309" y="368"/>
      <point x="309" y="406"/>
    </contour>
    <contour>
      <point x="300" y="638" type="curve"/>
      <point x="361" y="638"/>
      <point x="395" y="609"/>
      <point x="395" y="560" type="curve" smooth="yes"/>
      <point x="395" y="518" type="line" smooth="yes"/>
      <point x="395" y="469"/>
      <point x="359" y="440"/>
      <point x="300" y="440" type="curve" smooth="yes"/>
      <point x="261" y="440"/>
      <point x="243" y="443"/>
      <point x="216" y="453" type="curve"/>
      <point x="207" y="409"/>
      <point x="238" y="368"/>
      <point x="300" y="368" type="curve"/>
      <point x="403" y="368"/>
      <point x="469" y="424"/>
      <point x="469" y="514" type="curve" smooth="yes"/>
      <point x="469" y="564" type="line" smooth="yes"/>
      <point x="469" y="653"/>
      <point x="403" y="710"/>
      <point x="300" y="710" type="curve"/>
      <point x="288" y="710"/>
      <point x="288" y="674"/>
    </contour>
  </outline>
</glyph>
<glyph name="plusminus" format="1">
  <advance width="600"/>
  <unicode hex="00B1"/>
  <outline>
    <contour>
      <point x="68" y="430" type="line"/>
      <point x="68" y="401"/>
      <point x="68" y="378"/>
      <point x="68" y="349" type="curve" smooth="yes"/>
      <point x="68" y="346"/>
      <point x="69" y="343"/>
      <point x="71" y="341" type="curve" smooth="yes"/>
      <point x="73" y="339"/>
      <point x="76" y="338"/>
      <point x="79" y="338" type="curve"/>
      <point x="532" y="338" type="line"/>
      <point x="532" y="367"/>
      <point x="532" y="390"/>
      <point x="532" y="419" type="curve" smooth="yes"/>
      <point x="532" y="425"/>
      <point x="527" y="430"/>
      <point x="521" y="430" type="curve"/>
    </contour>
    <contour>
      <point x="349" y="225" type="curve"/>
      <point x="349" y="532" type="line" smooth="yes"/>
      <point x="349" y="535"/>
      <point x="348" y="538"/>
      <point x="346" y="540" type="curve" smooth="yes"/>
      <point x="344" y="542"/>
      <point x="341" y="543"/>
      <point x="338" y="543" type="curve" smooth="yes"/>
      <point x="310" y="543"/>
      <point x="284" y="543"/>
      <point x="251" y="543" type="curve"/>
      <point x="251" y="514"/>
      <point x="251" y="479"/>
      <point x="251" y="444" type="curve" smooth="yes"/>
      <point x="251" y="236" type="line" smooth="yes"/>
      <point x="251" y="230"/>
      <point x="256" y="225"/>
      <point x="262" y="225" type="curve" smooth="yes"/>
      <point x="293" y="225"/>
      <point x="318" y="225"/>
    </contour>
    <contour>
      <point x="68" y="157" type="line"/>
      <point x="68" y="128"/>
      <point x="68" y="106"/>
      <point x="68" y="77" type="curve" smooth="yes"/>
      <point x="68" y="74"/>
      <point x="69" y="71"/>
      <point x="71" y="69" type="curve" smooth="yes"/>
      <point x="73" y="67"/>
      <point x="76" y="66"/>
      <point x="79" y="66" type="curve"/>
      <point x="532" y="66" type="line"/>
      <point x="532" y="95"/>
      <point x="532" y="117"/>
      <point x="532" y="146" type="curve" smooth="yes"/>
      <point x="532" y="152"/>
      <point x="527" y="157"/>
      <point x="521" y="157" type="curve"/>
    </contour>
  </outline>
</glyph>
<glyph name="twosuperior" format="1">
  <advance width="600"/>
  <unicode hex="00B2"/>
  <outline>
    <contour>
      <point x="299" y="640" type="curve" smooth="yes"/>
      <point x="349" y="640"/>
      <point x="360" y="627"/>
      <point x="360" y="610" type="curve"/>
      <point x="407" y="610"/>
      <point x="432" y="615"/>
      <point x="432" y="620" type="curve" smooth="yes"/>
      <point x="432" y="675"/>
      <point x="379" y="710"/>
      <point x="299" y="710" type="curve" smooth="yes"/>
      <point x="245" y="710"/>
      <point x="200" y="696"/>
      <point x="186" y="682" type="curve" smooth="yes"/>
      <point x="181" y="677"/>
      <point x="181" y="674"/>
      <point x="181" y="668" type="curve" smooth="yes"/>
      <point x="181" y="648"/>
      <point x="181" y="633"/>
      <point x="181" y="615" type="curve"/>
      <point x="193" y="615" type="line"/>
      <point x="229" y="633"/>
      <point x="255" y="640"/>
    </contour>
    <contour>
      <point x="360" y="664" type="curve"/>
      <point x="360" y="646"/>
      <point x="360" y="625"/>
      <point x="360" y="610" type="curve" smooth="yes"/>
      <point x="360" y="589"/>
      <point x="354" y="583"/>
      <point x="288" y="559" type="curve" smooth="yes"/>
      <point x="190" y="523"/>
      <point x="171" y="484"/>
      <point x="171" y="430" type="curve" smooth="yes"/>
      <point x="171" y="419"/>
      <point x="201" y="420"/>
      <point x="242" y="420" type="curve"/>
      <point x="242" y="465"/>
      <point x="249" y="474"/>
      <point x="331" y="506" type="curve" smooth="yes"/>
      <point x="409" y="536"/>
      <point x="432" y="560"/>
      <point x="432" y="611" type="curve" smooth="yes"/>
      <point x="432" y="620" type="line" smooth="yes"/>
      <point x="432" y="644"/>
      <point x="396" y="664"/>
    </contour>
    <contour>
      <point x="436" y="369" type="line"/>
      <point x="436" y="389"/>
      <point x="436" y="404"/>
      <point x="436" y="424" type="curve" smooth="yes"/>
      <point x="436" y="431"/>
      <point x="432" y="435"/>
      <point x="425" y="435" type="curve" smooth="yes"/>
      <point x="218" y="435" type="line" smooth="yes"/>
      <point x="204" y="435"/>
      <point x="189" y="433"/>
      <point x="171" y="430" type="curve"/>
      <point x="171" y="414"/>
      <point x="171" y="396"/>
      <point x="171" y="380" type="curve" smooth="yes"/>
      <point x="171" y="373"/>
      <point x="175" y="369"/>
      <point x="182" y="369" type="curve" smooth="yes"/>
    </contour>
  </outline>
</glyph>
<glyph name="threesuperior" format="1">
  <advance width="600"/>
  <unicode hex="00B3"/>
  <outline>
    <contour>
      <point x="286" y="641" type="curve" smooth="yes"/>
      <point x="328" y="641"/>
      <point x="352" y="630"/>
      <point x="352" y="610" type="curve" smooth="yes"/>
      <point x="352" y="605"/>
      <point x="352" y="600"/>
      <point x="352" y="596" type="curve"/>
      <point x="409" y="597"/>
      <point x="425" y="606"/>
      <point x="425" y="619" type="curve" smooth="yes"/>
      <point x="425" y="628" type="line" smooth="yes"/>
      <point x="425" y="682"/>
      <point x="371" y="711"/>
      <point x="290" y="711" type="curve"/>
      <point x="236" y="711"/>
      <point x="192" y="696"/>
      <point x="179" y="683" type="curve" smooth="yes"/>
      <point x="174" y="678"/>
      <point x="174" y="675"/>
      <point x="174" y="669" type="curve" smooth="yes"/>
      <point x="174" y="649"/>
      <point x="174" y="634"/>
      <point x="174" y="617" type="curve"/>
      <point x="186" y="617" type="line"/>
      <point x="220" y="634"/>
      <point x="246" y="641"/>
    </contour>
    <contour>
      <point x="254" y="528" type="curve" smooth="yes"/>
      <point x="371" y="528"/>
      <point x="425" y="561"/>
      <point x="425" y="619" type="curve" smooth="yes"/>
      <point x="425" y="636"/>
      <point x="403" y="645"/>
      <point x="352" y="645" type="curve"/>
      <point x="352" y="636"/>
      <point x="352" y="627"/>
      <point x="352" y="610" type="curve" smooth="yes"/>
      <point x="352" y="582"/>
      <point x="333" y="567"/>
      <point x="243" y="567" type="curve"/>
      <point x="243" y="561"/>
      <point x="243" y="548"/>
      <point x="243" y="539" type="curve" smooth="yes"/>
      <point x="243" y="532"/>
      <point x="247" y="528"/>
    </contour>
    <contour>
      <point x="254" y="506" type="curve" smooth="yes"/>
      <point x="334" y="506"/>
      <point x="357" y="487"/>
      <point x="357" y="463" type="curve" smooth="yes"/>
      <point x="357" y="452"/>
      <point x="357" y="443"/>
      <point x="357" y="434" type="curve"/>
      <point x="417" y="434"/>
      <point x="429" y="444"/>
      <point x="429" y="458" type="curve" smooth="yes"/>
      <point x="429" y="532"/>
      <point x="346" y="547"/>
      <point x="243" y="547" type="curve"/>
      <point x="243" y="543"/>
      <point x="243" y="529"/>
      <point x="243" y="517" type="curve" smooth="yes"/>
      <point x="243" y="510"/>
      <point x="247" y="506"/>
    </contour>
    <contour>
      <point x="287" y="427" type="curve" smooth="yes"/>
      <point x="246" y="427"/>
      <point x="219" y="433"/>
      <point x="177" y="454" type="curve"/>
      <point x="165" y="454" type="line"/>
      <point x="165" y="437"/>
      <point x="165" y="419"/>
      <point x="165" y="399" type="curve" smooth="yes"/>
      <point x="165" y="393"/>
      <point x="166" y="390"/>
      <point x="171" y="385" type="curve" smooth="yes"/>
      <point x="185" y="372"/>
      <point x="233" y="357"/>
      <point x="287" y="357" type="curve" smooth="yes"/>
      <point x="376" y="357"/>
      <point x="429" y="392"/>
      <point x="429" y="450" type="curve" smooth="yes"/>
      <point x="429" y="458" type="line" smooth="yes"/>
      <point x="429" y="477"/>
      <point x="406" y="484"/>
      <point x="357" y="484" type="curve"/>
      <point x="357" y="479"/>
      <point x="357" y="470"/>
      <point x="357" y="463" type="curve" smooth="yes"/>
      <point x="357" y="439"/>
      <point x="336" y="427"/>
    </contour>
  </outline>
</glyph>
<glyph name="paragraph" format="1">
  <advance width="600"/>
  <unicode hex="00B6"/>
  <outline>
    <contour>
      <point x="345" y="-150" type="curve"/>
      <point x="345" y="640" type="line"/>
      <point x="345" y="646"/>
      <point x="340" y="651"/>
      <point x="334" y="651" type="curve" smooth="yes"/>
      <point x="310" y="651"/>
      <point x="286" y="651"/>
      <point x="262" y="651" type="curve"/>
      <point x="262" y="-139" type="line" smooth="yes"/>
      <point x="262" y="-146"/>
      <point x="266" y="-150"/>
      <point x="273" y="-150" type="curve" smooth="yes"/>
      <point x="297" y="-150"/>
      <point x="321" y="-150"/>
    </contour>
    <contour>
      <point x="520" y="-150" type="curve"/>
      <point x="520" y="-118"/>
      <point x="520" y="-80"/>
      <point x="520" y="-40" type="curve" smooth="yes"/>
      <point x="520" y="640" type="line" smooth="yes"/>
      <point x="520" y="646"/>
      <point x="515" y="651"/>
      <point x="509" y="651" type="curve" smooth="yes"/>
      <point x="484" y="651"/>
      <point x="460" y="651"/>
      <point x="436" y="651" type="curve"/>
      <point x="436" y="-139" type="line" smooth="yes"/>
      <point x="436" y="-146"/>
      <point x="440" y="-150"/>
      <point x="447" y="-150" type="curve" smooth="yes"/>
      <point x="471" y="-150"/>
      <point x="495" y="-150"/>
    </contour>
    <contour>
      <point x="267" y="700" type="line" smooth="yes"/>
      <point x="126" y="700"/>
      <point x="52" y="618"/>
      <point x="52" y="486" type="curve" smooth="yes"/>
      <point x="52" y="401" type="line" smooth="yes"/>
      <point x="52" y="289"/>
      <point x="110" y="209"/>
      <point x="230" y="209" type="curve" smooth="yes"/>
      <point x="320" y="209" type="line" smooth="yes"/>
      <point x="327" y="209"/>
      <point x="332" y="220"/>
      <point x="332" y="287" type="curve"/>
      <point x="293" y="287" type="line" smooth="yes"/>
      <point x="227" y="287"/>
      <point x="193" y="314"/>
      <point x="193" y="398" type="curve" smooth="yes"/>
      <point x="193" y="488" type="line" smooth="yes"/>
      <point x="193" y="571"/>
      <point x="231" y="609"/>
      <point x="308" y="609" type="curve" smooth="yes"/>
      <point x="398" y="609"/>
      <point x="495" y="609"/>
      <point x="560" y="609" type="curve"/>
      <point x="571" y="609" type="line"/>
      <point x="571" y="625"/>
      <point x="571" y="639"/>
      <point x="571" y="689" type="curve" smooth="yes"/>
      <point x="571" y="692"/>
      <point x="570" y="695"/>
      <point x="568" y="697" type="curve" smooth="yes"/>
      <point x="566" y="699"/>
      <point x="563" y="700"/>
      <point x="560" y="700" type="curve" smooth="yes"/>
    </contour>
  </outline>
</glyph>
<glyph name="periodcentered" format="1">
  <advance width="300"/>
  <unicode hex="00B7"/>
  <outline>
    <contour>
      <point x="230" y="232" type="curve"/>
      <point x="230" y="380" type="line" smooth="yes"/>
      <point x="230" y="386"/>
      <point x="225" y="391"/>
      <point x="219" y="391" type="curve" smooth="yes"/>
      <point x="173" y="391"/>
      <point x="116" y="391"/>
      <point x="70" y="391" type="curve"/>
      <point x="70" y="243" type="line" smooth="yes"/>
      <point x="70" y="237"/>
      <point x="75" y="232"/>
      <point x="81" y="232" type="curve" smooth="yes"/>
      <point x="127" y="232"/>
      <point x="184" y="232"/>
    </contour>
  </outline>
</glyph>
<glyph name="cedilla" format="1">
  <advance width="600"/>
  <unicode hex="00B8"/>
  <outline>
    <contour>
      <point x="407" y="-118" type="curve" smooth="yes"/>
      <point x="407" y="-63"/>
      <point x="373" y="-30"/>
      <point x="318" y="-22" type="curve"/>
      <point x="323" y="1"/>
      <point x="327" y="19"/>
      <point x="331" y="38" type="curve"/>
      <point x="285" y="38"/>
      <point x="279" y="36"/>
      <point x="275" y="25" type="curve" smooth="yes"/>
      <point x="267" y="-1"/>
      <point x="262" y="-19"/>
      <point x="253" y="-47" type="curve" smooth="yes"/>
      <point x="250" y="-54"/>
      <point x="254" y="-60"/>
      <point x="261" y="-60" type="curve" smooth="yes"/>
      <point x="311" y="-60"/>
      <point x="325" y="-74"/>
      <point x="325" y="-103" type="curve" smooth="yes"/>
      <point x="325" y="-132"/>
      <point x="300" y="-150"/>
      <point x="261" y="-150" type="curve" smooth="yes"/>
      <point x="229" y="-150"/>
      <point x="213" y="-144"/>
      <point x="196" y="-132" type="curve"/>
      <point x="184" y="-132" type="line"/>
      <point x="184" y="-150"/>
      <point x="184" y="-181"/>
      <point x="184" y="-206" type="curve" smooth="yes"/>
      <point x="184" y="-216"/>
      <point x="208" y="-235"/>
      <point x="269" y="-235" type="curve" smooth="yes"/>
      <point x="360" y="-235"/>
      <point x="407" y="-183"/>
    </contour>
  </outline>
</glyph>
<glyph name="guillemotright" format="1">
  <advance width="600"/>
  <unicode hex="00BB"/>
  <outline>
    <contour>
      <point x="279" y="78" type="line"/>
      <point x="309" y="78"/>
      <point x="331" y="78"/>
      <point x="353" y="78" type="curve" smooth="yes"/>
      <point x="365" y="78"/>
      <point x="370" y="79"/>
      <point x="379" y="88" type="curve" smooth="yes"/>
      <point x="408" y="118"/>
      <point x="494" y="209"/>
      <point x="556" y="275" type="curve"/>
      <point x="556" y="295" type="line"/>
      <point x="556" y="306"/>
      <point x="550" y="309"/>
      <point x="501" y="329" type="curve"/>
      <point x="432" y="256"/>
      <point x="377" y="198"/>
      <point x="279" y="95" type="curve"/>
    </contour>
    <contour>
      <point x="279" y="505" type="line"/>
      <point x="378" y="402"/>
      <point x="427" y="351"/>
      <point x="491" y="282" type="curve"/>
      <point x="549" y="282"/>
      <point x="556" y="284"/>
      <point x="556" y="291" type="curve"/>
      <point x="556" y="315" type="line" smooth="yes"/>
      <point x="556" y="323"/>
      <point x="555" y="327"/>
      <point x="546" y="337" type="curve" smooth="yes"/>
      <point x="526" y="358"/>
      <point x="395" y="495"/>
      <point x="381" y="510" type="curve"/>
      <point x="370" y="521"/>
      <point x="368" y="522"/>
      <point x="355" y="522" type="curve" smooth="yes"/>
      <point x="318" y="522"/>
      <point x="300" y="522"/>
      <point x="279" y="522" type="curve"/>
    </contour>
    <contour>
      <point x="49" y="78" type="line"/>
      <point x="79" y="78"/>
      <point x="101" y="78"/>
      <point x="123" y="78" type="curve" smooth="yes"/>
      <point x="135" y="78"/>
      <point x="140" y="79"/>
      <point x="149" y="88" type="curve" smooth="yes"/>
      <point x="178" y="118"/>
      <point x="264" y="209"/>
      <point x="326" y="275" type="curve"/>
      <point x="326" y="295" type="line"/>
      <point x="326" y="306"/>
      <point x="320" y="309"/>
      <point x="271" y="329" type="curve"/>
      <point x="202" y="256"/>
      <point x="147" y="198"/>
      <point x="49" y="95" type="curve"/>
    </contour>
    <contour>
      <point x="49" y="505" type="line"/>
      <point x="148" y="402"/>
      <point x="197" y="351"/>
      <point x="261" y="282" type="curve"/>
      <point x="319" y="282"/>
      <point x="326" y="284"/>
      <point x="326" y="291" type="curve"/>
      <point x="326" y="315" type="line" smooth="yes"/>
      <point x="326" y="323"/>
      <point x="325" y="327"/>
      <point x="316" y="337" type="curve" smooth="yes"/>
      <point x="296" y="358"/>
      <point x="165" y="495"/>
      <point x="151" y="510" type="curve"/>
      <point x="140" y="521"/>
      <point x="138" y="522"/>
      <point x="125" y="522" type="curve" smooth="yes"/>
      <point x="88" y="522"/>
      <point x="70" y="522"/>
      <point x="49" y="522" type="curve"/>
    </contour>
  </outline>
</glyph>
